<svg width="274" height="290" viewBox="0 0 274 290" fill="none" xmlns="http://www.w3.org/2000/svg">
<g filter="url(#filter0_d_37_6149)">
<rect x="3.19266" y="17.3694" width="249" height="266" rx="12" transform="rotate(-4 3.19266 17.3694)" fill="#2F5C5C"/>
<g clip-path="url(#clip0_37_6149)">
<rect x="11.8488" y="54.8569" width="236.962" height="222.38" rx="6" transform="rotate(-4 11.8488 54.8569)" fill="white"/>
<path d="M24.179 80.4642L22.8892 80.5544L24.9537 73.2862L26.2241 73.1974L29.28 80.1075L27.9708 80.199L27.2841 78.6001L24.6366 78.7852L24.179 80.4642ZM25.5767 75.3671L24.9318 77.7121L26.852 77.5778L25.8773 75.3461C25.7748 75.0869 25.7136 74.9093 25.6939 74.8132C25.6673 74.9905 25.6283 75.1751 25.5767 75.3671ZM31.7541 80.0612C31.0688 80.1091 30.5064 79.9178 30.067 79.4872C29.6276 79.0567 29.3817 78.4664 29.3292 77.7165C29.2763 76.96 29.4403 76.3314 29.821 75.8305C30.2078 75.3227 30.7568 75.0439 31.468 74.9942C31.8042 74.9707 32.116 75.0171 32.4035 75.1334C32.6906 75.2433 32.9168 75.4126 33.0822 75.6414L32.87 72.606L34.0434 72.5239L34.5479 79.7391L33.4618 79.8151L33.332 79.0738C33.2087 79.3553 33.0071 79.5838 32.727 79.7593C32.4469 79.9348 32.1226 80.0354 31.7541 80.0612ZM30.9424 78.6269C31.2001 78.8753 31.5327 78.9852 31.94 78.9567C32.3473 78.9282 32.6645 78.7729 32.8917 78.4906C33.1248 78.2014 33.2262 77.8403 33.196 77.4071C33.1657 76.9739 33.0149 76.6304 32.7438 76.3765C32.4792 76.1221 32.1432 76.0092 31.7359 76.0377C31.3285 76.0661 31.0148 76.2245 30.7946 76.5128C30.5743 76.8011 30.4794 77.1618 30.5096 77.5949C30.5399 78.0281 30.6842 78.3721 30.9424 78.6269ZM37.7584 79.6413C37.0731 79.6892 36.5107 79.4979 36.0713 79.0674C35.6319 78.6368 35.386 78.0466 35.3336 77.2966C35.2807 76.5402 35.4446 75.9115 35.8254 75.4106C36.2122 74.9028 36.7611 74.624 37.4723 74.5743C37.8085 74.5508 38.1203 74.5972 38.4078 74.7135C38.6949 74.8234 38.9211 74.9927 39.0866 75.2215L38.8743 72.1861L40.0477 72.1041L40.5523 79.3193L39.4661 79.3952L39.3363 78.6539C39.2131 78.9354 39.0114 79.1639 38.7313 79.3394C38.4512 79.5149 38.1269 79.6155 37.7584 79.6413ZM36.9467 78.207C37.2045 78.4554 37.537 78.5653 37.9443 78.5368C38.3516 78.5084 38.6688 78.353 38.896 78.0707C39.1291 77.7816 39.2306 77.4204 39.2003 76.9872C39.17 76.5541 39.0193 76.2105 38.7481 75.9566C38.4835 75.7023 38.1475 75.5893 37.7402 75.6178C37.3329 75.6463 37.0191 75.8047 36.7989 76.0929C36.5787 76.3812 36.4837 76.7419 36.514 77.1751C36.5443 77.6082 36.6885 77.9522 36.9467 78.207ZM43.809 73.9558C43.7656 73.3351 43.9631 72.8146 44.4015 72.3941C44.8458 71.9667 45.4398 71.727 46.1833 71.675C46.9009 71.6248 47.4862 71.7723 47.9391 72.1175C48.3916 72.4562 48.6499 72.9448 48.7141 73.5835L47.4728 73.6703C47.4386 73.3674 47.3122 73.1391 47.0935 72.9855C46.8744 72.8254 46.5903 72.7575 46.2412 72.7819C45.8597 72.8086 45.5588 72.9174 45.3382 73.1082C45.1237 73.2921 45.0268 73.5328 45.0476 73.8302C45.0815 74.3151 45.3907 74.6021 45.9751 74.6911L47.1073 74.8556C48.328 75.0301 48.9744 75.6346 49.0468 76.669C49.0929 77.3285 48.8938 77.8719 48.4494 78.2993C48.005 78.7267 47.3916 78.9677 46.6094 79.0224C45.8529 79.0753 45.2321 78.9303 44.7468 78.5874C44.2616 78.2445 43.9903 77.7567 43.9331 77.1241L45.1744 77.0373C45.2017 77.3342 45.3346 77.562 45.573 77.7208C45.8111 77.8731 46.1305 77.9352 46.5314 77.9071C46.9451 77.8782 47.2658 77.7713 47.4932 77.5865C47.7271 77.4012 47.8337 77.1599 47.8129 76.8625C47.7799 76.3905 47.4846 76.1156 46.9269 76.0376L45.7843 75.8642C44.5438 75.6845 43.8854 75.0484 43.809 73.9558ZM51.5727 78.6753C51.0684 78.7106 50.6581 78.6029 50.3417 78.3521C50.0317 78.1009 49.861 77.749 49.8293 77.2965C49.7986 76.8568 49.9259 76.4939 50.2112 76.2075C50.503 75.9208 50.9318 75.7348 51.4975 75.6498L52.9254 75.4428L52.9179 75.3361C52.8754 74.7284 52.5244 74.4475 51.865 74.4937C51.5159 74.5181 51.2525 74.608 51.075 74.7633C50.897 74.9122 50.8168 75.1127 50.8344 75.3648L49.8259 75.4354C49.7897 74.9181 49.9547 74.4908 50.3209 74.1534C50.6932 73.809 51.2058 73.614 51.8587 73.5683C52.5117 73.5226 53.0347 73.6615 53.4276 73.9848C53.8206 74.3082 54.0399 74.7964 54.0855 75.4493L54.289 78.3587L53.2513 78.4313L53.1145 77.7294C53.0282 77.9823 52.8418 78.1968 52.5553 78.3727C52.2752 78.5482 51.9477 78.6491 51.5727 78.6753ZM51.8982 77.756C52.2667 77.7302 52.5504 77.6064 52.7493 77.3846C52.9482 77.1628 53.0348 76.8677 53.009 76.4992L52.9913 76.247L51.9979 76.3944C51.3236 76.5066 51.0004 76.763 51.0285 77.1639C51.0587 77.5971 51.3487 77.7944 51.8982 77.756ZM56.6441 78.194L55.4707 78.2761L54.9661 71.0609L56.1396 70.9788L56.6441 78.194ZM60.0372 78.0834C59.326 78.1332 58.7279 77.9411 58.2428 77.5072C57.7572 77.0669 57.4884 76.475 57.4364 75.7315C57.384 74.9816 57.5611 74.3552 57.9677 73.8525C58.3808 73.3494 58.9397 73.0731 59.6444 73.0239C60.3621 72.9737 60.9466 73.157 61.3981 73.5737C61.8555 73.9835 62.1104 74.5633 62.1629 75.3133L62.188 75.6721L58.5811 75.9341C58.7308 76.7747 59.2 77.1674 59.9888 77.1123C60.6547 77.0657 61.0423 76.8015 61.1515 76.3196L62.2474 76.2429C62.1806 76.7739 61.9507 77.2025 61.5577 77.5288C61.1712 77.8547 60.6644 78.0396 60.0372 78.0834ZM59.722 73.993C59.0108 74.0427 58.6225 74.4369 58.5573 75.1756L60.9623 75.0075C60.9393 74.6777 60.8141 74.4201 60.5867 74.2346C60.3658 74.0487 60.0775 73.9681 59.722 73.993Z" fill="#0F172A"/>
<path d="M25.6042 99.0683L24.6732 99.1334L24.3014 93.8166L25.2324 93.7515L25.386 95.948L27.7425 95.7833L27.5889 93.5867L28.5199 93.5216L28.8917 98.8384L27.9607 98.9035L27.8031 96.6488L25.4465 96.8136L25.6042 99.0683ZM33.8782 93.8266C34.3938 94.3022 34.6799 94.9449 34.7366 95.7547C34.7932 96.5644 34.597 97.2433 34.1481 97.7911C33.7036 98.3339 33.1008 98.6318 32.3395 98.6851C31.5782 98.7383 30.9422 98.527 30.4314 98.051C29.9203 97.5703 29.6364 96.925 29.5797 96.1153C29.5231 95.3055 29.7146 94.6294 30.1542 94.0871C30.5983 93.5395 31.201 93.2391 31.9623 93.1859C32.7236 93.1326 33.3622 93.3462 33.8782 93.8266ZM33.7547 95.8233C33.715 95.256 33.538 94.8152 33.2237 94.501C32.9142 94.1864 32.5146 94.0463 32.0248 94.0805C31.5351 94.1147 31.1564 94.3093 30.8889 94.6642C30.6262 95.0188 30.5147 95.4798 30.5544 96.0471C30.594 96.6144 30.7686 97.0554 31.0781 97.3699C31.3924 97.6842 31.7945 97.8242 32.2842 97.7899C32.7691 97.756 33.1453 97.5616 33.4129 97.2067C33.6801 96.8469 33.794 96.3858 33.7547 95.8233ZM36.6959 98.2927L34.7385 93.0868L35.7059 93.0191L36.7459 95.7676C36.879 96.1384 36.9836 96.4843 37.0597 96.8055C37.0986 96.4568 37.1613 96.0992 37.2478 95.7325L37.8879 92.8665L38.9134 92.7948L39.9316 95.5449C40.0524 95.8775 40.1618 96.2231 40.26 96.5817C40.3184 96.1634 40.3789 95.8084 40.4413 95.5165L41.1027 92.6417L42.0483 92.5756L40.8054 98.0054L39.9035 98.0684L38.4982 94.2783L37.6123 98.2286L36.6959 98.2927ZM45.9817 97.6434L45.0798 97.7065L44.708 92.3896L45.6099 92.3266L47.6225 96.4396L49.043 92.0865L49.9594 92.0224L50.3312 97.3392L49.4293 97.4023L49.3149 95.7658C49.2504 94.8445 49.2264 94.2566 49.2427 94.0021L48.1274 97.4934L47.2691 97.5534L45.6865 94.2581C45.7423 94.4978 45.7963 94.991 45.8485 95.7378L45.9817 97.6434ZM51.3358 95.3175L51.0998 91.9427L52.0308 91.8776L52.2627 95.1942C52.2895 95.5773 52.4094 95.8637 52.6225 96.0534C52.8404 96.2429 53.1384 96.3243 53.5166 96.2979C53.8948 96.2714 54.1787 96.1493 54.3681 95.9314C54.5572 95.7086 54.6385 95.4082 54.612 95.0299L54.3801 91.7133L55.3111 91.6482L55.5471 95.023C55.5905 95.6437 55.4335 96.1517 55.0762 96.547C54.7235 96.9371 54.2246 97.1547 53.5797 97.1998C52.9348 97.2449 52.4105 97.0988 52.0069 96.7616C51.6032 96.4244 51.3795 95.943 51.3358 95.3175ZM59.0816 96.8151C58.3058 96.8693 57.6678 96.6654 57.1677 96.2034C56.6722 95.7362 56.3952 95.0855 56.3369 94.2515C56.2793 93.4272 56.4704 92.7463 56.9103 92.2088C57.3503 91.6713 57.9606 91.3752 58.7413 91.3206C59.3716 91.2765 59.9144 91.4091 60.3697 91.7184C60.825 92.0276 61.1187 92.4651 61.2509 93.0308L60.269 93.0995C60.1551 92.7956 59.9662 92.5676 59.7022 92.4155C59.4427 92.2583 59.136 92.192 58.782 92.2168C58.2923 92.251 57.9136 92.4456 57.6461 92.8005C57.383 93.1502 57.2714 93.6088 57.311 94.1761C57.3504 94.7386 57.5274 95.1793 57.842 95.4984C58.1564 95.8127 58.556 95.9528 59.0409 95.9189C59.3997 95.8938 59.7015 95.785 59.9463 95.5925C60.1959 95.3996 60.354 95.1522 60.4206 94.8503L61.388 94.7827C61.3252 95.3474 61.0827 95.8175 60.6607 96.193C60.2383 96.5636 59.712 96.771 59.0816 96.8151ZM63.278 96.4339L62.347 96.499L61.9752 91.1822L62.9062 91.1171L63.0598 93.3136L65.4164 93.1489L65.2628 90.9523L66.1938 90.8872L66.5656 96.204L65.6346 96.2691L65.4769 94.0144L63.1203 94.1792L63.278 96.4339ZM69.2939 94.6465L68.4865 94.7029L68.4748 94.5356C68.4606 94.332 68.491 94.1398 68.5661 93.9592C68.6408 93.7736 68.721 93.6316 68.8067 93.533C68.8973 93.4341 69.0205 93.3159 69.1766 93.1783C69.3094 93.0569 69.4098 92.9597 69.4778 92.8868C69.5458 92.8138 69.6071 92.7145 69.6616 92.5889C69.721 92.4629 69.7462 92.3345 69.737 92.2035C69.7197 91.9562 69.6331 91.7625 69.4771 91.6224C69.3211 91.4822 69.1171 91.421 68.8649 91.4386C68.6079 91.4566 68.4031 91.5586 68.2504 91.7447C68.1026 91.9304 68.0386 92.1639 68.0582 92.4452L67.1345 92.5098C67.0982 91.9909 67.2383 91.5548 67.5546 91.2013C67.8755 90.8427 68.3002 90.6449 68.8288 90.6079C69.367 90.5703 69.8014 90.6861 70.1321 90.9553C70.4624 91.2197 70.6446 91.5943 70.6785 92.0792C70.6914 92.2635 70.6766 92.4351 70.6341 92.594C70.5961 92.7477 70.528 92.8889 70.4298 93.0175C70.3313 93.1414 70.2433 93.2425 70.166 93.321C70.0931 93.3944 69.9898 93.4844 69.856 93.5912C69.6486 93.7616 69.4983 93.911 69.4049 94.0394C69.3112 94.1629 69.2703 94.3095 69.2822 94.4792L69.2939 94.6465ZM69.0247 96.1271C68.8598 96.1386 68.7153 96.0927 68.5911 95.9893C68.4714 95.8807 68.4062 95.7489 68.3953 95.5937C68.3841 95.4337 68.4304 95.294 68.5341 95.1747C68.6424 95.0502 68.7789 94.9821 68.9438 94.9706C69.1038 94.9594 69.2461 95.008 69.3706 95.1162C69.4948 95.2196 69.5624 95.3513 69.5736 95.5113C69.5845 95.6665 69.5358 95.8063 69.4275 95.9308C69.319 96.0505 69.1847 96.1159 69.0247 96.1271Z" fill="#A1A1AA"/>
<path d="M29.3813 150.576L27.4239 145.37L28.3913 145.302L29.4313 148.051C29.5644 148.422 29.669 148.768 29.7451 149.089C29.7841 148.74 29.8468 148.382 29.9332 148.016L30.5733 145.15L31.5989 145.078L32.6171 147.828C32.7378 148.161 32.8472 148.506 32.9454 148.865C33.0038 148.447 33.0643 148.092 33.1267 147.8L33.7881 144.925L34.7337 144.859L33.4908 150.289L32.5889 150.352L31.1837 146.561L30.2978 150.512L29.3813 150.576ZM36.7358 150.062L35.8048 150.127L35.4331 144.81L36.3641 144.745L36.5177 146.941L38.8742 146.777L38.7206 144.58L39.6516 144.515L40.0234 149.832L39.0924 149.897L38.9348 147.642L36.5782 147.807L36.7358 150.062ZM41.6613 149.717L40.6939 149.785L42.2423 144.334L43.1951 144.267L45.4871 149.45L44.5052 149.518L43.9901 148.319L42.0045 148.458L41.6613 149.717ZM42.7096 145.894L42.2259 147.653L43.666 147.552L42.9351 145.879C42.8581 145.684 42.8123 145.551 42.7975 145.479C42.7775 145.612 42.7482 145.75 42.7096 145.894ZM44.9006 145.01L44.8406 144.152L48.8846 143.869L48.9446 144.727L47.3881 144.836L47.6999 149.295L46.7689 149.36L46.4571 144.901L44.9006 145.01ZM53.034 148.922L51.0766 143.716L52.044 143.648L53.084 146.397C53.2171 146.768 53.3217 147.114 53.3978 147.435C53.4367 147.086 53.4994 146.728 53.5859 146.362L54.226 143.496L55.2515 143.424L56.2698 146.174C56.3905 146.507 56.4999 146.852 56.5981 147.211C56.6565 146.793 56.717 146.438 56.7794 146.146L57.4408 143.271L58.3864 143.205L57.1435 148.635L56.2416 148.698L54.8363 144.908L53.9505 148.858L53.034 148.922ZM59.3404 148.481L58.3731 148.549L59.9214 143.097L60.8743 143.031L63.1662 148.213L62.1843 148.282L61.6692 147.083L59.6836 147.222L59.3404 148.481ZM60.3887 144.658L59.9051 146.417L61.3452 146.316L60.6142 144.642C60.5373 144.448 60.4914 144.315 60.4766 144.243C60.4567 144.376 60.4274 144.514 60.3887 144.658ZM63.2594 144.355C63.2269 143.89 63.375 143.499 63.7038 143.184C64.037 142.863 64.4825 142.684 65.0401 142.645C65.5784 142.607 66.0173 142.717 66.357 142.976C66.6964 143.23 66.8901 143.597 66.9382 144.076L66.0072 144.141C65.9816 143.914 65.8868 143.743 65.7228 143.627C65.5585 143.507 65.3454 143.456 65.0836 143.475C64.7975 143.495 64.5717 143.576 64.4063 143.719C64.2454 143.857 64.1728 144.038 64.1884 144.261C64.2138 144.625 64.4457 144.84 64.884 144.907L65.7332 145.03C66.6486 145.161 67.1335 145.614 67.1877 146.39C67.2223 146.885 67.073 147.292 66.7397 147.613C66.4064 147.933 65.9464 148.114 65.3597 148.155C64.7924 148.195 64.3267 148.086 63.9628 147.829C63.5988 147.572 63.3954 147.206 63.3525 146.731L64.2835 146.666C64.3039 146.889 64.4036 147.06 64.5824 147.179C64.761 147.293 65.0006 147.34 65.3012 147.319C65.6115 147.297 65.852 147.217 66.0226 147.078C66.198 146.939 66.2779 146.758 66.2623 146.535C66.2376 146.181 66.0161 145.975 65.5978 145.916L64.7409 145.786C63.8105 145.652 63.3167 145.175 63.2594 144.355ZM69.3204 143.303L69.2604 142.444L73.3044 142.162L73.3644 143.02L71.8079 143.129L72.1197 147.587L71.1887 147.652L70.8769 143.194L69.3204 143.303ZM75.3188 147.364L74.3879 147.429L74.0161 142.112L74.9471 142.047L75.1007 144.243L77.4572 144.079L77.3036 141.882L78.2346 141.817L78.6064 147.134L77.6754 147.199L77.5178 144.944L75.1612 145.109L75.3188 147.364ZM80.3453 141.669L80.7171 146.986L79.7861 147.051L79.4143 141.734L80.3453 141.669ZM81.3221 143.092C81.2896 142.627 81.4377 142.236 81.7665 141.921C82.0997 141.6 82.5452 141.42 83.1028 141.381C83.6411 141.344 84.08 141.454 84.4197 141.713C84.7591 141.967 84.9528 142.334 85.0009 142.813L84.0699 142.878C84.0443 142.651 83.9495 142.479 83.7855 142.364C83.6212 142.244 83.4081 142.193 83.1463 142.212C82.8602 142.232 82.6344 142.313 82.469 142.456C82.3081 142.594 82.2355 142.775 82.2511 142.998C82.2765 143.361 82.5084 143.577 82.9467 143.644L83.7959 143.767C84.7113 143.898 85.1962 144.351 85.2504 145.127C85.285 145.622 85.1357 146.029 84.8024 146.35C84.4691 146.67 84.0091 146.851 83.4224 146.892C82.8551 146.932 82.3894 146.823 82.0255 146.566C81.6615 146.309 81.4581 145.943 81.4152 145.468L82.3462 145.403C82.3666 145.626 82.4663 145.797 82.6451 145.916C82.8237 146.03 83.0633 146.077 83.3639 146.056C83.6742 146.034 83.9147 145.954 84.0853 145.815C84.2607 145.676 84.3406 145.495 84.325 145.272C84.3003 144.918 84.0788 144.712 83.6605 144.653L82.8036 144.523C81.8732 144.389 81.3794 143.911 81.3221 143.092ZM90.9177 144.087L88.9393 144.226L89.0914 146.401L88.1604 146.466L87.7886 141.149L91.0762 140.919L91.1362 141.777L88.7796 141.942L88.8808 143.389L90.8592 143.251L90.9177 144.087ZM96.094 141.248C96.6096 141.723 96.8958 142.366 96.9524 143.176C97.009 143.986 96.8128 144.664 96.3639 145.212C95.9194 145.755 95.3166 146.053 94.5553 146.106C93.794 146.159 93.158 145.948 92.6472 145.472C92.1361 144.991 91.8522 144.346 91.7956 143.536C91.7389 142.727 91.9304 142.051 92.37 141.508C92.8141 140.961 93.4168 140.66 94.1781 140.607C94.9394 140.554 95.578 140.767 96.094 141.248ZM95.9705 143.244C95.9308 142.677 95.7538 142.236 95.4395 141.922C95.13 141.608 94.7304 141.467 94.2406 141.502C93.7509 141.536 93.3723 141.73 93.1047 142.085C92.842 142.44 92.7305 142.901 92.7702 143.468C92.8099 144.036 92.9844 144.476 93.2939 144.791C93.6082 145.105 94.0103 145.245 94.5 145.211C94.9849 145.177 95.3611 144.983 95.6287 144.628C95.8959 144.268 96.0098 143.807 95.9705 143.244ZM98.936 145.712L98.005 145.777L97.6332 140.46L99.6625 140.319C100.269 140.276 100.749 140.389 101.104 140.656C101.459 140.924 101.655 141.319 101.691 141.843C101.742 142.566 101.456 143.08 100.835 143.387L101.998 145.498L100.98 145.569L99.9391 143.647L98.7972 143.727L98.936 145.712ZM98.6222 141.224L98.7397 142.905L99.838 142.828C100.134 142.807 100.359 142.716 100.513 142.554C100.668 142.392 100.735 142.178 100.717 141.911C100.698 141.649 100.602 141.451 100.427 141.318C100.252 141.184 100.016 141.127 99.7205 141.148L98.6222 141.224ZM104.426 143.961L103.619 144.018L103.607 143.851C103.593 143.647 103.623 143.455 103.698 143.274C103.773 143.089 103.853 142.947 103.939 142.848C104.03 142.749 104.153 142.631 104.309 142.493C104.442 142.372 104.542 142.275 104.61 142.202C104.678 142.129 104.739 142.029 104.794 141.904C104.853 141.778 104.879 141.649 104.869 141.519C104.852 141.271 104.765 141.078 104.61 140.937C104.454 140.797 104.249 140.736 103.997 140.754C103.74 140.772 103.536 140.874 103.383 141.06C103.235 141.245 103.171 141.479 103.191 141.76L102.267 141.825C102.231 141.306 102.371 140.87 102.687 140.516C103.008 140.158 103.433 139.96 103.961 139.923C104.499 139.885 104.934 140.001 105.265 140.27C105.595 140.535 105.777 140.909 105.811 141.394C105.824 141.578 105.809 141.75 105.766 141.909C105.729 142.063 105.66 142.204 105.562 142.333C105.464 142.456 105.376 142.558 105.298 142.636C105.226 142.709 105.122 142.799 104.988 142.906C104.781 143.077 104.631 143.226 104.537 143.354C104.444 143.478 104.403 143.624 104.415 143.794L104.426 143.961ZM104.157 145.442C103.992 145.454 103.848 145.408 103.724 145.304C103.604 145.196 103.539 145.064 103.528 144.909C103.517 144.749 103.563 144.609 103.667 144.49C103.775 144.365 103.911 144.297 104.076 144.286C104.236 144.274 104.378 144.323 104.503 144.431C104.627 144.535 104.695 144.666 104.706 144.826C104.717 144.981 104.668 145.121 104.56 145.246C104.451 145.365 104.317 145.431 104.157 145.442Z" fill="#A1A1AA"/>
<path d="M110.614 146.292L109.908 146.341C109.51 145.945 109.18 145.444 108.919 144.839C108.657 144.233 108.502 143.586 108.454 142.898C108.408 142.243 108.468 141.596 108.632 140.956C108.797 140.316 109.058 139.761 109.415 139.293L110.121 139.244C109.84 139.687 109.629 140.226 109.488 140.859C109.347 141.488 109.3 142.147 109.349 142.835C109.394 143.49 109.527 144.126 109.745 144.744C109.968 145.357 110.258 145.873 110.614 146.292ZM114.91 139.932C115.425 140.408 115.711 141.05 115.768 141.86C115.825 142.67 115.628 143.349 115.179 143.897C114.735 144.439 114.132 144.737 113.371 144.79C112.61 144.844 111.974 144.632 111.463 144.156C110.952 143.676 110.668 143.03 110.611 142.221C110.555 141.411 110.746 140.735 111.186 140.192C111.63 139.645 112.232 139.345 112.994 139.291C113.755 139.238 114.394 139.452 114.91 139.932ZM114.786 141.929C114.746 141.361 114.569 140.921 114.255 140.606C113.946 140.292 113.546 140.152 113.056 140.186C112.566 140.22 112.188 140.415 111.92 140.77C111.658 141.124 111.546 141.585 111.586 142.153C111.625 142.72 111.8 143.161 112.11 143.475C112.424 143.79 112.826 143.93 113.316 143.895C113.801 143.861 114.177 143.667 114.444 143.312C114.711 142.952 114.825 142.491 114.786 141.929ZM118.794 142.482L117.623 142.564L117.752 144.396L116.821 144.462L116.449 139.145L118.551 138.998C119.084 138.96 119.522 139.091 119.865 139.388C120.207 139.681 120.396 140.089 120.433 140.613C120.469 141.127 120.335 141.558 120.033 141.905C119.736 142.253 119.323 142.445 118.794 142.482ZM118.427 139.84L117.438 139.909L117.565 141.734L118.54 141.666C118.855 141.644 119.092 141.547 119.251 141.375C119.409 141.203 119.478 140.97 119.457 140.674C119.437 140.383 119.337 140.166 119.156 140.022C118.98 139.879 118.737 139.818 118.427 139.84ZM120.689 139.711L120.629 138.852L124.673 138.57L124.733 139.428L123.176 139.537L123.488 143.995L122.557 144.06L122.245 139.602L120.689 139.711ZM126.315 138.455L126.687 143.772L125.756 143.837L125.384 138.52L126.315 138.455ZM131.672 138.76C132.188 139.235 132.474 139.878 132.531 140.688C132.587 141.498 132.391 142.176 131.942 142.724C131.498 143.267 130.895 143.565 130.134 143.618C129.373 143.672 128.736 143.46 128.226 142.984C127.715 142.504 127.431 141.858 127.374 141.048C127.317 140.239 127.509 139.563 127.948 139.02C128.393 138.473 128.995 138.172 129.757 138.119C130.518 138.066 131.156 138.279 131.672 138.76ZM131.549 140.757C131.509 140.189 131.332 139.748 131.018 139.434C130.708 139.12 130.309 138.979 129.819 139.014C129.329 139.048 128.951 139.243 128.683 139.597C128.42 139.952 128.309 140.413 128.349 140.98C128.388 141.548 128.563 141.989 128.872 142.303C129.187 142.617 129.589 142.757 130.078 142.723C130.563 142.689 130.94 142.495 131.207 142.14C131.474 141.78 131.588 141.319 131.549 140.757ZM134.5 143.225L133.583 143.289L133.212 137.973L134.135 137.908L136.894 141.501L136.63 137.733L137.547 137.669L137.918 142.986L137.002 143.05L134.236 139.458L134.5 143.225ZM139.554 142.872L138.586 142.94L140.135 137.488L141.087 137.422L143.379 142.604L142.397 142.673L141.882 141.474L139.897 141.613L139.554 142.872ZM140.602 139.049L140.118 140.808L141.558 140.707L140.827 139.033C140.75 138.839 140.705 138.706 140.69 138.634C140.67 138.767 140.641 138.905 140.602 139.049ZM144.605 137.176L144.917 141.634L147.143 141.479L147.203 142.337L144.046 142.558L143.674 137.241L144.605 137.176ZM148.393 143.65L147.688 143.699C147.987 143.235 148.202 142.684 148.333 142.046C148.463 141.408 148.506 140.76 148.46 140.1C148.411 139.412 148.274 138.766 148.046 138.163C147.819 137.555 147.535 137.051 147.195 136.651L147.901 136.602C148.325 137.02 148.663 137.535 148.915 138.146C149.167 138.752 149.316 139.383 149.361 140.037C149.409 140.721 149.346 141.383 149.171 142.024C148.997 142.66 148.737 143.202 148.393 143.65Z" fill="#D4D4D8"/>
<path d="M34.132 202.103C33.3561 202.157 32.7182 201.953 32.2181 201.491C31.7225 201.024 31.4456 200.374 31.3873 199.54C31.3296 198.715 31.5208 198.034 31.9607 197.497C32.4006 196.959 33.0109 196.663 33.7916 196.609C34.422 196.565 34.9648 196.697 35.4201 197.006C35.8754 197.316 36.1691 197.753 36.3012 198.319L35.3193 198.388C35.2055 198.084 35.0166 197.856 34.7526 197.704C34.4931 197.546 34.1863 197.48 33.8324 197.505C33.3426 197.539 32.964 197.734 32.6964 198.089C32.4334 198.438 32.3217 198.897 32.3614 199.464C32.4007 200.027 32.5777 200.467 32.8924 200.786C33.2067 201.101 33.6063 201.241 34.0912 201.207C34.4501 201.182 34.7519 201.073 34.9966 200.881C35.2463 200.688 35.4044 200.44 35.471 200.138L36.4384 200.071C36.3755 200.635 36.1331 201.106 35.7111 201.481C35.2887 201.852 34.7623 202.059 34.132 202.103ZM37.6283 201.771L36.6609 201.839L38.2093 196.387L39.1621 196.321L41.4541 201.503L40.4722 201.572L39.9571 200.373L37.9715 200.512L37.6283 201.771ZM38.6766 197.948L38.1929 199.707L39.6331 199.606L38.9021 197.932C38.8251 197.738 38.7793 197.605 38.7645 197.533C38.7445 197.666 38.7152 197.804 38.6766 197.948ZM40.8676 197.064L40.8076 196.206L44.8516 195.923L44.9116 196.781L43.3551 196.89L43.6669 201.349L42.7359 201.414L42.4241 196.955L40.8676 197.064ZM49.2372 200.959L45.9351 201.19L45.5633 195.873L48.8654 195.642L48.9254 196.501L46.5543 196.666L46.6499 198.034L48.7737 197.885L48.8312 198.707L46.7074 198.856L46.806 200.267L49.1772 200.101L49.2372 200.959ZM52.2571 196.194C51.7383 196.231 51.3432 196.434 51.0718 196.804C50.805 197.168 50.6919 197.641 50.7326 198.223C50.7733 198.805 50.9551 199.246 51.2781 199.545C51.606 199.843 52.0221 199.975 52.5263 199.94C52.987 199.908 53.3399 199.763 53.5852 199.508C53.8349 199.246 53.9448 198.903 53.915 198.476L53.9135 198.454L52.3061 198.566L52.2486 197.745L54.7215 197.572L54.9306 200.561L54.1451 200.616L54.0441 200.009C53.9084 200.228 53.7019 200.411 53.4246 200.557C53.1474 200.703 52.8317 200.788 52.4778 200.813C51.7262 200.865 51.0978 200.658 50.5925 200.192C50.0921 199.725 49.8134 199.084 49.7564 198.27C49.6995 197.455 49.8954 196.774 50.3444 196.226C50.7982 195.678 51.4227 195.376 52.2179 195.32C52.8289 195.277 53.3568 195.406 53.8017 195.706C54.2512 196.001 54.5335 196.415 54.6487 196.948L53.6668 197.017C53.5633 196.722 53.385 196.505 53.1317 196.367C52.8832 196.229 52.5917 196.171 52.2571 196.194ZM59.7427 195.561C60.2584 196.037 60.5445 196.68 60.6011 197.489C60.6578 198.299 60.4616 198.978 60.0127 199.526C59.5682 200.069 58.9654 200.367 58.2041 200.42C57.4428 200.473 56.8068 200.262 56.296 199.786C55.7848 199.305 55.5009 198.66 55.4443 197.85C55.3877 197.04 55.5792 196.364 56.0188 195.822C56.4629 195.274 57.0656 194.974 57.8268 194.921C58.5881 194.867 59.2268 195.081 59.7427 195.561ZM59.6192 197.558C59.5796 196.991 59.4026 196.55 59.0882 196.236C58.7788 195.921 58.3791 195.781 57.8894 195.815C57.3997 195.849 57.021 196.044 56.7535 196.399C56.4908 196.754 56.3793 197.215 56.419 197.782C56.4586 198.349 56.6332 198.79 56.9427 199.105C57.257 199.419 57.659 199.559 58.1488 199.525C58.6337 199.491 59.0099 199.296 59.2774 198.941C59.5446 198.582 59.6586 198.121 59.6192 197.558ZM62.5848 200.026L61.6538 200.091L61.282 194.774L63.3113 194.632C63.9174 194.59 64.3979 194.702 64.7528 194.97C65.1077 195.237 65.3035 195.633 65.3401 196.157C65.3907 196.879 65.105 197.394 64.4833 197.7L65.6469 199.812L64.6286 199.883L63.5879 197.96L62.4459 198.04L62.5848 200.026ZM62.271 195.538L62.3885 197.218L63.4867 197.141C63.7825 197.121 64.0076 197.029 64.1619 196.868C64.3163 196.706 64.3842 196.492 64.3655 196.225C64.3472 195.963 64.2505 195.765 64.0755 195.631C63.9004 195.497 63.665 195.441 63.3693 195.461L62.271 195.538ZM67.5393 197.574L65.5174 194.478L66.5575 194.405L67.7402 196.267C67.7951 196.355 67.8673 196.482 67.9568 196.646C67.9696 196.621 67.9926 196.566 68.0256 196.481C68.0583 196.391 68.0892 196.31 68.1184 196.24L69.0232 194.233L70.0342 194.162L68.4703 197.509L68.6167 199.604L67.6858 199.669L67.5393 197.574Z" fill="#A1A1AA"/>
<rect x="24.7827" y="104.81" width="218.127" height="30.9873" rx="6.98734" transform="rotate(-4 24.7827 104.81)" fill="#FAFAFA" stroke="#497CED" stroke-width="0.607595"/>
<path d="M48.7475 119.327C48.6715 118.241 48.8594 117.35 49.3111 116.656C49.7693 115.961 50.4251 115.584 51.2785 115.525C52.1319 115.465 52.8306 115.747 53.3745 116.372C53.9185 116.997 54.2284 117.852 54.3043 118.938C54.3808 120.031 54.1929 120.921 53.7407 121.609C53.295 122.296 52.6422 122.67 51.7824 122.73C50.916 122.791 50.2111 122.512 49.6676 121.894C49.1306 121.275 48.8239 120.419 48.7475 119.327ZM49.436 119.279C49.4998 120.19 49.7347 120.901 50.1407 121.412C50.5463 121.917 51.0788 122.146 51.7383 122.1C52.3977 122.054 52.8932 121.753 53.2246 121.197C53.5556 120.634 53.6892 119.897 53.6255 118.986C53.5613 118.068 53.3264 117.356 52.9208 116.852C52.5152 116.348 51.9827 116.119 51.3233 116.165C50.6638 116.211 50.1684 116.512 49.8369 117.068C49.5055 117.624 49.3718 118.361 49.436 119.279Z" fill="#DADADD"/>
<rect x="28.3853" y="156.33" width="218.127" height="30.9873" rx="6.98734" transform="rotate(-4 28.3853 156.33)" fill="#FAFAFA" stroke="#F4F4F5" stroke-width="0.607595"/>
<path d="M61.037 168.563C60.9963 167.981 61.1771 167.501 61.5794 167.122C61.9812 166.736 62.5313 166.519 63.2295 166.47C63.8566 166.426 64.3757 166.556 64.7867 166.858C65.1976 167.161 65.4493 167.601 65.5417 168.18L64.8338 168.229C64.7674 167.838 64.5975 167.544 64.3239 167.349C64.0504 167.154 63.6971 167.071 63.2639 167.101C62.7725 167.136 62.3863 167.28 62.1052 167.533C61.8305 167.786 61.707 168.11 61.7346 168.504C61.7771 169.112 62.1667 169.481 62.9034 169.612L64.1166 169.819C65.2342 170.007 65.8263 170.577 65.8927 171.527C65.9348 172.128 65.7517 172.622 65.3434 173.008C64.9415 173.393 64.3818 173.611 63.6641 173.661C62.9918 173.708 62.4307 173.582 61.9809 173.282C61.5376 172.981 61.2735 172.548 61.1884 171.983L61.9061 171.932C61.9508 172.293 62.1295 172.573 62.4423 172.772C62.7551 172.971 63.1474 173.054 63.6194 173.021C64.1301 172.985 64.5261 172.841 64.8072 172.587C65.0948 172.333 65.2248 172.009 65.1972 171.615C65.1529 170.981 64.7596 170.606 64.0173 170.489L62.8235 170.28C61.6994 170.092 61.1039 169.52 61.037 168.563ZM70.1015 168.377L70.7706 168.331L71.0989 173.024L70.517 173.065L70.3741 172.276C70.2638 172.556 70.0626 172.791 69.7705 172.981C69.4848 173.17 69.1577 173.277 68.7892 173.303C68.2461 173.341 67.8139 173.199 67.4926 172.877C67.1712 172.555 66.9902 172.103 66.9495 171.521L66.7454 168.602L67.4242 168.555L67.6134 171.261C67.6839 172.269 68.133 172.744 68.9605 172.687C69.4131 172.655 69.7553 172.485 69.9871 172.176C70.2184 171.861 70.3147 171.426 70.2758 170.87L70.1015 168.377ZM72.1607 175.006L72.122 174.454L72.636 174.418C72.7653 174.409 72.8683 174.395 72.945 174.376C73.0221 174.365 73.1108 174.332 73.2111 174.28C73.3118 174.234 73.3944 174.16 73.4587 174.058C73.5299 173.962 73.5895 173.838 73.6373 173.685L73.8023 173.118L71.5536 168.276L72.2615 168.226L74.0606 172.213L75.2582 168.017L75.9467 167.969L74.1973 173.889C73.9935 174.599 73.5522 174.977 72.8734 175.025C72.6018 175.044 72.3643 175.038 72.1607 175.006ZM78.2054 172.644C77.714 172.679 77.3173 172.58 77.0152 172.347C76.7131 172.115 76.5473 171.789 76.5179 171.369C76.4881 170.942 76.6193 170.589 76.9116 170.308C77.2034 170.021 77.6224 169.836 78.1688 169.753L79.7117 169.518L79.7008 169.363C79.6443 168.555 79.2023 168.179 78.3747 168.237C77.9674 168.266 77.6535 168.375 77.4329 168.566C77.2189 168.757 77.1229 169.01 77.1451 169.327L76.5341 169.37C76.5011 168.898 76.6492 168.507 76.9784 168.199C77.3141 167.889 77.7729 167.714 78.3548 167.674C78.9237 167.634 79.3899 167.751 79.7534 168.024C80.1168 168.297 80.3193 168.732 80.3609 169.326L80.5732 172.362L80.0107 172.401L79.8658 171.583C79.7379 171.891 79.5279 172.139 79.2358 172.329C78.9432 172.512 78.5997 172.617 78.2054 172.644ZM78.3226 172.09C78.8074 172.056 79.178 171.875 79.4343 171.545C79.6907 171.215 79.8007 170.792 79.7646 170.274L79.7469 170.022L78.3676 170.226C77.545 170.355 77.1543 170.714 77.1954 171.302C77.2149 171.58 77.3235 171.787 77.5214 171.922C77.7258 172.057 77.9928 172.113 78.3226 172.09ZM83.076 171.855C83.0968 172.153 83.0119 172.425 82.8213 172.672C82.6372 172.919 82.3948 173.076 82.0941 173.142L82.069 172.783C82.2417 172.745 82.379 172.664 82.4807 172.54C82.5894 172.422 82.639 172.295 82.6295 172.16C82.5681 172.209 82.4856 172.238 82.3821 172.245C82.2399 172.255 82.1171 172.218 82.0138 172.134C81.9101 172.044 81.8525 171.918 81.8412 171.757C81.8295 171.589 81.8715 171.446 81.9672 171.329C82.0695 171.211 82.2046 171.146 82.3727 171.135C82.5537 171.122 82.7107 171.183 82.8434 171.316C82.9822 171.443 83.0598 171.623 83.076 171.855ZM89.4033 171.744L87.2892 171.892L86.8036 164.949L88.8984 164.802C89.9457 164.729 90.8118 164.99 91.4966 165.585C92.181 166.174 92.5596 166.989 92.6324 168.03C92.7051 169.071 92.4439 169.933 91.8486 170.618C91.2593 171.296 90.4442 171.672 89.4033 171.744ZM88.914 165.444L87.5466 165.54L87.9427 171.203L89.3295 171.106C90.1764 171.047 90.8342 170.744 91.3027 170.198C91.7713 169.652 91.9753 168.946 91.9147 168.08C91.8541 167.214 91.5538 166.543 91.0138 166.067C90.4738 165.592 89.7739 165.384 88.914 165.444ZM96.1122 166.5L96.1542 167.101L95.7857 167.127C95.3525 167.157 95.0161 167.317 94.7765 167.607C94.5429 167.89 94.4417 168.254 94.4729 168.7L94.6601 171.377L93.9909 171.424L93.6627 166.73L94.2931 166.686L94.3924 167.41C94.4648 167.145 94.6155 166.93 94.8443 166.764C95.0731 166.599 95.3491 166.505 95.6724 166.482C95.8276 166.471 95.9741 166.477 96.1122 166.5ZM97.5843 165.013C97.4941 165.117 97.3811 165.174 97.2453 165.183C97.1096 165.193 96.9898 165.152 96.886 165.062C96.7823 164.972 96.7256 164.859 96.7162 164.723C96.7067 164.587 96.747 164.468 96.8372 164.364C96.927 164.254 97.0397 164.194 97.1755 164.184C97.3113 164.175 97.4312 164.218 97.5355 164.315C97.6457 164.405 97.7055 164.518 97.715 164.653C97.7245 164.789 97.6809 164.909 97.5843 165.013ZM97.334 171.19L97.0058 166.496L97.6749 166.449L98.0032 171.143L97.334 171.19ZM100.068 170.999L99.3986 171.045L99.0704 166.352L99.6522 166.311L99.8062 167.119C99.9406 166.811 100.144 166.566 100.417 166.384C100.697 166.196 101.008 166.089 101.35 166.066C102.566 165.981 103.219 166.588 103.31 167.887L103.51 170.758L102.841 170.805L102.651 168.08C102.582 167.09 102.124 166.625 101.277 166.685C100.805 166.718 100.447 166.902 100.204 167.237C99.9614 167.572 99.8587 168.008 99.8962 168.545L100.068 170.999ZM105.542 170.616L104.873 170.663L104.379 163.593L105.048 163.546L105.384 168.346L107.542 165.759L108.385 165.7L106.712 167.698L108.723 170.393L107.947 170.448L106.29 168.205L105.444 169.21L105.542 170.616ZM109.099 169.042L109.739 168.997C109.758 169.268 109.867 169.479 110.066 169.627C110.271 169.769 110.538 169.828 110.868 169.805C111.23 169.78 111.506 169.689 111.696 169.533C111.893 169.369 111.982 169.162 111.965 168.91C111.951 168.709 111.881 168.555 111.757 168.447C111.639 168.338 111.442 168.261 111.166 168.215L110.347 168.068C109.524 167.924 109.091 167.529 109.045 166.882C109.017 166.475 109.149 166.137 109.442 165.87C109.736 165.603 110.138 165.451 110.648 165.415C111.146 165.381 111.553 165.482 111.868 165.72C112.183 165.951 112.362 166.283 112.406 166.715L111.756 166.761C111.724 166.49 111.612 166.287 111.421 166.151C111.236 166.008 110.984 165.947 110.668 165.969C110.338 165.993 110.087 166.078 109.916 166.227C109.751 166.375 109.677 166.575 109.695 166.827C109.72 167.195 109.993 167.423 110.512 167.51L111.331 167.658C111.746 167.733 112.054 167.864 112.255 168.051C112.463 168.238 112.579 168.5 112.603 168.836C112.632 169.256 112.491 169.607 112.179 169.889C111.874 170.163 111.453 170.319 110.916 170.357C110.386 170.394 109.957 170.294 109.628 170.057C109.306 169.82 109.13 169.481 109.099 169.042ZM114.878 169.632C114.899 169.929 114.814 170.201 114.623 170.449C114.439 170.695 114.197 170.852 113.896 170.918L113.871 170.56C114.044 170.522 114.181 170.44 114.283 170.316C114.392 170.198 114.441 170.071 114.432 169.936C114.37 169.985 114.288 170.014 114.184 170.021C114.042 170.031 113.919 169.994 113.816 169.911C113.712 169.82 113.655 169.694 113.643 169.533C113.632 169.365 113.674 169.222 113.769 169.105C113.872 168.987 114.007 168.923 114.175 168.911C114.356 168.898 114.513 168.959 114.646 169.092C114.784 169.219 114.862 169.399 114.878 169.632ZM119.79 169.62L119.091 169.668L118.606 162.725L121.195 162.544C121.893 162.495 122.455 162.637 122.882 162.971C123.314 163.299 123.552 163.772 123.595 164.393C123.63 164.891 123.533 165.317 123.304 165.671C123.082 166.024 122.752 166.278 122.315 166.432L124.008 169.325L123.232 169.379L121.615 166.598L119.588 166.739L119.79 169.62ZM119.348 163.306L119.544 166.109L121.455 165.975C121.933 165.942 122.296 165.793 122.544 165.529C122.798 165.258 122.909 164.902 122.879 164.463C122.848 164.017 122.685 163.684 122.39 163.464C122.101 163.237 121.718 163.141 121.239 163.174L119.348 163.306ZM125.399 163.068C125.309 163.172 125.196 163.229 125.06 163.238C124.925 163.248 124.805 163.207 124.701 163.117C124.597 163.027 124.541 162.914 124.531 162.778C124.522 162.642 124.562 162.523 124.652 162.419C124.742 162.309 124.855 162.249 124.99 162.239C125.126 162.23 125.246 162.273 125.35 162.37C125.461 162.46 125.521 162.572 125.53 162.708C125.54 162.844 125.496 162.964 125.399 163.068ZM125.149 169.245L124.821 164.551L125.49 164.504L125.818 169.198L125.149 169.245ZM127.456 168.528C127.017 168.104 126.772 167.523 126.72 166.786C126.669 166.049 126.834 165.437 127.216 164.949C127.604 164.46 128.137 164.192 128.816 164.145C129.359 164.107 129.825 164.221 130.214 164.486C130.609 164.75 130.869 165.122 130.994 165.601L130.324 165.647C130.218 165.336 130.033 165.103 129.769 164.946C129.504 164.782 129.203 164.712 128.867 164.736C128.389 164.769 128.01 164.968 127.73 165.332C127.456 165.695 127.339 166.162 127.379 166.73C127.418 167.286 127.592 167.726 127.9 168.049C128.215 168.371 128.608 168.516 129.08 168.483C129.43 168.458 129.727 168.35 129.974 168.157C130.226 167.957 130.387 167.703 130.456 167.392L131.135 167.345C131.059 167.831 130.837 168.233 130.469 168.551C130.102 168.869 129.653 169.047 129.122 169.084C128.457 169.13 127.901 168.945 127.456 168.528ZM134.229 168.727C133.543 168.775 132.972 168.587 132.513 168.165C132.061 167.741 131.81 167.161 131.758 166.424C131.707 165.694 131.872 165.084 132.254 164.596C132.642 164.108 133.169 163.841 133.835 163.794C134.469 163.75 134.997 163.921 135.42 164.307C135.843 164.687 136.078 165.209 136.125 165.875L136.148 166.205L132.414 166.466C132.48 167.04 132.666 167.475 132.973 167.772C133.286 168.062 133.694 168.189 134.198 168.154C134.974 168.1 135.431 167.749 135.567 167.103L136.207 167.058C136.113 167.565 135.897 167.96 135.559 168.244C135.222 168.527 134.778 168.688 134.229 168.727ZM134.961 164.709C134.677 164.45 134.315 164.335 133.875 164.366C133.435 164.397 133.086 164.558 132.827 164.849C132.568 165.133 132.425 165.51 132.399 165.98L135.445 165.767C135.413 165.314 135.252 164.962 134.961 164.709ZM138.076 168.273C137.968 168.397 137.83 168.465 137.662 168.477C137.493 168.489 137.344 168.441 137.213 168.333C137.088 168.225 137.021 168.09 137.009 167.928C136.997 167.76 137.049 167.614 137.164 167.489C137.278 167.357 137.416 167.286 137.577 167.274C137.739 167.263 137.886 167.315 138.017 167.429C138.148 167.537 138.219 167.675 138.231 167.843C138.242 168.004 138.191 168.148 138.076 168.273ZM140.614 168.095C140.506 168.22 140.368 168.288 140.2 168.3C140.032 168.311 139.882 168.263 139.751 168.155C139.627 168.047 139.559 167.912 139.547 167.751C139.536 167.583 139.587 167.436 139.702 167.311C139.816 167.18 139.954 167.108 140.116 167.097C140.277 167.086 140.424 167.137 140.555 167.251C140.686 167.359 140.757 167.497 140.769 167.665C140.781 167.827 140.729 167.97 140.614 168.095ZM143.152 167.918C143.044 168.042 142.906 168.11 142.738 168.122C142.57 168.134 142.42 168.086 142.289 167.978C142.165 167.87 142.097 167.735 142.085 167.573C142.074 167.405 142.125 167.259 142.24 167.134C142.354 167.002 142.492 166.931 142.654 166.919C142.815 166.908 142.962 166.96 143.093 167.074C143.224 167.182 143.296 167.32 143.307 167.488C143.319 167.649 143.267 167.793 143.152 167.918Z" fill="#DADADD"/>
<path d="M37.8304 123.579L37.6561 121.087L36.8997 121.14L36.8563 120.519L37.6127 120.466L37.5571 119.671L36.8007 119.724L36.7573 119.103L37.5137 119.05L37.3462 116.655L38.3548 116.584L39.4436 118.915L40.5879 118.835L40.4204 116.44L41.1866 116.386L41.3541 118.782L42.1105 118.729L42.1539 119.349L41.3975 119.402L41.4531 120.197L42.2095 120.145L42.2529 120.765L41.4965 120.818L41.6708 123.31L40.6525 123.382L39.5569 120.954L38.4126 121.034L38.5869 123.526L37.8304 123.579ZM38.3692 120.413L39.2808 120.349L38.9342 119.574L38.2942 119.619L38.3692 120.413ZM40.809 121.997L40.8478 121.994L40.74 120.871L40.3327 120.899L40.809 121.997ZM38.2508 118.999L38.6581 118.97L38.1667 117.796L38.1279 117.799L38.2508 118.999ZM40.0566 120.295L40.7063 120.25L40.6313 119.456L39.71 119.52L40.0566 120.295Z" fill="#DADADD"/>
<path d="M43.0369 175.104C42.3515 175.151 41.7797 174.964 41.3214 174.541C40.8695 174.118 40.6178 173.538 40.5662 172.801C40.5151 172.07 40.6804 171.461 41.0621 170.973C41.4503 170.485 41.9773 170.217 42.6432 170.171C43.2768 170.126 43.8052 170.297 44.2286 170.684C44.6514 171.063 44.8861 171.586 44.9327 172.252L44.9558 172.582L41.2221 172.843C41.2882 173.416 41.4745 173.852 41.7812 174.149C42.0938 174.439 42.5023 174.566 43.0065 174.531C43.7824 174.476 44.2386 174.126 44.3754 173.48L45.0154 173.435C44.9209 173.942 44.7049 174.337 44.3674 174.621C44.0299 174.904 43.5864 175.065 43.0369 175.104ZM43.7694 171.086C43.4849 170.827 43.1228 170.712 42.6832 170.743C42.2436 170.774 41.8942 170.934 41.6352 171.225C41.3758 171.51 41.2332 171.887 41.2076 172.357L44.2527 172.144C44.221 171.691 44.06 171.339 43.7694 171.086ZM46.8842 174.649C46.7759 174.774 46.6378 174.842 46.4697 174.854C46.3016 174.865 46.152 174.817 46.0211 174.71C45.8966 174.601 45.8286 174.467 45.8173 174.305C45.8056 174.137 45.8571 173.99 45.9718 173.865C46.086 173.734 46.224 173.663 46.3856 173.651C46.5472 173.64 46.6937 173.691 46.8252 173.806C46.9561 173.913 47.0275 174.051 47.0393 174.219C47.0506 174.381 46.9989 174.524 46.8842 174.649ZM48.4436 173.79C48.0241 173.364 47.7912 172.822 47.7451 172.163C47.699 171.503 47.8608 170.936 48.2304 170.462C48.5996 169.982 49.1172 169.718 49.7831 169.671C50.63 169.612 51.2335 169.927 51.5936 170.617L51.5957 169.671L52.1776 169.631L52.4956 174.179C52.5444 174.877 52.3767 175.451 51.9923 175.9C51.6079 176.349 51.073 176.598 50.3877 176.646C49.7864 176.688 49.2741 176.561 48.8506 176.266C48.4341 175.977 48.1607 175.551 48.0304 174.988L48.6996 174.941C48.7973 175.318 48.9925 175.6 49.2849 175.787C49.5779 175.981 49.9345 176.063 50.3547 176.034C50.8331 176.001 51.2074 175.825 51.4775 175.507C51.7541 175.189 51.8753 174.784 51.8409 174.293L51.7629 173.178C51.6243 173.519 51.4064 173.794 51.1092 174.003C50.8116 174.206 50.4623 174.321 50.0615 174.349C49.4085 174.395 48.8692 174.208 48.4436 173.79ZM48.4136 172.106C48.4484 172.604 48.6198 173.011 48.9278 173.327C49.2418 173.637 49.638 173.775 50.1164 173.741C50.6142 173.706 50.9973 173.517 51.2656 173.174C51.5339 172.83 51.65 172.4 51.6139 171.882C51.5781 171.372 51.4068 170.964 51.0997 170.661C50.7926 170.358 50.3869 170.224 49.8826 170.259C49.3913 170.293 49.0151 170.489 48.7542 170.845C48.4927 171.194 48.3792 171.615 48.4136 172.106ZM54.8963 174.089C54.788 174.214 54.6498 174.282 54.4818 174.293C54.3137 174.305 54.1641 174.257 54.0331 174.149C53.9086 174.041 53.8407 173.906 53.8294 173.745C53.8177 173.577 53.8691 173.43 53.9838 173.305C54.0981 173.174 54.236 173.102 54.3977 173.091C54.5593 173.08 54.7058 173.131 54.8373 173.245C54.9682 173.353 55.0396 173.491 55.0514 173.659C55.0627 173.821 55.011 173.964 54.8963 174.089Z" fill="#DADADD"/>
<rect x="183.593" y="58.9879" width="36.0506" height="14.2532" rx="7.12658" transform="rotate(-4 183.593 58.9879)" fill="#EFF6FF"/>
<rect x="183.593" y="58.9879" width="36.0506" height="14.2532" rx="7.12658" transform="rotate(-4 183.593 58.9879)" stroke="#DBEAFE" stroke-width="0.607595"/>
<g clip-path="url(#clip1_37_6149)">
<path d="M193.387 62.6045C193.515 62.5955 193.643 62.6213 193.757 62.679C193.871 62.7367 193.967 62.8242 194.036 62.9322L194.23 63.2384C194.298 63.3464 194.394 63.4339 194.509 63.4916C194.623 63.5493 194.75 63.575 194.878 63.5661L195.584 63.5167C195.772 63.5036 195.957 63.5656 196.098 63.6889C196.24 63.8122 196.327 63.9869 196.341 64.1744L196.563 67.3565C196.576 67.5441 196.514 67.7291 196.391 67.871C196.268 68.0129 196.093 68.1 195.905 68.1131L190.248 68.5087C190.061 68.5218 189.876 68.4599 189.734 68.3365C189.592 68.2132 189.505 68.0386 189.492 67.851L189.269 64.6689C189.256 64.4814 189.318 64.2963 189.441 64.1544C189.565 64.0125 189.739 63.9254 189.927 63.9123L190.633 63.8629C190.76 63.854 190.883 63.8109 190.988 63.738C191.093 63.6651 191.176 63.5652 191.229 63.4489L191.38 63.1172C191.432 63.0009 191.516 62.901 191.621 62.8281C191.725 62.7553 191.848 62.7121 191.976 62.7032L193.387 62.6045Z" stroke="#2563EB" stroke-width="0.708861" stroke-linecap="round" stroke-linejoin="round"/>
<path d="M192.978 66.8966C193.564 66.8557 194.006 66.3476 193.965 65.7617C193.924 65.1759 193.416 64.7343 192.83 64.7752C192.244 64.8162 191.802 65.3243 191.843 65.9101C191.884 66.4959 192.392 66.9376 192.978 66.8966Z" stroke="#2563EB" stroke-width="0.708861" stroke-linecap="round" stroke-linejoin="round"/>
</g>
<path d="M199.806 64.1319C199.775 63.6955 199.911 63.3352 200.213 63.0509C200.514 62.7619 200.927 62.599 201.45 62.5624C201.921 62.5295 202.31 62.6265 202.618 62.8535C202.926 63.0805 203.115 63.4108 203.185 63.8445L202.654 63.8816C202.604 63.5878 202.476 63.3677 202.271 63.2213C202.066 63.0748 201.801 63.013 201.476 63.0357C201.108 63.0615 200.818 63.1694 200.607 63.3596C200.401 63.5494 200.308 63.7922 200.329 64.088C200.361 64.5438 200.653 64.8206 201.206 64.9184L202.116 65.074C202.954 65.2152 203.398 65.6422 203.448 66.3549C203.479 66.8059 203.342 67.1761 203.036 67.4655C202.734 67.7546 202.315 67.9179 201.776 67.9555C201.272 67.9908 200.851 67.896 200.514 67.6711C200.181 67.4458 199.983 67.121 199.92 66.6967L200.458 66.659C200.491 66.9296 200.625 67.1395 200.86 67.2887C201.095 67.438 201.389 67.5003 201.743 67.4755C202.126 67.4487 202.423 67.3402 202.634 67.1501C202.849 66.9596 202.947 66.7164 202.926 66.4207C202.893 65.9455 202.598 65.664 202.041 65.5762L201.146 65.4196C200.303 65.2787 199.856 64.8495 199.806 64.1319ZM204.56 67.2566C204.23 66.9385 204.046 66.5031 204.008 65.9503C203.969 65.3976 204.093 64.9382 204.379 64.5722C204.67 64.2059 205.07 64.005 205.579 63.9693C205.987 63.9409 206.336 64.0261 206.628 64.2249C206.924 64.4235 207.119 64.7022 207.213 65.0611L206.711 65.0962C206.631 64.863 206.492 64.6876 206.294 64.5699C206.095 64.4473 205.87 64.3949 205.618 64.4125C205.259 64.4376 204.975 64.5866 204.765 64.8595C204.56 65.1321 204.472 65.4818 204.502 65.9085C204.531 66.3255 204.661 66.655 204.893 66.8971C205.129 67.1388 205.424 67.2473 205.778 67.2226C206.04 67.2043 206.263 67.1229 206.448 66.9784C206.637 66.8287 206.758 66.6376 206.81 66.4049L207.319 66.3693C207.261 66.7339 207.095 67.0355 206.819 67.274C206.544 67.5126 206.207 67.6457 205.809 67.6735C205.31 67.7085 204.893 67.5695 204.56 67.2566ZM209.173 67.4383C208.805 67.4641 208.507 67.3898 208.281 67.2157C208.054 67.0415 207.93 66.7968 207.908 66.4816C207.886 66.1616 207.984 65.8964 208.203 65.6862C208.422 65.4711 208.736 65.3322 209.146 65.2694L210.303 65.0935L210.295 64.9771C210.253 64.371 209.921 64.0897 209.3 64.1331C208.995 64.1544 208.76 64.2367 208.594 64.3798C208.434 64.5226 208.362 64.7128 208.378 64.9504L207.92 64.9824C207.895 64.6285 208.006 64.3356 208.253 64.104C208.505 63.872 208.849 63.7407 209.286 63.7102C209.712 63.6804 210.062 63.768 210.334 63.9731C210.607 64.1781 210.759 64.5037 210.79 64.9498L210.949 67.2264L210.527 67.2559L210.419 66.6422C210.323 66.8731 210.165 67.0595 209.946 67.2015C209.727 67.3387 209.469 67.4176 209.173 67.4383ZM209.261 67.0228C209.625 66.9974 209.903 66.861 210.095 66.6137C210.287 66.3664 210.37 66.0488 210.343 65.6608L210.33 65.4717L209.295 65.6245C208.678 65.7212 208.385 65.9902 208.416 66.4315C208.431 66.64 208.512 66.7951 208.66 66.8968C208.814 66.9981 209.014 67.0401 209.261 67.0228ZM212.458 67.1209L211.956 67.156L211.71 63.6357L212.147 63.6051L212.262 64.211C212.363 63.9798 212.516 63.7962 212.721 63.66C212.93 63.5187 213.163 63.439 213.42 63.4211C214.332 63.3573 214.822 63.8128 214.89 64.7874L215.04 66.9403L214.538 66.9754L214.396 64.9316C214.344 64.1897 214 63.841 213.365 63.8854C213.011 63.9102 212.743 64.0483 212.561 64.2998C212.378 64.5513 212.301 64.8783 212.33 65.2807L212.458 67.1209Z" fill="#2563EB"/>
<g clip-path="url(#clip2_37_6149)">
<rect x="31.9879" y="207.85" width="30.1139" height="14.2532" rx="7.12658" transform="rotate(-4 31.9879 207.85)" fill="#F0FDF4"/>
<rect x="31.9879" y="207.85" width="30.1139" height="14.2532" rx="7.12658" transform="rotate(-4 31.9879 207.85)" stroke="#BBF7D0" stroke-width="0.607595"/>
<path d="M39.4585 217.479L37.8729 217.59L37.5087 212.382L39.0798 212.272C39.8653 212.217 40.5149 212.413 41.0285 212.859C41.5418 213.301 41.8257 213.912 41.8803 214.693C41.9349 215.474 41.7389 216.121 41.2925 216.634C40.8505 217.143 40.2392 217.424 39.4585 217.479ZM39.0915 212.754L38.066 212.825L38.363 217.073L39.4031 217C40.0383 216.956 40.5316 216.729 40.8831 216.319C41.2345 215.91 41.3875 215.38 41.3421 214.73C41.2966 214.081 41.0714 213.578 40.6664 213.221C40.2614 212.864 39.7364 212.709 39.0915 212.754ZM44.4902 213.546L44.5217 213.996L44.2453 214.016C43.9204 214.039 43.6681 214.159 43.4884 214.376C43.3132 214.588 43.2373 214.861 43.2607 215.196L43.4011 217.203L42.8992 217.238L42.653 213.718L43.1258 213.685L43.2003 214.228C43.2546 214.029 43.3676 213.868 43.5392 213.744C43.7108 213.62 43.9179 213.549 44.1603 213.532C44.2767 213.524 44.3866 213.528 44.4902 213.546ZM45.5942 212.43C45.5266 212.508 45.4418 212.551 45.34 212.558C45.2382 212.565 45.1484 212.535 45.0705 212.467C44.9927 212.399 44.9503 212.315 44.9431 212.213C44.936 212.111 44.9663 212.021 45.0339 211.943C45.1012 211.861 45.1858 211.816 45.2876 211.809C45.3895 211.802 45.4795 211.834 45.5576 211.907C45.6403 211.974 45.6852 212.059 45.6923 212.16C45.6994 212.262 45.6667 212.352 45.5942 212.43ZM45.4065 217.063L45.1604 213.543L45.6622 213.507L45.9084 217.028L45.4065 217.063ZM47.4568 216.919L46.955 216.955L46.7088 213.434L47.1452 213.404L47.2607 214.01C47.3614 213.778 47.5143 213.595 47.7191 213.459C47.9285 213.317 48.1617 213.238 48.4187 213.22C49.3303 213.156 49.8202 213.611 49.8883 214.586L50.0389 216.739L49.537 216.774L49.3941 214.73C49.3422 213.988 48.9987 213.64 48.3635 213.684C48.0095 213.709 47.7414 213.847 47.5592 214.098C47.377 214.35 47.3 214.677 47.3282 215.079L47.4568 216.919ZM51.5628 216.632L51.061 216.667L50.6902 211.365L51.1921 211.33L51.4438 214.93L53.0623 212.99L53.6951 212.946L52.4404 214.444L53.9485 216.466L53.3666 216.506L52.1234 214.824L51.4891 215.578L51.5628 216.632ZM54.2303 215.452L54.7104 215.418C54.7246 215.622 54.8063 215.779 54.9554 215.891C55.109 215.997 55.3094 216.041 55.5567 216.024C55.8283 216.005 56.0355 215.937 56.1783 215.82C56.3257 215.698 56.3927 215.542 56.3795 215.353C56.369 215.202 56.3171 215.087 56.2237 215.005C56.1351 214.924 55.9874 214.866 55.7803 214.832L55.1659 214.721C54.5493 214.613 54.224 214.317 54.1901 213.832C54.1688 213.527 54.268 213.274 54.4879 213.073C54.7078 212.872 55.0092 212.759 55.3923 212.732C55.7657 212.706 56.0706 212.782 56.3073 212.96C56.5435 213.134 56.6779 213.383 56.7103 213.707L56.223 213.741C56.199 213.538 56.1153 213.386 55.9717 213.284C55.8327 213.176 55.6443 213.131 55.4067 213.148C55.1594 213.165 54.9715 213.229 54.8428 213.341C54.719 213.452 54.6637 213.602 54.6769 213.791C54.6963 214.067 54.9007 214.238 55.2902 214.303L55.9046 214.414C56.2155 214.47 56.4465 214.568 56.5976 214.709C56.7536 214.849 56.8404 215.045 56.858 215.297C56.8801 215.612 56.7742 215.876 56.5405 216.087C56.3113 216.293 55.9954 216.41 55.593 216.438C55.1954 216.466 54.8734 216.391 54.6271 216.213C54.3856 216.035 54.2534 215.782 54.2303 215.452Z" fill="#208646"/>
<rect x="65.6652" y="205.495" width="26.1139" height="14.2532" rx="7.12658" transform="rotate(-4 65.6652 205.495)" fill="#F0FDF4"/>
<rect x="65.6652" y="205.495" width="26.1139" height="14.2532" rx="7.12658" transform="rotate(-4 65.6652 205.495)" stroke="#BBF7D0" stroke-width="0.607595"/>
<path d="M74.0448 212.758L71.9137 212.907L72.0739 215.198L71.5502 215.235L71.1861 210.027L74.2554 209.812L74.289 210.292L71.7433 210.47L71.8807 212.434L74.0118 212.285L74.0448 212.758ZM74.743 213.243C74.7053 212.704 74.8416 212.249 75.1518 211.877C75.4668 211.504 75.8837 211.299 76.4025 211.263C76.9214 211.227 77.3603 211.371 77.7193 211.697C78.0831 212.022 78.2838 212.454 78.3215 212.992C78.3588 213.526 78.2199 213.979 77.9049 214.352C77.5947 214.724 77.1802 214.929 76.6614 214.965C76.1426 215.001 75.7012 214.857 75.3374 214.531C74.9784 214.206 74.7803 213.776 74.743 213.243ZM75.2516 213.2C75.2808 213.617 75.4233 213.948 75.6792 214.193C75.9348 214.434 76.2517 214.541 76.6299 214.514C77.0032 214.488 77.2996 214.336 77.5189 214.057C77.743 213.778 77.8406 213.433 77.8118 213.021C77.7833 212.613 77.6387 212.287 77.378 212.042C77.1221 211.797 76.8074 211.688 76.4341 211.714C76.0558 211.74 75.7571 211.893 75.5378 212.171C75.3185 212.45 75.2231 212.792 75.2516 213.2ZM78.8769 212.954C78.8392 212.415 78.9755 211.96 79.2856 211.587C79.6007 211.215 80.0176 211.01 80.5364 210.974C81.0553 210.938 81.4942 211.082 81.8532 211.408C82.217 211.733 82.4177 212.165 82.4554 212.703C82.4927 213.237 82.3538 213.69 82.0388 214.063C81.7286 214.435 81.3141 214.64 80.7953 214.676C80.2765 214.712 79.8351 214.568 79.4713 214.242C79.1123 213.917 78.9142 213.487 78.8769 212.954ZM79.3855 212.911C79.4146 213.328 79.5572 213.659 79.8131 213.904C80.0687 214.144 80.3855 214.251 80.7638 214.225C81.1371 214.199 81.4335 214.047 81.6527 213.768C81.8769 213.489 81.9745 213.144 81.9457 212.732C81.9172 212.324 81.7726 211.998 81.5119 211.753C81.256 211.508 80.9413 211.399 80.568 211.425C80.1897 211.451 79.891 211.604 79.6717 211.882C79.4524 212.161 79.357 212.503 79.3855 212.911ZM84.7692 214.398C84.2649 214.433 83.8552 214.289 83.5402 213.965C83.2252 213.641 83.0489 213.21 83.0113 212.672C82.9729 212.124 83.0896 211.667 83.3614 211.302C83.6327 210.933 84.023 210.73 84.5321 210.694C85.1479 210.651 85.5973 210.876 85.8802 211.368L85.7088 208.916L86.2106 208.881L86.5814 214.184L86.145 214.214L86.0438 213.498C85.9412 213.773 85.7783 213.986 85.555 214.138C85.3318 214.29 85.0698 214.377 84.7692 214.398ZM84.8244 213.934C85.2026 213.907 85.4919 213.758 85.6921 213.486C85.8923 213.213 85.9779 212.869 85.9487 212.452C85.9199 212.04 85.7874 211.713 85.5512 211.471C85.3147 211.224 85.0073 211.114 84.6291 211.141C84.2557 211.167 83.9691 211.318 83.7692 211.596C83.5738 211.867 83.4906 212.21 83.5194 212.622C83.5485 213.039 83.6788 213.368 83.9101 213.61C84.1463 213.852 84.451 213.96 84.8244 213.934Z" fill="#208646"/>
<rect x="95.3522" y="203.419" width="37.1139" height="14.2532" rx="7.12658" transform="rotate(-4 95.3522 203.419)" fill="#F0FDF4"/>
<rect x="95.3522" y="203.419" width="37.1139" height="14.2532" rx="7.12658" transform="rotate(-4 95.3522 203.419)" stroke="#BBF7D0" stroke-width="0.607595"/>
<path d="M103.367 213.09C102.639 213.141 102.033 212.935 101.547 212.472C101.062 212.009 100.791 211.377 100.735 210.577C100.679 209.777 100.862 209.114 101.283 208.588C101.704 208.056 102.283 207.765 103.02 207.713C103.582 207.674 104.076 207.798 104.5 208.085C104.925 208.367 105.208 208.761 105.351 209.268L104.79 209.307C104.658 208.941 104.434 208.662 104.118 208.47C103.802 208.272 103.44 208.188 103.033 208.217C102.461 208.257 102.014 208.49 101.693 208.917C101.372 209.339 101.235 209.88 101.281 210.539C101.326 211.194 101.538 211.71 101.915 212.088C102.292 212.461 102.767 212.628 103.339 212.588C103.751 212.559 104.103 212.432 104.394 212.207C104.685 211.977 104.874 211.684 104.961 211.327L105.521 211.288C105.434 211.786 105.193 212.202 104.797 212.537C104.401 212.867 103.924 213.051 103.367 213.09ZM106.915 212.762L106.413 212.797L106.042 207.495L106.544 207.459L106.915 212.762ZM107.612 210.944C107.574 210.406 107.711 209.951 108.021 209.578C108.336 209.205 108.753 209.001 109.272 208.964C109.79 208.928 110.229 209.073 110.588 209.399C110.952 209.724 111.153 210.156 111.191 210.694C111.228 211.227 111.089 211.681 110.774 212.053C110.464 212.426 110.049 212.63 109.531 212.667C109.012 212.703 108.57 212.558 108.207 212.233C107.848 211.907 107.649 211.478 107.612 210.944ZM108.121 210.901C108.15 211.318 108.292 211.65 108.548 211.895C108.804 212.135 109.121 212.242 109.499 212.216C109.872 212.19 110.169 212.037 110.388 211.759C110.612 211.48 110.71 211.135 110.681 210.722C110.652 210.315 110.508 209.989 110.247 209.744C109.991 209.499 109.677 209.389 109.303 209.415C108.925 209.442 108.626 209.594 108.407 209.873C108.188 210.151 108.092 210.494 108.121 210.901ZM112.888 212.344L112.394 212.379L112.177 209.28L111.471 209.33L111.442 208.908L112.147 208.858L112.07 207.746L112.564 207.711L112.642 208.824L113.348 208.774L113.377 209.196L112.672 209.246L112.888 212.344ZM114.749 212.207L114.247 212.242L113.876 206.947L114.378 206.912L114.546 209.305C114.765 208.817 115.163 208.552 115.74 208.512C116.191 208.481 116.535 208.586 116.771 208.827C117.012 209.069 117.148 209.42 117.181 209.88L117.331 212.033L116.829 212.069L116.686 210.025C116.634 209.283 116.298 208.934 115.678 208.977C115.314 209.002 115.039 209.141 114.851 209.393C114.669 209.64 114.59 209.94 114.615 210.294L114.749 212.207ZM118.519 207.331C118.451 207.409 118.367 207.451 118.265 207.458C118.163 207.466 118.073 207.435 117.995 207.368C117.918 207.3 117.875 207.215 117.868 207.113C117.861 207.012 117.891 206.922 117.959 206.844C118.026 206.761 118.111 206.716 118.212 206.709C118.314 206.702 118.404 206.735 118.482 206.807C118.565 206.875 118.61 206.959 118.617 207.061C118.624 207.163 118.592 207.253 118.519 207.331ZM118.331 211.963L118.085 208.443L118.587 208.408L118.833 211.928L118.331 211.963ZM120.382 211.82L119.88 211.855L119.634 208.335L120.07 208.304L120.186 208.91C120.286 208.679 120.439 208.495 120.644 208.359C120.853 208.218 121.087 208.138 121.344 208.12C122.255 208.057 122.745 208.512 122.813 209.487L122.964 211.64L122.462 211.675L122.319 209.631C122.267 208.889 121.924 208.54 121.288 208.585C120.934 208.609 120.666 208.747 120.484 208.999C120.302 209.25 120.225 209.577 120.253 209.98L120.382 211.82ZM124.118 210.945C123.803 210.626 123.628 210.219 123.594 209.724C123.559 209.23 123.681 208.805 123.958 208.449C124.235 208.089 124.623 207.891 125.122 207.856C125.757 207.812 126.21 208.048 126.48 208.565L126.482 207.856L126.918 207.825L127.157 211.237C127.193 211.76 127.067 212.191 126.779 212.528C126.491 212.864 126.09 213.051 125.576 213.087C125.125 213.118 124.741 213.023 124.423 212.802C124.111 212.585 123.905 212.266 123.808 211.844L124.31 211.809C124.383 212.091 124.529 212.302 124.749 212.443C124.968 212.588 125.236 212.65 125.551 212.628C125.91 212.603 126.191 212.471 126.393 212.233C126.601 211.994 126.691 211.691 126.666 211.322L126.607 210.486C126.503 210.742 126.34 210.948 126.117 211.105C125.894 211.257 125.632 211.343 125.331 211.364C124.841 211.399 124.437 211.259 124.118 210.945ZM124.095 209.682C124.121 210.055 124.25 210.361 124.481 210.598C124.716 210.83 125.013 210.933 125.372 210.908C125.746 210.882 126.033 210.74 126.234 210.483C126.435 210.225 126.522 209.902 126.495 209.514C126.469 209.131 126.34 208.826 126.11 208.598C125.879 208.371 125.575 208.27 125.197 208.297C124.828 208.322 124.546 208.469 124.351 208.736C124.155 208.998 124.069 209.314 124.095 209.682Z" fill="#208646"/>
<rect x="136.012" y="200.576" width="36.1139" height="14.2532" rx="7.12658" transform="rotate(-4 136.012 200.576)" fill="#F0FDF4"/>
<rect x="136.012" y="200.576" width="36.1139" height="14.2532" rx="7.12658" transform="rotate(-4 136.012 200.576)" stroke="#BBF7D0" stroke-width="0.607595"/>
<path d="M141.315 206.483C141.285 206.046 141.42 205.686 141.722 205.402C142.023 205.113 142.436 204.95 142.959 204.913C143.43 204.88 143.819 204.977 144.127 205.204C144.436 205.431 144.624 205.761 144.694 206.195L144.163 206.232C144.113 205.938 143.985 205.718 143.78 205.572C143.575 205.425 143.31 205.364 142.985 205.386C142.617 205.412 142.327 205.52 142.116 205.71C141.91 205.9 141.818 206.143 141.838 206.439C141.87 206.894 142.162 207.171 142.715 207.269L143.625 207.425C144.463 207.566 144.907 207.993 144.957 208.706C144.988 209.157 144.851 209.527 144.545 209.816C144.243 210.105 143.824 210.269 143.285 210.306C142.781 210.341 142.36 210.247 142.023 210.022C141.691 209.796 141.492 209.472 141.429 209.047L141.967 209.01C142 209.28 142.134 209.49 142.369 209.639C142.604 209.789 142.898 209.851 143.252 209.826C143.635 209.799 143.932 209.691 144.143 209.501C144.358 209.31 144.456 209.067 144.435 208.771C144.402 208.296 144.107 208.015 143.55 207.927L142.655 207.77C141.812 207.629 141.365 207.2 141.315 206.483ZM147.369 210.021C146.855 210.057 146.426 209.916 146.083 209.599C145.744 209.282 145.555 208.846 145.516 208.294C145.478 207.746 145.602 207.289 145.888 206.923C146.179 206.557 146.575 206.356 147.074 206.321C147.549 206.288 147.946 206.416 148.263 206.706C148.58 206.99 148.756 207.383 148.791 207.882L148.808 208.129L146.008 208.325C146.058 208.755 146.198 209.082 146.428 209.304C146.662 209.522 146.968 209.617 147.347 209.591C147.928 209.55 148.271 209.288 148.373 208.803L148.853 208.769C148.782 209.149 148.62 209.446 148.367 209.658C148.114 209.871 147.781 209.992 147.369 210.021ZM147.919 207.007C147.705 206.813 147.434 206.727 147.104 206.75C146.774 206.773 146.512 206.894 146.318 207.112C146.123 207.325 146.017 207.608 145.997 207.96L148.281 207.801C148.257 207.461 148.137 207.197 147.919 207.007ZM151.32 206.075L151.352 206.526L151.075 206.546C150.751 206.568 150.498 206.688 150.319 206.905C150.143 207.117 150.067 207.391 150.091 207.725L150.231 209.733L149.729 209.768L149.483 206.248L149.956 206.215L150.03 206.757C150.085 206.559 150.198 206.397 150.369 206.273C150.541 206.149 150.748 206.079 150.99 206.062C151.107 206.054 151.217 206.058 151.32 206.075ZM153.325 209.516L151.639 206.097L152.177 206.059L153.245 208.265C153.406 208.624 153.508 208.86 153.55 208.974C153.583 208.821 153.654 208.573 153.761 208.229L154.526 205.895L155.043 205.859L153.827 209.481L153.325 209.516ZM156.068 204.705C156.001 204.783 155.916 204.826 155.814 204.833C155.712 204.84 155.622 204.81 155.544 204.742C155.467 204.674 155.424 204.59 155.417 204.488C155.41 204.386 155.44 204.296 155.508 204.218C155.575 204.136 155.66 204.091 155.762 204.084C155.863 204.077 155.953 204.109 156.032 204.182C156.114 204.249 156.159 204.334 156.166 204.435C156.173 204.537 156.141 204.627 156.068 204.705ZM155.88 209.338L155.634 205.817L156.136 205.782L156.382 209.303L155.88 209.338ZM157.611 208.8C157.282 208.482 157.098 208.047 157.059 207.494C157.02 206.941 157.144 206.482 157.43 206.116C157.722 205.749 158.122 205.548 158.631 205.513C159.038 205.484 159.388 205.57 159.679 205.768C159.976 205.967 160.171 206.246 160.264 206.605L159.762 206.64C159.682 206.407 159.543 206.231 159.345 206.113C159.147 205.991 158.921 205.938 158.669 205.956C158.31 205.981 158.026 206.13 157.816 206.403C157.611 206.676 157.523 207.025 157.553 207.452C157.582 207.869 157.713 208.199 157.944 208.441C158.18 208.682 158.475 208.791 158.829 208.766C159.091 208.748 159.314 208.666 159.499 208.522C159.688 208.372 159.809 208.181 159.861 207.948L160.37 207.913C160.313 208.277 160.146 208.579 159.871 208.818C159.595 209.056 159.258 209.189 158.861 209.217C158.361 209.252 157.945 209.113 157.611 208.8ZM162.69 208.949C162.176 208.985 161.747 208.845 161.404 208.528C161.065 208.21 160.876 207.775 160.837 207.222C160.799 206.674 160.923 206.217 161.209 205.852C161.5 205.485 161.896 205.285 162.395 205.25C162.87 205.216 163.267 205.345 163.584 205.634C163.901 205.919 164.077 206.311 164.112 206.811L164.129 207.058L161.329 207.254C161.379 207.684 161.519 208.01 161.748 208.233C161.983 208.451 162.289 208.546 162.668 208.52C163.249 208.479 163.592 208.216 163.694 207.732L164.174 207.698C164.103 208.078 163.941 208.375 163.688 208.587C163.435 208.8 163.102 208.92 162.69 208.949ZM163.24 205.936C163.026 205.742 162.755 205.656 162.425 205.679C162.095 205.702 161.833 205.822 161.639 206.041C161.444 206.254 161.338 206.537 161.318 206.889L163.602 206.729C163.578 206.39 163.458 206.126 163.24 205.936ZM164.683 207.728L165.163 207.695C165.177 207.898 165.259 208.056 165.408 208.167C165.562 208.273 165.762 208.318 166.009 208.301C166.281 208.282 166.488 208.213 166.631 208.096C166.778 207.974 166.845 207.818 166.832 207.629C166.822 207.479 166.77 207.363 166.676 207.282C166.588 207.2 166.44 207.142 166.233 207.108L165.619 206.998C165.002 206.89 164.677 206.593 164.643 206.108C164.621 205.803 164.721 205.55 164.941 205.349C165.16 205.149 165.462 205.035 165.845 205.008C166.218 204.982 166.523 205.058 166.76 205.237C166.996 205.41 167.131 205.659 167.163 205.983L166.676 206.017C166.652 205.814 166.568 205.662 166.424 205.56C166.285 205.453 166.097 205.407 165.859 205.424C165.612 205.441 165.424 205.506 165.295 205.617C165.172 205.728 165.116 205.878 165.13 206.067C165.149 206.343 165.353 206.514 165.743 206.58L166.357 206.69C166.668 206.746 166.899 206.845 167.05 206.985C167.206 207.125 167.293 207.322 167.311 207.574C167.333 207.889 167.227 208.152 166.993 208.363C166.764 208.569 166.448 208.687 166.046 208.715C165.648 208.742 165.326 208.668 165.08 208.49C164.838 208.312 164.706 208.058 164.683 207.728Z" fill="#208646"/>
<rect x="175.675" y="197.802" width="38.1139" height="14.2532" rx="7.12658" transform="rotate(-4 175.675 197.802)" fill="#F0FDF4"/>
<rect x="175.675" y="197.802" width="38.1139" height="14.2532" rx="7.12658" transform="rotate(-4 175.675 197.802)" stroke="#BBF7D0" stroke-width="0.607595"/>
<path d="M183.412 205.49L181.95 205.593L182.084 207.505L181.56 207.542L181.196 202.334L183.182 202.195C183.681 202.161 184.089 202.283 184.406 202.563C184.722 202.838 184.898 203.223 184.932 203.718C184.966 204.198 184.844 204.606 184.565 204.942C184.286 205.273 183.902 205.456 183.412 205.49ZM183.142 202.673L181.753 202.77L181.917 205.12L183.277 205.025C183.65 204.999 183.934 204.872 184.127 204.644C184.326 204.41 184.412 204.112 184.386 203.748C184.361 203.39 184.237 203.116 184.015 202.927C183.792 202.733 183.501 202.648 183.142 202.673ZM187.51 203.545L187.541 203.996L187.265 204.015C186.94 204.038 186.688 204.158 186.508 204.375C186.333 204.587 186.257 204.86 186.28 205.195L186.421 207.202L185.919 207.237L185.673 203.717L186.145 203.684L186.22 204.227C186.274 204.028 186.387 203.867 186.559 203.743C186.73 203.619 186.937 203.548 187.18 203.531C187.296 203.523 187.406 203.528 187.51 203.545ZM187.921 205.329C187.883 204.79 188.019 204.335 188.329 203.962C188.644 203.59 189.061 203.385 189.58 203.349C190.099 203.312 190.538 203.457 190.897 203.783C191.261 204.108 191.462 204.54 191.499 205.078C191.536 205.612 191.398 206.065 191.083 206.438C190.772 206.81 190.358 207.015 189.839 207.051C189.32 207.087 188.879 206.943 188.515 206.617C188.156 206.291 187.958 205.862 187.921 205.329ZM188.429 205.286C188.458 205.703 188.601 206.034 188.857 206.279C189.112 206.519 189.429 206.626 189.808 206.6C190.181 206.574 190.477 206.422 190.697 206.143C190.921 205.864 191.018 205.519 190.99 205.107C190.961 204.699 190.816 204.373 190.556 204.128C190.3 203.883 189.985 203.774 189.612 203.8C189.234 203.826 188.935 203.979 188.716 204.257C188.496 204.535 188.401 204.878 188.429 205.286ZM193.813 206.773C193.309 206.808 192.899 206.664 192.584 206.34C192.269 206.016 192.093 205.585 192.055 205.047C192.017 204.499 192.133 204.042 192.405 203.677C192.677 203.308 193.067 203.105 193.576 203.069C194.192 203.026 194.641 203.251 194.924 203.742L194.753 201.291L195.254 201.256L195.625 206.559L195.189 206.589L195.088 205.873C194.985 206.148 194.822 206.361 194.599 206.513C194.376 206.665 194.114 206.752 193.813 206.773ZM193.868 206.309C194.246 206.282 194.536 206.133 194.736 205.861C194.936 205.588 195.022 205.244 194.993 204.827C194.964 204.415 194.831 204.088 194.595 203.846C194.359 203.599 194.051 203.489 193.673 203.516C193.3 203.542 193.013 203.693 192.813 203.97C192.618 204.242 192.534 204.584 192.563 204.997C192.592 205.414 192.723 205.743 192.954 205.985C193.19 206.227 193.495 206.335 193.868 206.309ZM198.899 202.792L199.401 202.757L199.647 206.277L199.211 206.308L199.104 205.716C199.021 205.926 198.87 206.103 198.651 206.245C198.437 206.386 198.191 206.467 197.915 206.486C197.508 206.515 197.184 206.408 196.943 206.167C196.702 205.925 196.566 205.586 196.535 205.15L196.382 202.961L196.891 202.925L197.033 204.954C197.086 205.711 197.423 206.067 198.044 206.024C198.383 206 198.64 205.873 198.813 205.641C198.987 205.405 199.059 205.078 199.03 204.661L198.899 202.792ZM200.804 205.78C200.474 205.462 200.291 205.026 200.252 204.474C200.213 203.921 200.337 203.461 200.623 203.095C200.914 202.729 201.314 202.528 201.824 202.493C202.231 202.464 202.58 202.549 202.872 202.748C203.169 202.947 203.363 203.225 203.457 203.584L202.955 203.619C202.875 203.386 202.736 203.211 202.538 203.093C202.339 202.971 202.114 202.918 201.862 202.936C201.503 202.961 201.219 203.11 201.009 203.383C200.804 203.655 200.716 204.005 200.746 204.432C200.775 204.849 200.905 205.178 201.137 205.42C201.373 205.662 201.668 205.771 202.022 205.746C202.284 205.727 202.507 205.646 202.692 205.502C202.881 205.352 203.002 205.161 203.054 204.928L203.563 204.893C203.506 205.257 203.339 205.559 203.063 205.797C202.788 206.036 202.451 206.169 202.053 206.197C201.554 206.232 201.137 206.093 200.804 205.78ZM205.208 205.888L204.713 205.923L204.497 202.825L203.791 202.874L203.762 202.452L204.467 202.403L204.389 201.29L204.884 201.255L204.962 202.368L205.667 202.319L205.697 202.741L204.991 202.79L205.208 205.888ZM206.199 204.825L206.68 204.792C206.694 204.995 206.775 205.153 206.925 205.264C207.078 205.37 207.279 205.415 207.526 205.397C207.797 205.378 208.005 205.31 208.147 205.193C208.295 205.071 208.362 204.915 208.349 204.726C208.338 204.576 208.286 204.46 208.193 204.379C208.104 204.297 207.957 204.239 207.749 204.205L207.135 204.095C206.518 203.987 206.193 203.69 206.159 203.205C206.138 202.9 206.237 202.647 206.457 202.446C206.677 202.246 206.978 202.132 207.361 202.105C207.735 202.079 208.04 202.155 208.276 202.334C208.513 202.507 208.647 202.756 208.679 203.08L208.192 203.114C208.168 202.911 208.084 202.759 207.941 202.657C207.802 202.55 207.613 202.504 207.376 202.521C207.129 202.538 206.941 202.603 206.812 202.714C206.688 202.825 206.633 202.975 206.646 203.164C206.665 203.44 206.87 203.611 207.259 203.677L207.874 203.787C208.185 203.843 208.416 203.942 208.567 204.082C208.723 204.222 208.81 204.418 208.827 204.671C208.849 204.986 208.743 205.249 208.51 205.46C208.28 205.666 207.965 205.783 207.562 205.812C207.165 205.839 206.843 205.764 206.596 205.587C206.355 205.409 206.223 205.155 206.199 204.825Z" fill="#208646"/>
<rect x="217.333" y="194.889" width="28.1139" height="14.2532" rx="7.12658" transform="rotate(-4 217.333 194.889)" fill="#F0FDF4"/>
<rect x="217.333" y="194.889" width="28.1139" height="14.2532" rx="7.12658" transform="rotate(-4 217.333 194.889)" stroke="#BBF7D0" stroke-width="0.607595"/>
<path d="M227.676 201.701C227.732 202.491 227.544 203.155 227.114 203.692C226.688 204.223 226.112 204.514 225.384 204.565C224.652 204.617 224.038 204.408 223.543 203.941C223.047 203.469 222.771 202.838 222.716 202.048C222.661 201.257 222.846 200.594 223.271 200.057C223.701 199.52 224.28 199.227 225.007 199.176C225.74 199.125 226.354 199.335 226.849 199.807C227.345 200.274 227.621 200.905 227.676 201.701ZM226.703 203.362C227.039 202.929 227.183 202.388 227.138 201.738C227.093 201.089 226.876 200.575 226.489 200.198C226.102 199.815 225.62 199.645 225.043 199.685C224.466 199.725 224.012 199.962 223.682 200.394C223.356 200.821 223.216 201.36 223.261 202.009C223.307 202.659 223.521 203.175 223.903 203.558C224.29 203.935 224.772 204.104 225.349 204.063C225.921 204.023 226.373 203.79 226.703 203.362ZM229.506 204.189L229.012 204.224L228.795 201.125L228.089 201.175L228.06 200.753L228.765 200.704L228.688 199.591L229.182 199.556L229.26 200.669L229.965 200.62L229.995 201.042L229.289 201.091L229.506 204.189ZM231.367 204.052L230.865 204.087L230.494 198.792L230.996 198.757L231.164 201.15C231.383 200.662 231.781 200.398 232.358 200.357C232.809 200.326 233.153 200.431 233.389 200.673C233.63 200.914 233.766 201.265 233.799 201.726L233.949 203.879L233.447 203.914L233.304 201.87C233.252 201.128 232.916 200.779 232.296 200.822C231.932 200.848 231.656 200.986 231.469 201.238C231.287 201.485 231.208 201.785 231.233 202.139L231.367 204.052ZM236.432 203.793C235.918 203.829 235.489 203.688 235.145 203.371C234.806 203.054 234.618 202.619 234.579 202.066C234.541 201.518 234.665 201.061 234.951 200.695C235.242 200.329 235.637 200.128 236.137 200.093C236.612 200.06 237.008 200.188 237.326 200.478C237.643 200.763 237.819 201.155 237.854 201.654L237.871 201.901L235.071 202.097C235.12 202.527 235.26 202.854 235.49 203.077C235.725 203.294 236.031 203.39 236.409 203.363C236.991 203.322 237.333 203.06 237.436 202.575L237.916 202.542C237.845 202.922 237.683 203.218 237.43 203.431C237.177 203.643 236.844 203.764 236.432 203.793ZM236.981 200.78C236.768 200.585 236.496 200.499 236.167 200.522C235.837 200.545 235.575 200.666 235.381 200.884C235.186 201.098 235.079 201.38 235.06 201.733L237.344 201.573C237.32 201.233 237.199 200.969 236.981 200.78ZM240.383 199.847L240.415 200.298L240.138 200.318C239.813 200.34 239.561 200.46 239.381 200.678C239.206 200.89 239.13 201.163 239.154 201.497L239.294 203.505L238.792 203.54L238.546 200.02L239.019 199.987L239.093 200.53C239.147 200.331 239.26 200.17 239.432 200.045C239.604 199.921 239.811 199.851 240.053 199.834C240.17 199.826 240.279 199.83 240.383 199.847Z" fill="#208646"/>
</g>
<circle cx="232.873" cy="62.5463" r="7.89873" transform="rotate(-4 232.873 62.5463)" fill="#F4F4F5"/>
<path d="M235.128 59.9521L230.618 65.1401" stroke="#71717A" stroke-width="0.810127" stroke-linecap="round" stroke-linejoin="round"/>
<path d="M230.279 60.2912L235.467 64.801" stroke="#71717A" stroke-width="0.810127" stroke-linecap="round" stroke-linejoin="round"/>
<rect x="33.1471" y="228.782" width="218.734" height="31.5949" rx="15.7975" transform="rotate(-4 33.1471 228.782)" fill="#8FE1AD"/>
<path d="M122.254 236.76C122.211 236.139 122.408 235.619 122.846 235.198C123.291 234.771 123.885 234.531 124.628 234.479C125.346 234.429 125.931 234.577 126.384 234.922C126.837 235.26 127.095 235.749 127.159 236.388L125.918 236.475C125.883 236.172 125.757 235.943 125.538 235.79C125.319 235.63 125.035 235.562 124.686 235.586C124.305 235.613 124.004 235.722 123.783 235.912C123.569 236.096 123.472 236.337 123.493 236.634C123.526 237.119 123.836 237.406 124.42 237.495L125.552 237.66C126.773 237.834 127.419 238.439 127.492 239.473C127.538 240.133 127.339 240.676 126.894 241.104C126.45 241.531 125.837 241.772 125.054 241.827C124.298 241.88 123.677 241.735 123.192 241.392C122.706 241.049 122.435 240.561 122.378 239.928L123.619 239.842C123.647 240.138 123.779 240.366 124.018 240.525C124.256 240.677 124.575 240.739 124.976 240.711C125.39 240.682 125.711 240.576 125.938 240.391C126.172 240.205 126.279 239.964 126.258 239.667C126.225 239.195 125.929 238.92 125.372 238.842L124.229 238.668C122.989 238.489 122.33 237.853 122.254 236.76ZM130.018 241.48C129.513 241.515 129.103 241.407 128.787 241.156C128.477 240.905 128.306 240.553 128.274 240.101C128.243 239.661 128.371 239.298 128.656 239.012C128.948 238.725 129.377 238.539 129.942 238.454L131.37 238.247L131.363 238.14C131.32 237.533 130.969 237.252 130.31 237.298C129.961 237.322 129.697 237.412 129.52 237.568C129.342 237.716 129.262 237.917 129.279 238.169L128.271 238.24C128.235 237.722 128.4 237.295 128.766 236.958C129.138 236.613 129.651 236.418 130.304 236.373C130.957 236.327 131.48 236.466 131.873 236.789C132.265 237.112 132.485 237.601 132.53 238.254L132.734 241.163L131.696 241.236L131.559 240.534C131.473 240.787 131.287 241.001 131 241.177C130.72 241.353 130.393 241.453 130.018 241.48ZM130.343 240.56C130.712 240.534 130.995 240.411 131.194 240.189C131.393 239.967 131.48 239.672 131.454 239.303L131.436 239.051L130.443 239.199C129.768 239.311 129.445 239.567 129.473 239.968C129.504 240.401 129.794 240.599 130.343 240.56ZM135.064 241L132.829 236.342L134.089 236.254L135.077 238.397C135.356 239.034 135.529 239.467 135.597 239.696C135.641 239.4 135.759 238.947 135.95 238.336L136.669 236.074L137.891 235.988L136.228 240.919L135.064 241ZM140.821 240.724C140.11 240.774 139.512 240.582 139.027 240.148C138.541 239.708 138.273 239.116 138.221 238.372C138.168 237.622 138.345 236.996 138.752 236.493C139.165 235.99 139.724 235.714 140.429 235.665C141.146 235.614 141.731 235.798 142.182 236.214C142.64 236.624 142.895 237.204 142.947 237.954L142.972 238.313L139.365 238.575C139.515 239.415 139.984 239.808 140.773 239.753C141.439 239.706 141.826 239.442 141.936 238.96L143.032 238.884C142.965 239.415 142.735 239.843 142.342 240.17C141.955 240.495 141.448 240.68 140.821 240.724ZM140.506 236.634C139.795 236.683 139.407 237.078 139.341 237.816L141.746 237.648C141.723 237.318 141.598 237.061 141.371 236.875C141.15 236.689 140.862 236.609 140.506 236.634ZM146.091 235.093C146.048 234.473 146.245 233.952 146.684 233.531C147.128 233.104 147.722 232.864 148.466 232.812C149.183 232.762 149.768 232.91 150.221 233.255C150.674 233.594 150.932 234.082 150.996 234.721L149.755 234.808C149.721 234.505 149.594 234.276 149.376 234.123C149.157 233.963 148.873 233.895 148.523 233.919C148.142 233.946 147.841 234.055 147.62 234.246C147.406 234.43 147.309 234.67 147.33 234.968C147.364 235.452 147.673 235.739 148.257 235.829L149.39 235.993C150.61 236.167 151.257 236.772 151.329 237.806C151.375 238.466 151.176 239.009 150.732 239.437C150.287 239.864 149.674 240.105 148.892 240.16C148.135 240.213 147.514 240.068 147.029 239.725C146.544 239.382 146.273 238.894 146.215 238.261L147.457 238.175C147.484 238.472 147.617 238.699 147.855 238.858C148.093 239.01 148.413 239.073 148.814 239.045C149.227 239.016 149.548 238.909 149.775 238.724C150.009 238.539 150.116 238.297 150.095 238C150.062 237.528 149.767 237.253 149.209 237.175L148.067 237.002C146.826 236.822 146.168 236.186 146.091 235.093ZM153.855 239.813C153.351 239.848 152.94 239.74 152.624 239.49C152.314 239.238 152.143 238.886 152.112 238.434C152.081 237.994 152.208 237.631 152.493 237.345C152.785 237.058 153.214 236.872 153.78 236.787L155.208 236.58L155.2 236.473C155.158 235.866 154.807 235.585 154.147 235.631C153.798 235.655 153.535 235.745 153.357 235.901C153.179 236.05 153.099 236.25 153.117 236.502L152.108 236.573C152.072 236.056 152.237 235.628 152.603 235.291C152.975 234.946 153.488 234.751 154.141 234.706C154.794 234.66 155.317 234.799 155.71 235.122C156.103 235.446 156.322 235.934 156.368 236.587L156.571 239.496L155.534 239.569L155.397 238.867C155.311 239.12 155.124 239.334 154.838 239.51C154.557 239.686 154.23 239.787 153.855 239.813ZM154.18 238.893C154.549 238.868 154.833 238.744 155.032 238.522C155.23 238.3 155.317 238.005 155.291 237.637L155.274 237.384L154.28 237.532C153.606 237.644 153.283 237.9 153.311 238.301C153.341 238.734 153.631 238.932 154.18 238.893ZM158.926 239.331L157.753 239.413L157.248 232.198L158.422 232.116L158.926 239.331ZM162.319 239.221C161.608 239.271 161.01 239.078 160.525 238.645C160.039 238.204 159.771 237.612 159.719 236.869C159.666 236.119 159.843 235.493 160.25 234.99C160.663 234.487 161.222 234.211 161.927 234.161C162.644 234.111 163.229 234.294 163.68 234.711C164.138 235.121 164.393 235.701 164.445 236.451L164.47 236.81L160.863 237.071C161.013 237.912 161.482 238.305 162.271 238.25C162.937 238.203 163.325 237.939 163.434 237.457L164.53 237.38C164.463 237.911 164.233 238.34 163.84 238.666C163.453 238.992 162.947 239.177 162.319 239.221ZM162.004 235.13C161.293 235.18 160.905 235.574 160.84 236.313L163.245 236.145C163.222 235.815 163.096 235.558 162.869 235.372C162.648 235.186 162.36 235.106 162.004 235.13Z" fill="white"/>
</g>
<path d="M10.5291 32.0854L10.3974 30.202L19.2717 29.5815L19.4034 31.4649L15.9878 31.7037L16.6719 41.4878L14.6289 41.6307L13.9447 31.8466L10.5291 32.0854ZM24.8055 32.9637L24.9316 34.7673L24.2134 34.8175C23.4898 34.8681 22.9392 35.0991 22.5617 35.5104C22.1948 35.921 22.0377 36.5041 22.0906 37.2596L22.3584 41.0902L20.4112 41.2264L19.8609 33.3576L21.6965 33.2292L21.8885 34.3706C22.0305 33.9544 22.2795 33.6162 22.6356 33.356C22.9916 33.0959 23.425 32.948 23.9358 32.9123C24.2125 32.8929 24.5024 32.9101 24.8055 32.9637ZM28.7262 40.8534C27.8962 40.9115 27.2208 40.7342 26.7001 40.3215C26.19 39.908 25.909 39.3289 25.8569 38.5841C25.8063 37.8605 26.0158 37.2631 26.4854 36.7919C26.9656 36.3199 27.6713 36.0139 28.6025 35.8739L30.9525 35.5332L30.9402 35.3576C30.8702 34.3574 30.2926 33.8952 29.2073 33.9711C28.6327 34.0113 28.1993 34.1592 27.907 34.4149C27.6141 34.6599 27.4821 34.9899 27.5111 35.4049L25.8512 35.521C25.7917 34.6697 26.0633 33.9664 26.666 33.411C27.2786 32.8442 28.1223 32.5233 29.197 32.4481C30.2717 32.373 31.1324 32.6015 31.7791 33.1337C32.4258 33.6659 32.7867 34.4693 32.8619 35.544L33.1967 40.3323L31.4889 40.4517L31.2638 39.2966C31.1218 39.7129 30.815 40.0658 30.3434 40.3554C29.8824 40.6443 29.3433 40.8103 28.7262 40.8534ZM29.2619 39.3404C29.8684 39.298 30.3354 39.0942 30.6627 38.7292C30.99 38.3641 31.1325 37.8783 31.0901 37.2718L31.0611 36.8568L29.426 37.0995C28.3162 37.284 27.7843 37.7061 27.8305 38.3659C27.8803 39.0788 28.3575 39.4036 29.2619 39.3404ZM34.37 36.2726C34.2844 35.0489 34.5816 34.023 35.2615 33.1949C35.9414 32.3668 36.8612 31.9122 38.0211 31.8311C39.0958 31.7559 39.9933 31.9765 40.7138 32.4929C41.4441 32.9978 41.8956 33.7201 42.0682 34.6597L40.121 34.7958C39.8343 33.907 39.2015 33.4968 38.2225 33.5653C37.5947 33.6092 37.1049 33.868 36.7531 34.3416C36.4112 34.804 36.2659 35.4022 36.3172 36.1364C36.3693 36.8813 36.5915 37.4592 36.9838 37.8701C37.3753 38.2705 37.8797 38.4491 38.4969 38.4059C38.9863 38.3717 39.3825 38.2264 39.6853 37.9699C39.9988 37.7128 40.1939 37.3677 40.2705 36.9346L42.2338 36.7973C42.1814 37.7312 41.8189 38.5104 41.1462 39.1349C40.4833 39.7479 39.6411 40.0902 38.6196 40.1616C37.4279 40.245 36.4438 39.9342 35.6674 39.2293C34.8903 38.5138 34.4578 37.5282 34.37 36.2726ZM45.8483 39.4476L43.917 39.5827L43.0866 27.7077L45.0179 27.5726L45.528 34.8668L48.3615 31.3486L50.8035 31.1778L48.0216 34.516L51.291 39.067L49.0565 39.2233L46.7654 36.0474L45.6999 37.3248L45.8483 39.4476ZM59.5505 33.8702L55.1137 27.0752L57.3961 26.9156L59.9914 31.0005C60.1119 31.1952 60.2704 31.4728 60.4667 31.8334C60.4949 31.7779 60.5452 31.6568 60.6177 31.4699C60.6894 31.2725 60.7573 31.0966 60.8214 30.9424L62.8069 26.5372L65.0255 26.3821L61.5935 33.7274L61.915 38.3241L59.8719 38.467L59.5505 33.8702ZM65.9996 37.0762C65.1579 36.3545 64.6942 35.3818 64.6087 34.1581C64.5231 32.9344 64.8472 31.912 65.5811 31.0908C66.3248 30.2582 67.3085 29.7991 68.5322 29.7136C69.7559 29.628 70.7886 29.9461 71.6303 30.6678C72.4819 31.3781 72.9505 32.3451 73.0361 33.5688C73.1216 34.7925 72.7926 35.8206 72.0488 36.6532C71.315 37.4744 70.3362 37.9277 69.1126 38.0133C67.8889 38.0989 66.8512 37.7865 65.9996 37.0762ZM67.0567 32.2386C66.673 32.7146 66.506 33.309 66.5559 34.0219C66.6058 34.7349 66.8538 35.3003 67.3 35.7182C67.7569 36.1353 68.3205 36.3204 68.9909 36.2736C69.6613 36.2267 70.1883 35.9653 70.572 35.4894C70.9664 35.0127 71.1387 34.4179 71.0888 33.705C71.039 32.992 70.7856 32.427 70.3287 32.0098C69.8825 31.592 69.3242 31.4065 68.6538 31.4533C67.9835 31.5002 67.4511 31.762 67.0567 32.2386ZM79.4649 29.1736L81.4121 29.0375L81.9635 36.9222L80.1599 37.0483L79.9426 36.005C79.7239 36.3945 79.3886 36.7227 78.9368 36.9895C78.485 37.2563 77.9984 37.408 77.477 37.4444C76.5725 37.5077 75.8452 37.2752 75.295 36.747C74.7441 36.2081 74.4348 35.4545 74.3671 34.4862L74.0222 29.5542L75.9694 29.4181L76.2663 33.6637C76.3645 35.0683 76.9723 35.7315 78.0895 35.6534C79.3026 35.5685 79.8574 34.7866 79.754 33.3075L79.4649 29.1736ZM88.369 28.5189L88.4952 30.3225L87.7769 30.3727C87.0533 30.4233 86.5028 30.6543 86.1252 31.0656C85.7583 31.4762 85.6013 32.0593 85.6541 32.8148L85.922 36.6454L83.9747 36.7816L83.4245 28.9128L85.26 28.7844L85.4521 29.9258C85.5941 29.5096 85.8431 29.1714 86.1991 28.9112C86.5552 28.6511 86.9886 28.5032 87.4993 28.4675C87.776 28.4481 88.0659 28.4653 88.369 28.5189ZM93.5714 27.6579C93.5 26.6364 93.825 25.7797 94.5465 25.0876C95.2779 24.3842 96.2554 23.9898 97.4791 23.9042C98.6602 23.8216 99.6235 24.0643 100.369 24.6324C101.114 25.1898 101.539 25.9941 101.644 27.0453L99.6013 27.1881C99.5451 26.6895 99.337 26.3138 98.9772 26.0609C98.6166 25.7975 98.149 25.6858 97.5744 25.726C96.9466 25.7699 96.4512 25.9489 96.0882 26.263C95.7351 26.5657 95.5757 26.9617 95.61 27.4512C95.6658 28.2493 96.1746 28.7216 97.1365 28.8682L98.9999 29.1389C101.009 29.4261 102.073 30.421 102.192 32.1235C102.268 33.2088 101.94 34.1032 101.209 34.8066C100.477 35.51 99.4678 35.9067 98.1803 35.9967C96.9354 36.0838 95.9136 35.8452 95.1149 35.2808C94.3163 34.7165 93.8698 33.9137 93.7756 32.8724L95.8187 32.7295C95.8635 33.2182 96.0822 33.5932 96.4747 33.8545C96.8665 34.1051 97.3922 34.2073 98.052 34.1612C98.733 34.1136 99.2607 33.9377 99.635 33.6335C100.02 33.3286 100.195 32.9314 100.161 32.4419C100.107 31.6651 99.6208 31.2126 98.7029 31.0843L96.8224 30.7988C94.7808 30.5032 93.6972 29.4562 93.5714 27.6579ZM106.349 35.4255C105.519 35.4836 104.844 35.3062 104.323 34.8935C103.813 34.4801 103.532 33.901 103.48 33.1561C103.429 32.4326 103.639 31.8352 104.108 31.3639C104.589 30.8919 105.294 30.586 106.225 30.446L108.575 30.1053L108.563 29.9297C108.493 28.9295 107.916 28.4673 106.83 28.5432C106.256 28.5834 105.822 28.7313 105.53 28.987C105.237 29.232 105.105 29.562 105.134 29.977L103.474 30.0931C103.415 29.2418 103.686 28.5385 104.289 27.9831C104.902 27.4163 105.745 27.0953 106.82 27.0202C107.895 26.945 108.755 27.1736 109.402 27.7057C110.049 28.2379 110.41 29.0414 110.485 30.1161L110.82 34.9044L109.112 35.0238L108.887 33.8687C108.745 34.285 108.438 34.6379 107.966 34.9275C107.505 35.2164 106.966 35.3824 106.349 35.4255ZM106.885 33.9125C107.491 33.87 107.958 33.6663 108.286 33.3013C108.613 32.9362 108.755 32.4504 108.713 31.8439L108.684 31.4289L107.049 31.6716C105.939 31.8561 105.407 32.2782 105.453 32.9379C105.503 33.6509 105.98 33.9757 106.885 33.9125ZM114.696 34.6333L112.765 34.7684L111.934 22.8934L113.865 22.7583L114.696 34.6333ZM120.28 34.4513C119.11 34.5332 118.125 34.2171 117.327 33.5031C116.528 32.7784 116.085 31.8042 116 30.5805C115.914 29.3462 116.205 28.3153 116.874 27.488C117.554 26.6599 118.474 26.2053 119.634 26.1242C120.815 26.0416 121.777 26.3432 122.52 27.029C123.273 27.7035 123.693 28.6579 123.779 29.8922L123.82 30.4828L117.884 30.9139C118.13 32.2974 118.903 32.9438 120.201 32.853C121.297 32.7764 121.935 32.3415 122.114 31.5483L123.918 31.4222C123.808 32.296 123.43 33.0015 122.783 33.5386C122.147 34.0749 121.312 34.3792 120.28 34.4513ZM119.761 27.7191C118.591 27.801 117.952 28.4498 117.845 29.6656L121.803 29.3888C121.765 28.8461 121.559 28.4221 121.185 28.1168C120.821 27.8108 120.347 27.6782 119.761 27.7191ZM124.849 31.5175L126.701 31.388C126.736 31.7384 126.883 32.0062 127.142 32.1912C127.4 32.3656 127.752 32.4372 128.199 32.406C128.646 32.3747 128.986 32.2654 129.219 32.078C129.452 31.8907 129.558 31.6534 129.538 31.3661C129.508 30.9404 129.185 30.6797 128.569 30.5837L127.125 30.3479C126.39 30.2389 125.84 30.0207 125.475 29.6934C125.11 29.3554 124.905 28.8725 124.861 28.2447C124.807 27.4786 125.052 26.8573 125.597 26.3808C126.151 25.893 126.89 25.6167 127.816 25.552C128.699 25.4902 129.429 25.6745 130.004 26.1047C130.59 26.5342 130.915 27.1317 130.979 27.897L129.128 28.0265C129.094 27.6868 128.963 27.4286 128.737 27.2519C128.51 27.0646 128.21 26.984 127.838 27.01C127.455 27.0368 127.163 27.1428 126.962 27.3279C126.76 27.5024 126.67 27.7386 126.691 28.0366C126.721 28.4728 127.083 28.747 127.775 28.8589L129.219 29.0948C129.911 29.2068 130.428 29.4165 130.77 29.7241C131.123 30.0309 131.321 30.4822 131.362 31.0781C131.417 31.8655 131.158 32.5145 130.584 33.0251C130.01 33.5357 129.229 33.8256 128.239 33.8948C127.26 33.9633 126.461 33.7785 125.843 33.3406C125.235 32.902 124.903 32.2943 124.849 31.5175Z" fill="white"/>
</g>
<defs>
<filter id="filter0_d_37_6149" x="-0.807343" y="6.93649e-06" width="274.557" height="289.914" filterUnits="userSpaceOnUse" color-interpolation-filters="sRGB">
<feFlood flood-opacity="0" result="BackgroundImageFix"/>
<feColorMatrix in="SourceAlpha" type="matrix" values="0 0 0 0 0 0 0 0 0 0 0 0 0 0 0 0 0 0 127 0" result="hardAlpha"/>
<feOffset dy="4"/>
<feGaussianBlur stdDeviation="2"/>
<feComposite in2="hardAlpha" operator="out"/>
<feColorMatrix type="matrix" values="0 0 0 0 0.0705882 0 0 0 0 0.196078 0 0 0 0 0.196078 0 0 0 0.24 0"/>
<feBlend mode="normal" in2="BackgroundImageFix" result="effect1_dropShadow_37_6149"/>
<feBlend mode="normal" in="SourceGraphic" in2="effect1_dropShadow_37_6149" result="shape"/>
</filter>
<clipPath id="clip0_37_6149">
<rect x="11.8488" y="54.8569" width="236.962" height="222.38" rx="6" transform="rotate(-4 11.8488 54.8569)" fill="white"/>
</clipPath>
<clipPath id="clip1_37_6149">
<rect width="8.50633" height="8.50633" fill="white" transform="translate(188.34 61.5364) rotate(-4)"/>
</clipPath>
<clipPath id="clip2_37_6149">
<rect width="218.734" height="14.8608" fill="white" transform="translate(31.6636 207.568) rotate(-4)"/>
</clipPath>
</defs>
</svg>
