<svg width="275" height="308" viewBox="0 0 275 308" fill="none" xmlns="http://www.w3.org/2000/svg">
<g filter="url(#filter0_d_37_6087)">
<rect x="23.0035" width="249" height="284" rx="12" transform="rotate(4 23.0035 0)" fill="#2F5C5C"/>
<g clip-path="url(#clip0_37_6087)">
<rect x="26.3581" y="38.3274" width="236.962" height="240" rx="6" transform="rotate(4 26.3581 38.3274)" fill="white"/>
<path d="M35.0044 65.4015L33.7146 65.3113L36.7705 58.4012L38.041 58.4901L40.1055 65.7582L38.7963 65.6667L38.3387 63.9877L35.6912 63.8026L35.0044 65.4015ZM37.0979 60.5486L36.1329 62.781L38.0531 62.9153L37.3985 60.5696C37.333 60.2987 37.2972 60.1143 37.291 60.0164C37.24 60.1882 37.1757 60.3656 37.0979 60.5486ZM42.5619 66.0567C41.8766 66.0088 41.3463 65.741 40.9711 65.2535C40.5959 64.766 40.4345 64.1473 40.4869 63.3973C40.5398 62.6409 40.7897 62.0412 41.2364 61.5981C41.6901 61.1491 42.2726 60.9494 42.9837 60.9992C43.3199 61.0227 43.6223 61.112 43.8908 61.2672C44.1598 61.416 44.3602 61.6152 44.4922 61.8648L44.7045 58.8293L45.8779 58.9114L45.3734 66.1266L44.2872 66.0506L44.2618 65.2985C44.1006 65.5601 43.8691 65.7583 43.5673 65.8931C43.2655 66.0279 42.9304 66.0825 42.5619 66.0567ZM41.9577 64.5234C42.1784 64.8052 42.4924 64.9604 42.8997 64.9888C43.307 65.0173 43.6427 64.9076 43.907 64.6597C44.1781 64.4058 44.3288 64.0623 44.3591 63.6291C44.3894 63.1959 44.2879 62.8348 44.0548 62.5456C43.8281 62.2569 43.5111 62.0983 43.1038 62.0698C42.6965 62.0413 42.3637 62.1545 42.1055 62.4093C41.8473 62.6641 41.7031 63.0081 41.6728 63.4413C41.6425 63.8744 41.7375 64.2351 41.9577 64.5234ZM48.5662 66.4765C47.8809 66.4286 47.3506 66.1609 46.9754 65.6734C46.6002 65.1859 46.4388 64.5671 46.4913 63.8172C46.5442 63.0607 46.794 62.461 47.2408 62.018C47.6945 61.5689 48.2769 61.3693 48.9881 61.419C49.3243 61.4425 49.6266 61.5319 49.8951 61.6871C50.1641 61.8358 50.3646 62.035 50.4965 62.2846L50.7088 59.2492L51.8822 59.3313L51.3777 66.5465L50.2915 66.4705L50.2662 65.7183C50.1049 65.9799 49.8734 66.1781 49.5717 66.313C49.2699 66.4478 48.9347 66.5023 48.5662 66.4765ZM47.962 64.9433C48.1827 65.2251 48.4967 65.3802 48.904 65.4087C49.3113 65.4372 49.6471 65.3275 49.9113 65.0796C50.1824 64.8257 50.3331 64.4821 50.3634 64.049C50.3937 63.6158 50.2923 63.2546 50.0591 62.9654C49.8324 62.6767 49.5154 62.5181 49.1081 62.4896C48.7008 62.4612 48.368 62.5743 48.1098 62.8291C47.8516 63.084 47.7074 63.4279 47.6771 63.8611C47.6468 64.2943 47.7418 64.655 47.962 64.9433ZM59.8019 67.1355L55.3991 66.8277L55.8948 59.7385L60.2976 60.0464L60.2176 61.1908L57.0561 60.9697L56.9286 62.7929L59.7604 62.9909L59.6838 64.0868L56.852 63.8887L56.7205 65.7701L59.882 65.9912L59.8019 67.1355ZM61.8072 67.2758L60.4592 67.1815L62.2719 64.9499L60.7942 62.3908L62.1713 62.4871L63.1144 64.1902L64.2466 62.6322L65.5752 62.7251L63.7764 65.0356L65.1917 67.5124L63.834 67.4175L62.9263 65.7655L61.8072 67.2758ZM65.7899 69.7859L66.2802 62.7744L67.3761 62.851L67.4028 63.5838C67.564 63.3222 67.7955 63.124 68.0973 62.9892C68.4055 62.8548 68.7439 62.8005 69.1125 62.8263C69.7848 62.8733 70.3089 63.1373 70.6845 63.6184C71.0666 64.0999 71.2315 64.7156 71.179 65.4656C71.1257 66.2284 70.8819 66.8351 70.4476 67.2855C70.0197 67.7363 69.4567 67.9374 68.7585 67.8885C68.3964 67.8632 68.0747 67.7725 67.7932 67.6164C67.5118 67.4603 67.3051 67.2574 67.1731 67.0078L66.973 69.8687L65.7899 69.7859ZM67.748 64.2219C67.4833 64.4762 67.3358 64.82 67.3055 65.2532C67.2753 65.6863 67.3735 66.0473 67.6001 66.336C67.8273 66.6182 68.1445 66.7736 68.5518 66.8021C68.9656 66.831 69.2981 66.7211 69.5494 66.4723C69.8076 66.2175 69.9519 65.8735 69.9821 65.4403C70.0124 65.0072 69.9175 64.6464 69.6972 64.3582C69.477 64.0699 69.1632 63.9115 68.7559 63.883C68.3486 63.8546 68.0126 63.9675 67.748 64.2219ZM74.0839 68.2609C73.3728 68.2112 72.8072 67.9378 72.3872 67.4406C71.9676 66.937 71.7838 66.3134 71.8358 65.5699C71.8882 64.82 72.1508 64.2244 72.6234 63.7832C73.1025 63.3424 73.6944 63.1467 74.3991 63.1959C75.1168 63.2461 75.6701 63.509 76.0592 63.9844C76.4551 64.4539 76.6269 65.0636 76.5744 65.8136L76.5494 66.1724L72.9411 65.9298C72.9724 66.7831 73.3824 67.2373 74.1712 67.2925C74.8371 67.3391 75.2576 67.1313 75.4329 66.6693L76.5287 66.7459C76.3887 67.2624 76.1014 67.6549 75.6668 67.9233C75.2387 68.1922 74.7111 68.3048 74.0839 68.2609ZM74.341 64.1664C73.6298 64.1167 73.1905 64.453 73.0231 65.1755L75.4281 65.3436C75.4512 65.0139 75.363 64.7414 75.1637 64.526C74.9708 64.3111 74.6966 64.1913 74.341 64.1664ZM78.5309 68.4452L77.3477 68.3625L77.6827 63.5717L78.7786 63.6484L78.8322 64.2758C78.9976 64.047 79.2208 63.8742 79.5019 63.7574C79.7829 63.6406 80.0883 63.5938 80.418 63.6168C81.0128 63.6584 81.4532 63.8646 81.7391 64.2354C82.025 64.6063 82.146 65.1052 82.1022 65.7324L81.896 68.6805L80.7129 68.5978L80.8994 65.9309C80.927 65.5365 80.8572 65.2328 80.6902 65.0197C80.5297 64.8071 80.291 64.6897 79.9742 64.6675C79.6122 64.6422 79.3163 64.7384 79.0867 64.9563C78.8635 65.1746 78.7384 65.4777 78.7113 65.8656L78.5309 68.4452ZM82.7349 67.2774L83.8598 67.356C83.8514 67.5698 83.9172 67.7434 84.0573 67.8766C84.1979 68.0034 84.4039 68.0763 84.6755 68.0952C84.947 68.1142 85.1607 68.0772 85.3167 67.9842C85.4726 67.8911 85.5567 67.7573 85.5689 67.5827C85.587 67.3241 85.4147 67.1399 85.052 67.0301L84.2032 66.7661C83.7703 66.6384 83.4579 66.4606 83.2659 66.2328C83.0744 65.9985 82.992 65.6906 83.0187 65.3092C83.0512 64.8437 83.2513 64.4906 83.619 64.25C83.9936 64.0033 84.4621 63.8996 85.0246 63.9389C85.5612 63.9765 85.9844 64.149 86.2942 64.4565C86.6105 64.7645 86.7556 65.1515 86.7296 65.6174L85.6046 65.5387C85.6126 65.3314 85.556 65.165 85.4349 65.0396C85.3141 64.9077 85.1406 64.8339 84.9144 64.8181C84.6816 64.8018 84.497 64.8408 84.3604 64.9352C84.2243 65.0232 84.15 65.1577 84.1373 65.3387C84.1188 65.6038 84.313 65.7993 84.72 65.9252L85.5689 66.1892C85.9759 66.3151 86.2693 66.485 86.4493 66.699C86.6357 66.9135 86.7162 67.2017 86.6909 67.5638C86.6574 68.0422 86.4465 68.4107 86.0581 68.6694C85.6697 68.9281 85.1749 69.0365 84.5736 68.9944C83.9788 68.9528 83.5138 68.7741 83.1785 68.4583C82.8497 68.143 82.7019 67.7493 82.7349 67.2774ZM89.6251 69.3477C88.9139 69.2979 88.3483 69.0245 87.9283 68.5274C87.5088 68.0237 87.325 67.4002 87.377 66.6567C87.4294 65.9067 87.6919 65.3111 88.1646 64.8699C88.6437 64.4291 89.2356 64.2334 89.9403 64.2827C90.6579 64.3329 91.2113 64.5957 91.6003 65.0712C91.9963 65.5407 92.1681 66.1504 92.1156 66.9003L92.0905 67.2592L88.4822 67.0166C88.5135 67.8699 88.9236 68.3241 89.7123 68.3792C90.3782 68.4258 90.7988 68.2181 90.974 67.7561L92.0699 67.8327C91.9298 68.3491 91.6425 68.7416 91.208 69.0101C90.7798 69.279 90.2522 69.3915 89.6251 69.3477ZM89.8822 65.2531C89.171 65.2034 88.7317 65.5398 88.5642 66.2622L90.9693 66.4304C90.9924 66.1006 90.9042 65.8281 90.7049 65.6128C90.512 65.3979 90.2378 65.278 89.8822 65.2531Z" fill="#0F172A"/>
<path d="M33.8265 84.023L32.8955 83.9579L33.2673 78.641L34.1983 78.7061L34.0447 80.9027L36.4013 81.0675L36.5549 78.8709L37.4859 78.936L37.1141 84.2528L36.1831 84.1877L36.3408 81.933L33.9842 81.7682L33.8265 84.023ZM42.7495 79.9838C43.194 80.5265 43.3879 81.2027 43.3312 82.0125C43.2746 82.8223 42.9859 83.4672 42.465 83.9473C41.9494 84.4229 41.3109 84.634 40.5497 84.5808C39.7884 84.5276 39.1879 84.2298 38.7484 83.6874C38.3091 83.1402 38.1178 82.4617 38.1744 81.6519C38.231 80.8421 38.5147 80.1993 39.0255 79.7234C39.5415 79.243 40.1802 79.0294 40.9414 79.0826C41.7027 79.1359 42.3054 79.4362 42.7495 79.9838ZM42.3493 81.9439C42.389 81.3765 42.2751 80.9154 42.0075 80.5605C41.7448 80.2059 41.3686 80.0115 40.8789 79.9772C40.3891 79.943 39.9871 80.083 39.6728 80.3972C39.3633 80.7118 39.1887 81.1527 39.149 81.7201C39.1094 82.2874 39.2209 82.7483 39.4836 83.1029C39.7511 83.4578 40.1298 83.6524 40.6195 83.6867C41.1044 83.7206 41.504 83.5804 41.8183 83.2662C42.133 82.9471 42.31 82.5063 42.3493 81.9439ZM44.9183 84.7986L43.7045 79.3708L44.6718 79.4385L45.3192 82.305C45.3994 82.6907 45.4549 83.0478 45.4855 83.3764C45.5726 83.0366 45.6844 82.6911 45.8211 82.3401L46.8538 79.5911L47.8794 79.6628L48.5049 82.5278C48.5782 82.874 48.6385 83.2315 48.6858 83.6002C48.8019 83.1942 48.9111 82.851 49.0136 82.5707L50.0687 79.8159L51.0142 79.882L49.0277 85.0859L48.1258 85.0229L47.2617 81.0741L45.8347 84.8626L44.9183 84.7986ZM54.2041 85.4479L53.3022 85.3848L53.674 80.068L54.5759 80.1311L55.9964 84.4842L58.0089 80.3711L58.9254 80.4352L58.5536 85.752L57.6517 85.689L57.7661 84.0525C57.8305 83.1312 57.8885 82.5456 57.9401 82.2959L56.3497 85.5979L55.4915 85.5379L54.3829 82.0544C54.4047 82.2996 54.3896 82.7955 54.3373 83.5423L54.2041 85.4479ZM59.8298 83.8898L60.0657 80.5149L60.9967 80.58L60.7648 83.8967C60.738 84.2798 60.8169 84.5801 61.0015 84.7976C61.1909 85.0155 61.4747 85.1377 61.8529 85.1641C62.2311 85.1906 62.5292 85.1091 62.7471 84.9197C62.9653 84.7254 63.0877 84.4392 63.1141 84.061L63.346 80.7443L64.277 80.8094L64.041 84.1843C63.9976 84.8049 63.7715 85.2861 63.3627 85.6279C62.959 85.9651 62.4348 86.1111 61.7899 86.066C61.145 86.021 60.6461 85.8033 60.2933 85.4132C59.9405 85.0231 59.786 84.5153 59.8298 83.8898ZM67.2918 86.4508C66.5159 86.3965 65.9126 86.1058 65.4817 85.5787C65.0559 85.047 64.8722 84.3642 64.9306 83.5302C64.9882 82.7059 65.2723 82.0582 65.7827 81.5871C66.2932 81.1161 66.9387 80.9078 67.7194 80.9624C68.3498 81.0065 68.8689 81.2133 69.2767 81.5829C69.6845 81.9526 69.9145 82.4267 69.9666 83.0053L68.9847 82.9366C68.9142 82.6198 68.7589 82.3678 68.5186 82.1804C68.2835 81.9886 67.989 81.8803 67.635 81.8555C67.1453 81.8213 66.7433 81.9613 66.4289 82.2755C66.1198 82.5852 65.9454 83.0238 65.9057 83.5911C65.8664 84.1535 65.9803 84.6147 66.2475 84.9744C66.515 85.3294 66.8913 85.5238 67.3762 85.5577C67.735 85.5828 68.049 85.517 68.3182 85.3604C68.5922 85.2042 68.7832 84.9812 68.8912 84.6915L69.8586 84.7592C69.7177 85.3097 69.4122 85.7415 68.9421 86.0546C68.4722 86.3628 67.9221 86.4949 67.2918 86.4508ZM71.5004 86.6574L70.5694 86.5923L70.9412 81.2754L71.8721 81.3405L71.7185 83.5371L74.0751 83.7019L74.2287 81.5053L75.1597 81.5704L74.7879 86.8873L73.8569 86.8222L74.0146 84.5674L71.658 84.4026L71.5004 86.6574ZM77.7065 85.7246L76.8991 85.6681L76.9108 85.5008C76.9251 85.2972 76.9819 85.1111 77.0814 84.9427C77.1812 84.7693 77.2804 84.6398 77.379 84.5542C77.4824 84.4688 77.621 84.3689 77.7947 84.2543C77.9431 84.1526 78.056 84.0704 78.1335 84.0076C78.211 83.9448 78.2855 83.855 78.357 83.7382C78.4334 83.6217 78.4761 83.498 78.4853 83.3671C78.5026 83.1198 78.4437 82.9159 78.3088 82.7554C78.1738 82.5949 77.9803 82.5058 77.7281 82.4882C77.4711 82.4702 77.2541 82.5428 77.077 82.7058C76.9048 82.8692 76.8089 83.0915 76.7892 83.3727L75.8655 83.3081C75.9018 82.7893 76.1011 82.3769 76.4636 82.0709C76.8313 81.7604 77.2794 81.6236 77.8079 81.6606C78.3462 81.6982 78.7603 81.8734 79.0502 82.186C79.3406 82.4938 79.4688 82.8901 79.4349 83.375C79.422 83.5593 79.3835 83.7271 79.3193 83.8785C79.2603 84.0255 79.1732 84.1558 79.058 84.2696C78.9432 84.3785 78.8421 84.4664 78.7545 84.5334C78.6722 84.5959 78.5573 84.6707 78.4099 84.7578C78.1809 84.8977 78.0112 85.0247 77.9009 85.1388C77.7909 85.2481 77.73 85.3876 77.7182 85.5573L77.7065 85.7246ZM77.2338 87.1533C77.0689 87.1418 76.9322 87.0762 76.8236 86.9565C76.7203 86.8323 76.674 86.6927 76.6848 86.5375C76.696 86.3775 76.7613 86.2456 76.8806 86.1419C77.0051 86.0337 77.1498 85.9853 77.3147 85.9968C77.4747 86.008 77.6088 86.0759 77.717 86.2004C77.8256 86.32 77.8743 86.4599 77.8631 86.6199C77.8523 86.7751 77.7846 86.9068 77.6601 87.015C77.5359 87.1184 77.3938 87.1645 77.2338 87.1533Z" fill="#A1A1AA"/>
<path d="M30.3985 135.555L29.1847 130.127L30.152 130.195L30.7994 133.061C30.8797 133.447 30.9351 133.804 30.9657 134.133C31.0528 133.793 31.1647 133.448 31.3013 133.096L32.3341 130.347L33.3596 130.419L33.9852 133.284C34.0584 133.63 34.1187 133.988 34.166 134.357C34.2821 133.951 34.3914 133.607 34.4938 133.327L35.5489 130.572L36.4944 130.638L34.5079 135.842L33.606 135.779L32.742 131.83L31.3149 135.619L30.3985 135.555ZM37.753 136.069L36.822 136.004L37.1938 130.687L38.1248 130.752L37.9712 132.949L40.3278 133.114L40.4814 130.917L41.4124 130.982L41.0406 136.299L40.1096 136.234L40.2673 133.979L37.9107 133.814L37.753 136.069ZM42.6785 136.414L41.7111 136.346L44.0031 131.163L44.9559 131.23L46.5042 136.681L45.5223 136.612L45.1792 135.353L43.1935 135.214L42.6785 136.414ZM44.2486 132.774L43.5249 134.448L44.965 134.549L44.474 132.79C44.4249 132.586 44.398 132.448 44.3934 132.375C44.3552 132.504 44.3069 132.637 44.2486 132.774ZM46.5413 132.203L46.6014 131.345L50.6454 131.628L50.5853 132.486L49.0288 132.377L48.7171 136.836L47.7861 136.771L48.0978 132.312L46.5413 132.203ZM54.0512 137.209L52.8374 131.781L53.8047 131.849L54.4521 134.715C54.5323 135.101 54.5878 135.458 54.6184 135.787C54.7055 135.447 54.8174 135.101 54.954 134.75L55.9867 132.001L57.0123 132.073L57.6379 134.938C57.7111 135.284 57.7714 135.642 57.8187 136.011C57.9348 135.604 58.044 135.261 58.1465 134.981L59.2016 132.226L60.1471 132.292L58.1606 137.496L57.2587 137.433L56.3947 133.484L54.9676 137.273L54.0512 137.209ZM60.3576 137.65L59.3902 137.582L61.6822 132.4L62.635 132.466L64.1834 137.917L63.2015 137.849L62.8583 136.59L60.8727 136.451L60.3576 137.65ZM61.9277 134.01L61.204 135.684L62.6441 135.785L62.1532 134.026C62.1041 133.823 62.0772 133.684 62.0726 133.611C62.0343 133.74 61.986 133.873 61.9277 134.01ZM64.8126 134.11C64.8452 133.644 65.0462 133.278 65.4157 133.012C65.7903 132.741 66.2565 132.625 66.8141 132.664C67.3523 132.701 67.7716 132.872 68.072 133.175C68.3727 133.474 68.5135 133.864 68.4945 134.345L67.5635 134.28C67.5698 134.051 67.4997 133.869 67.3533 133.732C67.2073 133.59 67.0034 133.51 66.7416 133.492C66.4555 133.472 66.2206 133.521 66.0369 133.64C65.8583 133.754 65.7613 133.923 65.7457 134.146C65.7202 134.509 65.9199 134.755 66.3447 134.882L67.1684 135.122C68.0567 135.379 68.4738 135.896 68.4195 136.671C68.385 137.166 68.1803 137.549 67.8057 137.82C67.431 138.091 66.9503 138.206 66.3636 138.165C65.7963 138.125 65.3503 137.953 65.0257 137.647C64.7011 137.342 64.5506 136.952 64.5741 136.476L65.5051 136.541C65.4944 136.764 65.5693 136.947 65.7298 137.09C65.8907 137.228 66.1215 137.307 66.4221 137.328C66.7324 137.35 66.9817 137.304 67.1699 137.191C67.363 137.078 67.4674 136.909 67.483 136.686C67.5077 136.332 67.3171 136.097 66.911 135.981L66.0805 135.733C65.178 135.47 64.7553 134.929 64.8126 134.11ZM70.9611 133.911L71.0212 133.053L75.0652 133.335L75.0051 134.194L73.4486 134.085L73.1369 138.543L72.2059 138.478L72.5176 134.02L70.9611 133.911ZM76.336 138.767L75.405 138.702L75.7768 133.385L76.7078 133.45L76.5542 135.647L78.9108 135.812L79.0644 133.615L79.9954 133.68L79.6236 138.997L78.6926 138.932L78.8503 136.677L76.4937 136.512L76.336 138.767ZM82.106 133.828L81.7342 139.145L80.8032 139.08L81.175 133.763L82.106 133.828ZM82.8753 135.373C82.9079 134.907 83.1089 134.541 83.4784 134.275C83.853 134.004 84.3192 133.888 84.8768 133.927C85.415 133.964 85.8343 134.135 86.1347 134.438C86.4354 134.737 86.5762 135.127 86.5572 135.608L85.6262 135.543C85.6324 135.315 85.5624 135.132 85.416 134.995C85.27 134.853 85.0661 134.773 84.8043 134.755C84.5182 134.735 84.2833 134.784 84.0996 134.903C83.921 135.017 83.824 135.186 83.8084 135.409C83.7829 135.772 83.9826 136.018 84.4074 136.145L85.2311 136.385C86.1194 136.642 86.5365 137.159 86.4822 137.935C86.4477 138.429 86.243 138.812 85.8684 139.083C85.4937 139.354 85.013 139.469 84.4263 139.428C83.859 139.388 83.413 139.216 83.0884 138.91C82.7638 138.605 82.6133 138.215 82.6368 137.739L83.5678 137.804C83.5571 138.027 83.632 138.21 83.7925 138.353C83.9534 138.491 84.1842 138.57 84.4848 138.592C84.7951 138.613 85.0444 138.567 85.2326 138.454C85.4257 138.341 85.5301 138.172 85.5457 137.949C85.5704 137.595 85.3798 137.36 84.9737 137.244L84.1432 136.996C83.2407 136.733 82.818 136.192 82.8753 135.373ZM92.239 137.694L90.2606 137.556L90.1086 139.73L89.1776 139.665L89.5493 134.348L92.8369 134.578L92.7769 135.436L90.4203 135.272L90.3191 136.719L92.2975 136.857L92.239 137.694ZM97.7601 135.602C98.2046 136.145 98.3985 136.821 98.3418 137.631C98.2852 138.441 97.9965 139.086 97.4757 139.566C96.96 140.041 96.3215 140.252 95.5603 140.199C94.799 140.146 94.1986 139.848 93.759 139.306C93.3197 138.759 93.1284 138.08 93.185 137.27C93.2416 136.461 93.5254 135.818 94.0361 135.342C94.5521 134.861 95.1908 134.648 95.952 134.701C96.7133 134.754 97.316 135.055 97.7601 135.602ZM97.3599 137.562C97.3996 136.995 97.2857 136.534 97.0181 136.179C96.7554 135.824 96.3792 135.63 95.8895 135.596C95.3997 135.561 94.9977 135.701 94.6834 136.016C94.3739 136.33 94.1993 136.771 94.1596 137.338C94.12 137.906 94.2315 138.367 94.4942 138.721C94.7617 139.076 95.1404 139.271 95.6301 139.305C96.115 139.339 96.5146 139.199 96.8289 138.885C97.1436 138.566 97.3206 138.125 97.3599 137.562ZM99.9532 140.419L99.0222 140.354L99.394 135.037L101.423 135.179C102.029 135.221 102.49 135.399 102.804 135.714C103.118 136.028 103.257 136.447 103.22 136.971C103.17 137.693 102.815 138.163 102.157 138.38L103.015 140.633L101.997 140.562L101.234 138.513L100.092 138.433L99.9532 140.419ZM100.267 135.931L100.15 137.611L101.248 137.688C101.544 137.709 101.779 137.65 101.955 137.511C102.13 137.372 102.227 137.169 102.246 136.903C102.264 136.641 102.196 136.431 102.041 136.274C101.886 136.117 101.661 136.028 101.365 136.008L100.267 135.931ZM105.634 139.449L104.826 139.393L104.838 139.225C104.852 139.022 104.909 138.836 105.009 138.667C105.108 138.494 105.208 138.364 105.306 138.279C105.41 138.193 105.548 138.093 105.722 137.979C105.87 137.877 105.983 137.795 106.061 137.732C106.138 137.669 106.213 137.58 106.284 137.463C106.361 137.346 106.403 137.223 106.412 137.092C106.43 136.844 106.371 136.64 106.236 136.48C106.101 136.319 105.907 136.23 105.655 136.213C105.398 136.195 105.181 136.267 105.004 136.43C104.832 136.594 104.736 136.816 104.716 137.097L103.793 137.033C103.829 136.514 104.028 136.101 104.391 135.795C104.759 135.485 105.207 135.348 105.735 135.385C106.273 135.423 106.687 135.598 106.977 135.911C107.268 136.218 107.396 136.615 107.362 137.1C107.349 137.284 107.311 137.452 107.246 137.603C107.187 137.75 107.1 137.88 106.985 137.994C106.87 138.103 106.769 138.191 106.682 138.258C106.599 138.32 106.485 138.395 106.337 138.482C106.108 138.622 105.938 138.749 105.828 138.863C105.718 138.973 105.657 139.112 105.645 139.282L105.634 139.449ZM105.161 140.878C104.996 140.866 104.859 140.801 104.751 140.681C104.647 140.557 104.601 140.417 104.612 140.262C104.623 140.102 104.688 139.97 104.808 139.866C104.932 139.758 105.077 139.71 105.242 139.721C105.402 139.733 105.536 139.8 105.644 139.925C105.753 140.045 105.802 140.184 105.79 140.344C105.779 140.5 105.712 140.631 105.587 140.74C105.463 140.843 105.321 140.889 105.161 140.878Z" fill="#A1A1AA"/>
<path d="M111.436 142.618L110.731 142.568C110.392 142.121 110.135 141.579 109.96 140.943C109.785 140.307 109.722 139.645 109.77 138.956C109.816 138.302 109.965 137.669 110.217 137.058C110.47 136.447 110.805 135.935 111.224 135.52L111.929 135.57C111.589 135.97 111.306 136.474 111.078 137.082C110.851 137.685 110.713 138.33 110.665 139.019C110.619 139.673 110.661 140.322 110.792 140.965C110.928 141.603 111.142 142.154 111.436 142.618ZM116.576 136.918C117.02 137.461 117.214 138.137 117.157 138.947C117.101 139.756 116.812 140.401 116.291 140.881C115.776 141.357 115.137 141.568 114.376 141.515C113.615 141.462 113.014 141.164 112.575 140.622C112.135 140.074 111.944 139.396 112.001 138.586C112.057 137.776 112.341 137.133 112.852 136.658C113.368 136.177 114.006 135.964 114.768 136.017C115.529 136.07 116.132 136.37 116.576 136.918ZM116.176 138.878C116.215 138.311 116.101 137.85 115.834 137.495C115.571 137.14 115.195 136.946 114.705 136.911C114.215 136.877 113.813 137.017 113.499 137.331C113.19 137.646 113.015 138.087 112.975 138.654C112.936 139.222 113.047 139.682 113.31 140.037C113.577 140.392 113.956 140.587 114.446 140.621C114.931 140.655 115.33 140.515 115.645 140.2C115.959 139.881 116.136 139.44 116.176 138.878ZM120.068 139.983L118.897 139.901L118.769 141.734L117.838 141.669L118.21 136.352L120.312 136.499C120.845 136.537 121.26 136.727 121.558 137.069C121.856 137.407 121.987 137.837 121.95 138.361C121.914 138.875 121.722 139.283 121.375 139.585C121.032 139.888 120.597 140.02 120.068 139.983ZM120.072 137.316L119.083 137.247L118.955 139.072L119.93 139.14C120.245 139.163 120.493 139.099 120.674 138.951C120.855 138.803 120.955 138.581 120.976 138.285C120.996 137.994 120.927 137.766 120.768 137.598C120.614 137.432 120.382 137.338 120.072 137.316ZM122.329 137.503L122.389 136.645L126.433 136.928L126.373 137.786L124.817 137.677L124.505 142.136L123.574 142.07L123.886 137.612L122.329 137.503ZM128.076 137.042L127.704 142.359L126.773 142.294L127.145 136.977L128.076 137.042ZM133.339 138.09C133.783 138.633 133.977 139.309 133.92 140.119C133.864 140.929 133.575 141.574 133.054 142.054C132.538 142.529 131.9 142.74 131.139 142.687C130.377 142.634 129.777 142.336 129.337 141.794C128.898 141.246 128.707 140.568 128.763 139.758C128.82 138.948 129.104 138.306 129.615 137.83C130.131 137.349 130.769 137.136 131.531 137.189C132.292 137.242 132.894 137.543 133.339 138.09ZM132.938 140.05C132.978 139.483 132.864 139.022 132.597 138.667C132.334 138.312 131.958 138.118 131.468 138.084C130.978 138.049 130.576 138.189 130.262 138.504C129.952 138.818 129.778 139.259 129.738 139.826C129.698 140.394 129.81 140.855 130.073 141.209C130.34 141.564 130.719 141.759 131.209 141.793C131.693 141.827 132.093 141.687 132.407 141.372C132.722 141.053 132.899 140.613 132.938 140.05ZM135.517 142.906L134.601 142.841L134.972 137.525L135.896 137.589L138.127 141.531L138.391 137.764L139.307 137.828L138.936 143.145L138.019 143.081L135.781 139.138L135.517 142.906ZM140.571 143.259L139.603 143.191L141.895 138.009L142.848 138.075L144.397 143.526L143.415 143.458L143.071 142.199L141.086 142.06L140.571 143.259ZM142.141 139.619L141.417 141.294L142.857 141.394L142.366 139.635C142.317 139.432 142.29 139.293 142.286 139.22C142.247 139.349 142.199 139.482 142.141 139.619ZM146.366 138.321L146.054 142.78L148.28 142.936L148.22 143.794L145.063 143.573L145.435 138.256L146.366 138.321ZM149.216 145.259L148.511 145.21C148.871 144.792 149.161 144.276 149.379 143.663C149.597 143.05 149.73 142.413 149.776 141.754C149.824 141.065 149.777 140.407 149.636 139.778C149.495 139.144 149.285 138.606 149.004 138.162L149.709 138.212C150.071 138.685 150.334 139.242 150.499 139.882C150.664 140.517 150.723 141.162 150.678 141.817C150.63 142.501 150.475 143.148 150.213 143.758C149.951 144.363 149.619 144.864 149.216 145.259Z" fill="#D4D4D8"/>
<path d="M27.9317 187.242C27.1559 187.188 26.5525 186.897 26.1216 186.37C25.6959 185.838 25.5122 185.155 25.5705 184.321C25.6281 183.497 25.9122 182.849 26.4226 182.378C26.9331 181.907 27.5787 181.699 28.3593 181.753C28.9897 181.798 29.5088 182.004 29.9166 182.374C30.3244 182.744 30.5544 183.218 30.6065 183.796L29.6246 183.728C29.5542 183.411 29.3988 183.159 29.1586 182.971C28.9235 182.78 28.6289 182.671 28.275 182.647C27.7852 182.612 27.3832 182.752 27.0689 183.067C26.7597 183.376 26.5853 183.815 26.5456 184.382C26.5063 184.945 26.6202 185.406 26.8874 185.765C27.155 186.12 27.5312 186.315 28.0161 186.349C28.3749 186.374 28.6889 186.308 28.9581 186.151C29.2322 185.995 29.4232 185.772 29.5311 185.483L30.4985 185.55C30.3577 186.101 30.0522 186.533 29.582 186.846C29.1122 187.154 28.5621 187.286 27.9317 187.242ZM31.4402 187.399L30.4729 187.332L32.7648 182.149L33.7176 182.216L35.266 187.667L34.2841 187.598L33.9409 186.339L31.9553 186.2L31.4402 187.399ZM33.0103 183.76L32.2866 185.434L33.7268 185.535L33.2358 183.776C33.1867 183.572 33.1598 183.434 33.1552 183.361C33.117 183.489 33.0687 183.623 33.0103 183.76ZM35.3031 183.189L35.3631 182.331L39.4071 182.614L39.3471 183.472L37.7906 183.363L37.4788 187.822L36.5478 187.757L36.8596 183.298L35.3031 183.189ZM43.0491 188.211L39.747 187.98L40.1188 182.663L43.4209 182.894L43.3609 183.753L40.9898 183.587L40.8941 184.954L43.018 185.103L42.9605 185.925L40.8367 185.776L40.738 187.187L43.1091 187.353L43.0491 188.211ZM46.7028 183.913C46.184 183.877 45.7644 184.023 45.4442 184.351C45.1292 184.675 44.9514 185.128 44.9107 185.71C44.87 186.292 44.9888 186.754 45.2671 187.095C45.5502 187.436 45.9439 187.624 46.4481 187.66C46.9088 187.692 47.2783 187.598 47.5568 187.379C47.8404 187.155 47.9972 186.83 48.027 186.403L48.0285 186.381L46.4211 186.269L46.4786 185.447L48.9515 185.62L48.7425 188.609L47.957 188.554L47.9415 187.939C47.7766 188.137 47.5467 188.289 47.2518 188.395C46.9569 188.502 46.6325 188.542 46.2785 188.517C45.5269 188.465 44.9334 188.172 44.498 187.64C44.0674 187.108 43.8806 186.435 43.9376 185.62C43.9946 184.806 44.2835 184.158 44.8043 183.678C45.33 183.198 45.9904 182.986 46.7856 183.042C47.3966 183.085 47.9015 183.286 48.3003 183.645C48.7043 184 48.9262 184.449 48.9662 184.992L47.9843 184.924C47.9229 184.617 47.7764 184.378 47.5448 184.206C47.318 184.034 47.0374 183.937 46.7028 183.913ZM54.2037 184.328C54.6481 184.871 54.842 185.547 54.7854 186.357C54.7288 187.167 54.44 187.812 53.9192 188.292C53.4035 188.767 52.7651 188.978 52.0038 188.925C51.2425 188.872 50.6421 188.574 50.2025 188.032C49.7632 187.484 49.5719 186.806 49.6286 185.996C49.6852 185.186 49.9689 184.544 50.4797 184.068C50.9957 183.587 51.6343 183.374 52.3956 183.427C53.1569 183.48 53.7596 183.781 54.2037 184.328ZM53.8035 186.288C53.8431 185.721 53.7292 185.26 53.4617 184.905C53.199 184.55 52.8228 184.356 52.333 184.322C51.8433 184.287 51.4412 184.427 51.1269 184.742C50.8174 185.056 50.6429 185.497 50.6032 186.064C50.5635 186.632 50.675 187.093 50.9377 187.447C51.2053 187.802 51.5839 187.997 52.0736 188.031C52.5585 188.065 52.9581 187.925 53.2725 187.611C53.5871 187.291 53.7641 186.851 53.8035 186.288ZM56.3967 189.145L55.4657 189.079L55.8375 183.763L57.8668 183.905C58.4729 183.947 58.9331 184.125 59.2473 184.44C59.5615 184.754 59.7003 185.173 59.6637 185.697C59.6132 186.419 59.2588 186.889 58.6004 187.106L59.4588 189.359L58.4405 189.288L57.6775 187.239L56.5356 187.159L56.3967 189.145ZM56.7105 184.657L56.593 186.337L57.6913 186.414C57.9871 186.435 58.2227 186.375 58.3981 186.237C58.5734 186.098 58.6704 185.895 58.6891 185.628C58.7074 185.367 58.6392 185.157 58.4845 185C58.3298 184.843 58.1046 184.754 57.8088 184.734L56.7105 184.657ZM61.6442 187.407L60.073 184.059L61.113 184.132L62.0251 186.14C62.0672 186.235 62.1211 186.37 62.1868 186.545C62.203 186.522 62.2334 186.471 62.278 186.391C62.3229 186.307 62.3647 186.231 62.4033 186.166L63.5787 184.304L64.5897 184.375L62.5752 187.472L62.4287 189.566L61.4977 189.501L61.6442 187.407Z" fill="#A1A1AA"/>
<rect x="32.2139" y="89.5949" width="218.127" height="30.9873" rx="6.98734" transform="rotate(4 32.2139 89.5949)" fill="#FAFAFA" stroke="#497CED" stroke-width="0.607595"/>
<path d="M53.9252 107.305C54.0012 106.219 54.3111 105.364 54.855 104.739C55.4054 104.115 56.1073 103.833 56.9607 103.892C57.8142 103.952 58.4667 104.329 58.9184 105.023C59.3701 105.717 59.558 106.608 59.4821 107.694C59.4057 108.786 59.0957 109.642 58.5522 110.26C58.0152 110.879 57.3168 111.158 56.4569 111.098C55.5906 111.037 54.9313 110.663 54.4791 109.975C54.0334 109.288 53.8488 108.398 53.9252 107.305ZM54.6137 107.353C54.55 108.265 54.6836 109.002 55.0146 109.564C55.3461 110.12 55.8415 110.421 56.501 110.467C57.1604 110.513 57.6929 110.284 58.0985 109.78C58.5046 109.269 58.7395 108.558 58.8032 107.646C58.8674 106.728 58.7338 105.991 58.4023 105.435C58.0709 104.879 57.5754 104.578 56.916 104.532C56.2565 104.486 55.724 104.715 55.3184 105.22C54.9128 105.724 54.6779 106.435 54.6137 107.353Z" fill="#DADADD"/>
<rect x="28.6113" y="141.115" width="218.127" height="30.9873" rx="6.98734" transform="rotate(4 28.6113 141.115)" fill="#FAFAFA" stroke="#F4F4F5" stroke-width="0.607595"/>
<path d="M63.0537 160.134L60.2122 159.936L59.9986 162.99L59.3004 162.942L59.7859 155.998L63.8784 156.284L63.8337 156.924L60.4394 156.687L60.2563 159.305L63.0978 159.504L63.0537 160.134ZM67.7524 158.816L68.4216 158.863L68.0934 163.556L67.5115 163.516L67.4798 162.714C67.3315 162.977 67.0996 163.182 66.7839 163.328C66.4748 163.476 66.136 163.536 65.7674 163.511C65.2244 163.473 64.8161 163.272 64.5427 162.909C64.2692 162.545 64.1528 162.072 64.1935 161.491L64.3977 158.572L65.0765 158.619L64.8873 161.325C64.8168 162.333 65.1953 162.866 66.0228 162.924C66.4754 162.956 66.8379 162.835 67.1104 162.562C67.3834 162.282 67.5393 161.864 67.5781 161.308L67.7524 158.816ZM71.3531 163.901C70.6678 163.853 70.1276 163.588 69.7325 163.106C69.3439 162.624 69.1754 162.014 69.227 161.277C69.278 160.547 69.5265 159.966 69.9724 159.536C70.4247 159.107 70.9839 158.915 71.6498 158.962C72.2834 159.006 72.7829 159.249 73.1483 159.69C73.5142 160.125 73.6739 160.675 73.6273 161.341L73.6043 161.671L69.8706 161.41C69.8562 161.987 69.9802 162.444 70.2425 162.781C70.5118 163.112 70.8985 163.295 71.4028 163.33C72.1786 163.384 72.6792 163.101 72.9045 162.48L73.5446 162.525C73.3805 163.013 73.1116 163.375 72.7379 163.608C72.3642 163.842 71.9026 163.94 71.3531 163.901ZM72.6377 160.025C72.392 159.728 72.0494 159.565 71.6098 159.534C71.1701 159.503 70.8018 159.614 70.5048 159.866C70.2083 160.112 70.0146 160.465 69.9239 160.926L72.969 161.139C73.0007 160.687 72.8902 160.315 72.6377 160.025ZM75.2144 164.054L74.5452 164.008L75.0396 156.938L75.7087 156.985L75.2144 164.054ZM77.8437 163.907C77.8229 164.204 77.701 164.462 77.4778 164.68C77.2611 164.899 76.9992 165.02 76.6922 165.044L76.7173 164.686C76.8937 164.672 77.0409 164.611 77.1589 164.502C77.283 164.4 77.3498 164.282 77.3592 164.146C77.2914 164.187 77.2058 164.203 77.1024 164.196C76.9601 164.186 76.8437 164.133 76.753 164.035C76.6628 163.931 76.6234 163.799 76.6347 163.637C76.6464 163.469 76.7079 163.334 76.819 163.231C76.9366 163.129 77.0795 163.084 77.2475 163.095C77.4286 163.108 77.5755 163.19 77.6884 163.341C77.8082 163.485 77.86 163.674 77.8437 163.907ZM81.9532 159.361C81.9938 158.779 82.2397 158.328 82.6909 158.009C83.1424 157.683 83.7173 157.545 84.4156 157.593C85.0427 157.637 85.5387 157.838 85.9036 158.195C86.2684 158.551 86.4564 159.023 86.4674 159.608L85.7595 159.559C85.7482 159.161 85.6208 158.847 85.3771 158.616C85.1334 158.384 84.795 158.253 84.3618 158.223C83.8704 158.189 83.4679 158.278 83.1543 158.49C82.847 158.702 82.6797 159.005 82.6521 159.4C82.6096 160.007 82.9441 160.427 83.6555 160.659L84.828 161.033C85.9085 161.375 86.4156 162.021 86.3491 162.972C86.3071 163.573 86.057 164.036 85.599 164.361C85.1474 164.687 84.5628 164.825 83.8452 164.775C83.1728 164.728 82.6348 164.524 82.2311 164.165C81.834 163.806 81.6326 163.34 81.6272 162.768L82.3448 162.818C82.3389 163.182 82.4769 163.484 82.759 163.724C83.041 163.965 83.418 164.102 83.89 164.135C84.4007 164.17 84.8129 164.082 85.1266 163.87C85.4467 163.659 85.6206 163.356 85.6482 162.962C85.6925 162.328 85.3552 161.902 84.6364 161.682L83.4833 161.309C82.3963 160.967 81.8862 160.317 81.9532 159.361ZM88.4062 164.977L87.7468 164.931L88.0357 160.799L87.095 160.734L87.1343 160.171L88.075 160.237L88.1788 158.753L88.8382 158.799L88.7345 160.283L89.6752 160.349L89.6358 160.911L88.6951 160.846L88.4062 164.977ZM90.0053 162.73C90.0555 162.013 90.3199 161.437 90.7986 161.002C91.2837 160.569 91.8721 160.376 92.5639 160.424C93.2557 160.473 93.8084 160.745 94.2219 161.242C94.6419 161.739 94.8268 162.346 94.7767 163.064C94.7269 163.775 94.4595 164.348 93.9744 164.781C93.4957 165.216 92.9105 165.409 92.2187 165.36C91.527 165.312 90.9711 165.039 90.5511 164.542C90.1375 164.045 89.9556 163.441 90.0053 162.73ZM90.6849 162.768C90.646 163.324 90.7727 163.788 91.0651 164.159C91.3579 164.524 91.7565 164.724 92.2608 164.759C92.7586 164.794 93.1781 164.648 93.5193 164.321C93.867 163.994 94.0601 163.556 94.0985 163.007C94.1365 162.464 94.006 162.006 93.7072 161.635C93.4148 161.263 93.0197 161.06 92.5219 161.025C92.0176 160.99 91.5948 161.136 91.2536 161.463C90.9124 161.79 90.7228 162.225 90.6849 162.768ZM96.0027 164.953C95.627 164.471 95.465 163.862 95.5165 163.125C95.568 162.388 95.8168 161.805 96.2626 161.375C96.715 160.945 97.2806 160.754 97.9594 160.801C98.5025 160.839 98.9481 161.017 99.2963 161.333C99.6509 161.651 99.8565 162.055 99.9132 162.546L99.244 162.499C99.1821 162.177 99.0312 161.919 98.7913 161.727C98.5518 161.528 98.2639 161.417 97.9277 161.394C97.4493 161.36 97.0462 161.504 96.7184 161.826C96.397 162.147 96.2164 162.593 96.1766 163.162C96.1378 163.718 96.2486 164.177 96.5091 164.54C96.7761 164.903 97.1455 165.101 97.6175 165.134C97.9666 165.158 98.2766 165.092 98.5474 164.936C98.8251 164.773 99.0199 164.543 99.1316 164.246L99.8105 164.293C99.6671 164.764 99.3913 165.131 98.9831 165.395C98.5748 165.659 98.1056 165.772 97.5754 165.735C96.9095 165.688 96.3853 165.428 96.0027 164.953ZM101.419 165.887L100.75 165.84L101.245 158.77L101.914 158.817L101.578 163.617L104.075 161.356L104.919 161.415L102.984 163.16L104.6 166.109L103.824 166.055L102.495 163.604L101.518 164.481L101.419 165.887ZM106.606 165.918C106.585 166.216 106.463 166.473 106.24 166.692C106.023 166.91 105.761 167.032 105.454 167.056L105.479 166.697C105.656 166.683 105.803 166.622 105.921 166.513C106.045 166.412 106.112 166.293 106.121 166.157C106.053 166.198 105.968 166.215 105.864 166.207C105.722 166.197 105.606 166.144 105.515 166.046C105.425 165.943 105.385 165.81 105.397 165.648C105.408 165.48 105.47 165.345 105.581 165.242C105.699 165.14 105.841 165.095 106.01 165.107C106.191 165.119 106.338 165.201 106.45 165.352C106.57 165.497 106.622 165.685 106.606 165.918ZM110.715 161.372C110.756 160.79 111.002 160.339 111.453 160.02C111.904 159.694 112.479 159.556 113.178 159.605C113.805 159.649 114.301 159.849 114.666 160.206C115.03 160.563 115.218 161.034 115.229 161.619L114.521 161.57C114.51 161.173 114.383 160.858 114.139 160.627C113.895 160.396 113.557 160.265 113.124 160.234C112.632 160.2 112.23 160.289 111.916 160.501C111.609 160.713 111.442 161.017 111.414 161.411C111.372 162.019 111.706 162.438 112.418 162.67L113.59 163.044C114.671 163.386 115.178 164.032 115.111 164.983C115.069 165.584 114.819 166.047 114.361 166.373C113.909 166.698 113.325 166.836 112.607 166.786C111.935 166.739 111.397 166.536 110.993 166.176C110.596 165.817 110.395 165.351 110.389 164.779L111.107 164.83C111.101 165.193 111.239 165.495 111.521 165.736C111.803 165.976 112.18 166.113 112.652 166.146C113.163 166.182 113.575 166.094 113.889 165.882C114.209 165.67 114.383 165.367 114.41 164.973C114.455 164.339 114.117 163.913 113.398 163.694L112.245 163.321C111.158 162.978 110.648 162.329 110.715 161.372ZM117.432 167.123C116.94 167.089 116.561 166.936 116.294 166.664C116.028 166.392 115.909 166.046 115.938 165.625C115.968 165.199 116.147 164.867 116.476 164.63C116.804 164.387 117.245 164.262 117.798 164.255L119.358 164.237L119.369 164.082C119.426 163.274 119.04 162.841 118.213 162.783C117.805 162.754 117.479 162.819 117.234 162.978C116.996 163.136 116.866 163.374 116.843 163.691L116.232 163.648C116.265 163.176 116.466 162.81 116.835 162.55C117.211 162.291 117.69 162.181 118.271 162.222C118.84 162.262 119.286 162.442 119.608 162.764C119.93 163.085 120.07 163.543 120.028 164.138L119.816 167.173L119.253 167.134L119.224 166.303C119.054 166.59 118.812 166.807 118.496 166.954C118.181 167.095 117.826 167.151 117.432 167.123ZM117.625 166.591C118.11 166.625 118.502 166.497 118.802 166.206C119.101 165.915 119.269 165.511 119.306 164.994L119.323 164.741L117.929 164.751C117.096 164.764 116.66 165.065 116.618 165.653C116.599 165.931 116.678 166.151 116.855 166.313C117.038 166.475 117.295 166.568 117.625 166.591ZM121.857 167.316L121.188 167.269L121.682 160.199L122.351 160.246L121.857 167.316ZM124.62 167.626C124.128 167.592 123.749 167.438 123.483 167.166C123.216 166.894 123.097 166.548 123.126 166.128C123.156 165.701 123.335 165.37 123.664 165.133C123.993 164.889 124.433 164.764 124.986 164.757L126.547 164.74L126.557 164.585C126.614 163.776 126.228 163.343 125.401 163.286C124.994 163.257 124.667 163.322 124.422 163.48C124.184 163.639 124.054 163.877 124.032 164.194L123.421 164.151C123.454 163.679 123.655 163.313 124.024 163.053C124.399 162.793 124.878 162.684 125.46 162.724C126.029 162.764 126.474 162.945 126.796 163.266C127.118 163.588 127.258 164.046 127.216 164.64L127.004 167.676L126.441 167.636L126.412 166.806C126.242 167.093 126 167.31 125.684 167.457C125.369 167.597 125.014 167.654 124.62 167.626ZM124.813 167.094C125.298 167.128 125.69 166.999 125.99 166.708C126.29 166.417 126.458 166.013 126.494 165.496L126.511 165.244L125.117 165.254C124.285 165.267 123.848 165.568 123.807 166.156C123.787 166.434 123.866 166.654 124.043 166.816C124.227 166.978 124.483 167.071 124.813 167.094ZM131.133 163.189L131.091 163.791L130.722 163.765C130.289 163.735 129.933 163.846 129.656 164.1C129.385 164.347 129.234 164.694 129.203 165.14L129.016 167.817L128.347 167.77L128.675 163.076L129.305 163.12L129.303 163.851C129.412 163.598 129.591 163.406 129.84 163.274C130.09 163.142 130.376 163.088 130.7 163.11C130.855 163.121 130.999 163.148 131.133 163.189ZM131.214 170.026L131.252 169.474L131.766 169.51C131.896 169.519 131.999 169.519 132.078 169.512C132.156 169.511 132.248 169.491 132.355 169.453C132.461 169.422 132.553 169.36 132.631 169.268C132.715 169.183 132.791 169.068 132.86 168.923L133.102 168.385L131.549 163.277L132.257 163.326L133.484 167.525L135.254 163.536L135.942 163.584L133.386 169.204C133.085 169.878 132.596 170.191 131.917 170.144C131.645 170.125 131.411 170.086 131.214 170.026ZM136.662 168.283C136.537 168.391 136.391 168.439 136.223 168.428C136.055 168.416 135.913 168.348 135.798 168.223C135.69 168.098 135.642 167.955 135.653 167.793C135.665 167.625 135.736 167.487 135.867 167.38C135.999 167.265 136.145 167.214 136.307 167.225C136.468 167.236 136.606 167.308 136.721 167.439C136.835 167.564 136.887 167.711 136.875 167.879C136.864 168.04 136.793 168.175 136.662 168.283ZM139.2 168.46C139.075 168.569 138.929 168.617 138.761 168.605C138.593 168.593 138.451 168.525 138.337 168.4C138.228 168.276 138.18 168.132 138.191 167.971C138.203 167.803 138.274 167.665 138.405 167.557C138.537 167.443 138.683 167.391 138.845 167.403C139.007 167.414 139.144 167.485 139.259 167.617C139.373 167.742 139.425 167.888 139.413 168.056C139.402 168.218 139.331 168.353 139.2 168.46ZM141.738 168.638C141.613 168.746 141.467 168.794 141.299 168.783C141.131 168.771 140.989 168.703 140.875 168.578C140.766 168.453 140.718 168.31 140.729 168.148C140.741 167.98 140.812 167.842 140.943 167.735C141.075 167.62 141.221 167.569 141.383 167.58C141.545 167.591 141.683 167.663 141.797 167.794C141.912 167.919 141.963 168.066 141.951 168.234C141.94 168.395 141.869 168.53 141.738 168.638Z" fill="#DADADD"/>
<path d="M42.5226 109.997L42.6969 107.504L41.9404 107.451L41.9838 106.831L42.7403 106.884L42.7959 106.088L42.0394 106.036L42.0828 105.415L42.8393 105.468L43.0068 103.072L44.0154 103.143L44.7691 105.603L45.9135 105.683L46.081 103.287L46.8471 103.341L46.6796 105.736L47.4361 105.789L47.3927 106.41L46.6362 106.357L46.5806 107.152L47.337 107.205L47.2936 107.826L46.5372 107.773L46.3629 110.265L45.3447 110.194L44.5976 107.637L43.4533 107.557L43.279 110.05L42.5226 109.997ZM43.4967 106.937L44.4083 107L44.173 106.185L43.5329 106.14L43.4967 106.937ZM45.6924 108.844L45.7312 108.847L45.7808 107.72L45.3735 107.691L45.6924 108.844ZM43.5763 105.519L43.9836 105.548L43.6604 104.317L43.6216 104.314L43.5763 105.519ZM45.1841 107.055L45.8339 107.1L45.8701 106.303L44.9488 106.239L45.1841 107.055Z" fill="#DADADD"/>
<path d="M40.5075 161.744C39.8222 161.696 39.282 161.431 38.887 160.949C38.4984 160.467 38.3298 159.857 38.3814 159.12C38.4325 158.39 38.6809 157.809 39.1268 157.379C39.5792 156.95 40.1383 156.758 40.8042 156.805C41.4378 156.849 41.9373 157.092 42.3028 157.533C42.6687 157.968 42.8283 158.519 42.7818 159.184L42.7587 159.514L39.025 159.253C39.0107 159.83 39.1346 160.287 39.3969 160.624C39.6662 160.955 40.0529 161.138 40.5572 161.173C41.3331 161.227 41.8336 160.944 42.059 160.323L42.699 160.368C42.5349 160.856 42.266 161.218 41.8923 161.451C41.5187 161.685 41.0571 161.783 40.5075 161.744ZM41.7921 157.868C41.5465 157.571 41.2038 157.408 40.7642 157.377C40.3246 157.346 39.9562 157.457 39.6593 157.709C39.3627 157.955 39.1691 158.308 39.0783 158.77L42.1235 158.982C42.1551 158.53 42.0447 158.158 41.7921 157.868ZM44.3806 161.83C44.2561 161.938 44.1098 161.986 43.9417 161.975C43.7736 161.963 43.6322 161.895 43.5175 161.77C43.4093 161.645 43.3608 161.502 43.3721 161.34C43.3838 161.172 43.4552 161.034 43.5862 160.927C43.7176 160.812 43.8641 160.761 44.0258 160.772C44.1874 160.784 44.3253 160.855 44.4396 160.986C44.5543 161.111 44.6058 161.258 44.594 161.426C44.5827 161.588 44.5116 161.722 44.3806 161.83ZM46.0445 161.196C45.6882 160.716 45.5331 160.147 45.5792 159.487C45.6254 158.828 45.8644 158.289 46.2965 157.871C46.729 157.446 47.2782 157.257 47.9441 157.304C48.791 157.363 49.3448 157.759 49.6054 158.492L49.7391 157.556L50.3209 157.597L50.0029 162.145C49.9541 162.843 49.7081 163.388 49.2649 163.78C48.8218 164.171 48.2575 164.343 47.5722 164.295C46.9709 164.253 46.4812 164.056 46.1029 163.705C45.7307 163.36 45.5192 162.9 45.4685 162.325L46.1377 162.372C46.1821 162.758 46.3361 163.065 46.5996 163.291C46.8627 163.524 47.2044 163.655 47.6246 163.684C48.103 163.718 48.4981 163.596 48.8099 163.319C49.1281 163.042 49.3043 162.658 49.3387 162.167L49.4167 161.052C49.232 161.37 48.9779 161.612 48.6545 161.778C48.3315 161.937 47.9696 162.003 47.5687 161.975C46.9157 161.929 46.4077 161.67 46.0445 161.196ZM46.2491 159.524C46.2143 160.022 46.3273 160.449 46.5883 160.805C46.8562 161.155 47.2293 161.347 47.7078 161.381C48.2056 161.415 48.6113 161.281 48.9248 160.978C49.2383 160.675 49.4132 160.265 49.4494 159.748C49.4851 159.237 49.372 158.81 49.1101 158.467C48.8483 158.124 48.4652 157.935 47.9609 157.9C47.4696 157.865 47.0699 158.006 46.7619 158.323C46.4544 158.632 46.2834 159.033 46.2491 159.524ZM52.3927 162.39C52.2682 162.499 52.1219 162.547 51.9538 162.535C51.7857 162.523 51.6443 162.455 51.5296 162.33C51.4213 162.205 51.3729 162.062 51.3842 161.901C51.3959 161.733 51.4673 161.595 51.5983 161.487C51.7297 161.373 51.8762 161.321 52.0379 161.332C52.1995 161.344 52.3374 161.415 52.4517 161.547C52.5664 161.672 52.6179 161.818 52.6061 161.986C52.5948 162.148 52.5237 162.282 52.3927 162.39Z" fill="#DADADD"/>
<rect x="195.856" y="66.3204" width="36.0506" height="14.2532" rx="7.12658" transform="rotate(4 195.856 66.3204)" fill="#EFF6FF"/>
<rect x="195.856" y="66.3204" width="36.0506" height="14.2532" rx="7.12658" transform="rotate(4 195.856 66.3204)" stroke="#DBEAFE" stroke-width="0.607595"/>
<g clip-path="url(#clip1_37_6087)">
<path d="M205.051 71.2648C205.179 71.2737 205.302 71.317 205.407 71.39C205.512 71.463 205.595 71.5631 205.648 71.6796L205.797 72.0098C205.85 72.1263 205.933 72.2264 206.038 72.2994C206.143 72.3724 206.266 72.4157 206.394 72.4246L207.1 72.4739C207.287 72.4871 207.462 72.5741 207.585 72.716C207.709 72.8579 207.77 73.043 207.757 73.2305L207.535 76.4126C207.522 76.6002 207.435 76.7748 207.293 76.8982C207.151 77.0215 206.966 77.0834 206.778 77.0703L201.121 76.6747C200.934 76.6616 200.759 76.5745 200.636 76.4327C200.512 76.2908 200.45 76.1057 200.463 75.9182L200.686 72.7361C200.699 72.5485 200.786 72.3739 200.928 72.2505C201.07 72.1272 201.255 72.0653 201.443 72.0784L202.149 72.1277C202.276 72.1367 202.404 72.111 202.518 72.0534C202.632 71.9958 202.728 71.9085 202.797 71.8007L202.992 71.4932C203.06 71.3853 203.157 71.298 203.271 71.2404C203.385 71.1829 203.512 71.1572 203.64 71.1661L205.051 71.2648Z" stroke="#2563EB" stroke-width="0.708861" stroke-linecap="round" stroke-linejoin="round"/>
<path d="M204.049 75.4583C204.635 75.4992 205.143 75.0575 205.184 74.4717C205.225 73.8859 204.783 73.3778 204.197 73.3369C203.611 73.2959 203.103 73.7376 203.062 74.3234C203.021 74.9092 203.463 75.4173 204.049 75.4583Z" stroke="#2563EB" stroke-width="0.708861" stroke-linecap="round" stroke-linejoin="round"/>
</g>
<path d="M211.195 73.6707C211.226 73.2343 211.41 72.8964 211.749 72.6569C212.087 72.4126 212.518 72.3088 213.042 72.3454C213.512 72.3783 213.884 72.5285 214.158 72.7962C214.432 73.0638 214.573 73.4172 214.581 73.8563L214.05 73.8192C214.042 73.5214 213.946 73.2857 213.763 73.1121C213.58 72.9385 213.327 72.8404 213.002 72.8176C212.633 72.7919 212.331 72.8585 212.096 73.0174C211.866 73.1767 211.74 73.4043 211.719 73.7001C211.688 74.1559 211.938 74.4706 212.472 74.6444L213.351 74.9251C214.162 75.1816 214.542 75.6662 214.492 76.379C214.461 76.8299 214.273 77.1774 213.93 77.4214C213.591 77.6657 213.153 77.769 212.614 77.7314C212.11 77.6961 211.707 77.5437 211.404 77.274C211.106 77.0047 210.955 76.6555 210.951 76.2264L211.489 76.264C211.485 76.5366 211.588 76.7631 211.8 76.9435C212.011 77.124 212.294 77.2266 212.648 77.2514C213.031 77.2781 213.34 77.2121 213.575 77.0531C213.815 76.8945 213.946 76.6673 213.967 76.3715C214 75.8963 213.747 75.5765 213.208 75.4121L212.343 75.1324C211.528 74.8756 211.145 74.3884 211.195 73.6707ZM215.468 77.4266C215.186 77.0658 215.064 76.609 215.103 76.0563C215.142 75.5035 215.328 75.0658 215.663 74.7432C216.002 74.421 216.426 74.2777 216.935 74.3133C217.343 74.3418 217.677 74.4748 217.938 74.7123C218.204 74.9502 218.358 75.2533 218.401 75.6217L217.899 75.5866C217.852 75.3446 217.739 75.1516 217.559 75.0074C217.379 74.8584 217.164 74.7751 216.911 74.7575C216.553 74.7324 216.25 74.8404 216.004 75.0814C215.763 75.3228 215.628 75.6569 215.598 76.0836C215.569 76.5006 215.652 76.845 215.847 77.117C216.048 77.3892 216.325 77.5377 216.679 77.5625C216.941 77.5808 217.173 77.5312 217.376 77.4139C217.585 77.292 217.731 77.1195 217.814 76.8964L218.324 76.932C218.216 77.285 218.009 77.5605 217.703 77.7583C217.397 77.9562 217.045 78.0412 216.647 78.0134C216.148 77.9785 215.755 77.7829 215.468 77.4266ZM220.011 78.2487C219.643 78.2229 219.359 78.108 219.158 77.904C218.958 77.6999 218.869 77.4403 218.891 77.1251C218.914 76.8051 219.048 76.5563 219.294 76.3786C219.541 76.1961 219.872 76.1022 220.286 76.0971L221.456 76.0839L221.465 75.9676C221.507 75.3614 221.218 75.0367 220.597 74.9933C220.292 74.9719 220.047 75.0206 219.863 75.1393C219.685 75.2584 219.587 75.4367 219.57 75.6743L219.112 75.6422C219.137 75.2883 219.287 75.0138 219.564 74.8187C219.846 74.624 220.205 74.5419 220.641 74.5724C221.068 74.6023 221.402 74.7377 221.643 74.9787C221.885 75.2197 221.99 75.5633 221.959 76.0094L221.799 78.286L221.378 78.2565L221.355 77.6337C221.228 77.8489 221.046 78.0116 220.81 78.1217C220.573 78.227 220.307 78.2693 220.011 78.2487ZM220.156 77.8495C220.52 77.8749 220.814 77.7785 221.039 77.5604C221.264 77.3422 221.39 77.0392 221.417 76.6513L221.43 76.4621L220.384 76.4694C219.76 76.4794 219.432 76.705 219.401 77.1462C219.387 77.3547 219.446 77.5196 219.579 77.641C219.716 77.7627 219.909 77.8322 220.156 77.8495ZM223.308 78.3915L222.807 78.3564L223.053 74.8361L223.489 74.8666L223.519 75.4827C223.651 75.2677 223.828 75.1071 224.05 75.0008C224.277 74.89 224.519 74.8436 224.776 74.8616C225.687 74.9253 226.109 75.4445 226.041 76.4191L225.89 78.572L225.389 78.537L225.532 76.4931C225.583 75.7513 225.292 75.3581 224.657 75.3137C224.303 75.2889 224.018 75.3884 223.802 75.6121C223.587 75.8358 223.465 76.1489 223.437 76.5513L223.308 78.3915Z" fill="#2563EB"/>
<g clip-path="url(#clip2_37_6087)">
<rect x="25.0087" y="192.634" width="27.1139" height="14.2532" rx="7.12658" transform="rotate(4 25.0087 192.634)" fill="#FFF7ED"/>
<rect x="25.0087" y="192.634" width="27.1139" height="14.2532" rx="7.12658" transform="rotate(4 25.0087 192.634)" stroke="#FFEDD5" stroke-width="0.607595"/>
<path d="M29.4377 199.222C29.4682 198.785 29.6526 198.447 29.9909 198.208C30.3296 197.963 30.7608 197.86 31.2845 197.896C31.7548 197.929 32.1268 198.079 32.4005 198.347C32.6741 198.615 32.8151 198.968 32.8233 199.407L32.2924 199.37C32.284 199.072 32.1884 198.836 32.0056 198.663C31.8229 198.489 31.569 198.391 31.2442 198.368C30.8756 198.343 30.5738 198.409 30.3385 198.568C30.1081 198.728 29.9825 198.955 29.9619 199.251C29.93 199.707 30.1808 200.021 30.7144 200.195L31.5938 200.476C32.4042 200.732 32.7845 201.217 32.7347 201.93C32.7031 202.381 32.5156 202.728 32.1721 202.972C31.8334 203.217 31.3949 203.32 30.8567 203.282C30.3524 203.247 29.9489 203.094 29.6462 202.825C29.3483 202.555 29.1973 202.206 29.1932 201.777L29.7314 201.815C29.727 202.087 29.8305 202.314 30.042 202.494C30.2535 202.675 30.5363 202.777 30.8903 202.802C31.2733 202.829 31.5825 202.763 31.8177 202.604C32.0579 202.445 32.1882 202.218 32.2089 201.922C32.2422 201.447 31.9892 201.127 31.4501 200.963L30.5853 200.683C29.77 200.426 29.3875 199.939 29.4377 199.222ZM34.2775 203.434L33.7829 203.399L33.9996 200.301L33.294 200.251L33.3235 199.829L34.0291 199.879L34.1069 198.766L34.6015 198.801L34.5236 199.913L35.2292 199.963L35.1997 200.385L34.4941 200.335L34.2775 203.434ZM35.4768 201.749C35.5144 201.211 35.7127 200.779 36.0717 200.453C36.4356 200.127 36.8769 199.983 37.3957 200.019C37.9146 200.056 38.3291 200.26 38.6392 200.632C38.9543 201.005 39.0929 201.461 39.0553 201.999C39.018 202.532 38.8174 202.962 38.4536 203.287C38.0946 203.613 37.6557 203.758 37.1369 203.721C36.618 203.685 36.2011 203.481 35.8861 203.108C35.5759 202.735 35.4395 202.282 35.4768 201.749ZM35.9864 201.777C35.9573 202.194 36.0523 202.542 36.2716 202.82C36.4913 203.094 36.7902 203.244 37.1684 203.27C37.5418 203.297 37.8564 203.187 38.1123 202.942C38.3731 202.697 38.5179 202.368 38.5467 201.956C38.5752 201.549 38.4773 201.206 38.2532 200.927C38.0339 200.649 37.7376 200.496 37.3642 200.47C36.986 200.444 36.6689 200.553 36.413 200.798C36.1571 201.044 36.0149 201.37 35.9864 201.777ZM39.9748 203.416C39.6931 203.055 39.5715 202.598 39.6102 202.045C39.6488 201.492 39.8354 201.055 40.1698 200.732C40.509 200.41 40.9332 200.267 41.4424 200.302C41.8497 200.331 42.1839 200.464 42.445 200.701C42.711 200.939 42.8652 201.242 42.9077 201.611L42.4058 201.576C42.3594 201.334 42.2462 201.14 42.0662 200.996C41.8866 200.847 41.6707 200.764 41.4186 200.746C41.0598 200.721 40.7574 200.829 40.5116 201.07C40.2705 201.312 40.1351 201.646 40.1053 202.072C40.0761 202.489 40.1592 202.834 40.3546 203.106C40.5548 203.378 40.8319 203.527 41.1859 203.551C41.4478 203.57 41.6802 203.52 41.8833 203.403C42.0916 203.281 42.2377 203.108 42.3215 202.885L42.8307 202.921C42.7231 203.274 42.5163 203.549 42.2101 203.747C41.9039 203.945 41.552 204.03 41.1544 204.002C40.6549 203.967 40.2618 203.772 39.9748 203.416ZM44.0373 204.116L43.5355 204.081L43.9062 198.779L44.4081 198.814L44.1563 202.414L46.0291 200.718L46.6619 200.762L45.2109 202.071L46.423 204.283L45.8411 204.242L44.8441 202.404L44.1111 203.062L44.0373 204.116Z" fill="#ED712E"/>
<rect x="55.6932" y="194.78" width="23.1139" height="14.2532" rx="7.12658" transform="rotate(4 55.6932 194.78)" fill="#FFF7ED"/>
<rect x="55.6932" y="194.78" width="23.1139" height="14.2532" rx="7.12658" transform="rotate(4 55.6932 194.78)" stroke="#FFEDD5" stroke-width="0.607595"/>
<path d="M62.9807 203.139L60.8496 202.99L60.6894 205.281L60.1657 205.244L60.5299 200.036L63.5993 200.251L63.5657 200.731L61.02 200.553L60.8827 202.517L63.0138 202.666L62.9807 203.139ZM66.5048 202.15L67.0066 202.185L66.7605 205.705L66.3241 205.675L66.3003 205.074C66.1891 205.271 66.0151 205.424 65.7784 205.534C65.5465 205.645 65.2924 205.69 65.016 205.671C64.6087 205.642 64.3025 205.492 64.0975 205.219C63.8924 204.947 63.8051 204.592 63.8356 204.156L63.9887 201.966L64.4978 202.002L64.3559 204.031C64.303 204.788 64.5869 205.188 65.2076 205.231C65.547 205.255 65.8189 205.164 66.0233 204.959C66.228 204.749 66.3449 204.436 66.3741 204.019L66.5048 202.15ZM69.2053 205.964C68.6913 205.928 68.2861 205.729 67.9899 205.367C67.6984 205.006 67.572 204.549 67.6107 203.996C67.649 203.448 67.8353 203.013 68.1697 202.69C68.509 202.368 68.9283 202.224 69.4278 202.259C69.903 202.292 70.2776 202.474 70.5517 202.805C70.8261 203.132 70.9459 203.544 70.9109 204.044L70.8937 204.291L68.0934 204.095C68.0826 204.528 68.1756 204.871 68.3723 205.124C68.5743 205.372 68.8643 205.509 69.2426 205.535C69.8244 205.576 70.1999 205.363 70.3689 204.898L70.8489 204.931C70.7258 205.298 70.5241 205.569 70.2439 205.744C69.9636 205.919 69.6174 205.993 69.2053 205.964ZM70.1687 203.056C69.9845 202.834 69.7275 202.711 69.3978 202.688C69.0681 202.665 68.7918 202.748 68.5691 202.937C68.3467 203.122 68.2014 203.387 68.1334 203.733L70.4172 203.892C70.441 203.553 70.3581 203.274 70.1687 203.056ZM72.1012 206.079L71.5994 206.044L71.9701 200.741L72.472 200.776L72.1012 206.079Z" fill="#ED712E"/>
<rect x="82.3876" y="196.647" width="40.1139" height="14.2532" rx="7.12658" transform="rotate(4 82.3876 196.647)" fill="#FFF7ED"/>
<rect x="82.3876" y="196.647" width="40.1139" height="14.2532" rx="7.12658" transform="rotate(4 82.3876 196.647)" stroke="#FFEDD5" stroke-width="0.607595"/>
<path d="M86.6448 202.345L86.6784 201.865L90.4096 202.126L90.376 202.606L88.7686 202.493L88.438 207.221L87.9143 207.184L88.2449 202.457L86.6448 202.345ZM92.3133 203.911L92.2818 204.362L92.0054 204.342C91.6805 204.32 91.414 204.403 91.2058 204.593C91.0028 204.779 90.8896 205.039 90.8662 205.374L90.7258 207.381L90.2239 207.346L90.4701 203.826L90.9429 203.859L90.9411 204.407C91.0225 204.217 91.1569 204.073 91.3441 203.974C91.5313 203.875 91.7461 203.834 91.9885 203.851C92.1049 203.859 92.2132 203.879 92.3133 203.911ZM93.5941 207.669C93.2256 207.643 92.9413 207.529 92.7411 207.325C92.541 207.121 92.4519 206.861 92.474 206.546C92.4964 206.226 92.6307 205.977 92.877 205.799C93.1237 205.617 93.4543 205.523 93.8688 205.518L95.0391 205.505L95.0473 205.388C95.0897 204.782 94.8005 204.457 94.1799 204.414C93.8744 204.393 93.6298 204.441 93.4461 204.56C93.2672 204.679 93.1695 204.857 93.1528 205.095L92.6946 205.063C92.7194 204.709 92.8701 204.434 93.1469 204.239C93.4285 204.045 93.7875 203.963 94.2239 203.993C94.6506 204.023 94.9847 204.158 95.2261 204.399C95.4675 204.64 95.5726 204.984 95.5414 205.43L95.3822 207.707L94.9603 207.677L94.9381 207.054C94.811 207.27 94.629 207.432 94.3923 207.542C94.156 207.648 93.8899 207.69 93.5941 207.669ZM93.7389 207.27C94.1026 207.296 94.3968 207.199 94.6216 206.981C94.8464 206.763 94.9724 206.46 94.9995 206.072L95.0127 205.883L93.967 205.89C93.3426 205.9 93.015 206.126 92.9841 206.567C92.9696 206.775 93.0287 206.94 93.1615 207.062C93.2992 207.183 93.4917 207.253 93.7389 207.27ZM96.8911 207.812L96.3893 207.777L96.6354 204.257L97.0718 204.287L97.1018 204.903C97.2338 204.688 97.4107 204.528 97.6325 204.421C97.8595 204.311 98.1016 204.264 98.3585 204.282C99.2701 204.346 99.6919 204.865 99.6237 205.84L99.4732 207.993L98.9713 207.958L99.1142 205.914C99.1661 205.172 98.8744 204.779 98.2392 204.734C97.8853 204.71 97.6006 204.809 97.3851 205.033C97.1697 205.256 97.0479 205.569 97.0198 205.972L96.8911 207.812ZM100.202 207.05L100.682 207.083C100.668 207.287 100.727 207.454 100.859 207.585C100.996 207.712 101.188 207.784 101.436 207.801C101.707 207.82 101.922 207.781 102.08 207.685C102.243 207.585 102.331 207.44 102.344 207.251C102.354 207.1 102.319 206.978 102.238 206.885C102.162 206.792 102.023 206.714 101.823 206.651L101.23 206.456C100.634 206.264 100.354 205.925 100.387 205.44C100.409 205.135 100.542 204.898 100.788 204.73C101.034 204.562 101.348 204.491 101.731 204.518C102.104 204.544 102.396 204.662 102.605 204.871C102.815 205.076 102.913 205.341 102.9 205.667L102.413 205.633C102.418 205.428 102.356 205.266 102.228 205.145C102.105 205.019 101.925 204.948 101.687 204.932C101.44 204.914 101.245 204.952 101.102 205.044C100.964 205.137 100.888 205.278 100.875 205.467C100.856 205.743 101.035 205.941 101.411 206.06L102.004 206.255C102.304 206.354 102.519 206.483 102.649 206.643C102.784 206.804 102.843 207.01 102.825 207.262C102.803 207.577 102.662 207.823 102.401 208C102.145 208.172 101.816 208.244 101.414 208.216C101.016 208.188 100.708 208.069 100.489 207.859C100.274 207.649 100.179 207.379 100.202 207.05ZM103.477 209.815L103.831 204.76L104.267 204.79L104.268 205.507C104.408 205.248 104.599 205.06 104.841 204.94C105.084 204.821 105.355 204.771 105.656 204.792C106.155 204.827 106.538 205.027 106.805 205.392C107.077 205.752 107.194 206.203 107.156 206.747C107.118 207.294 106.941 207.733 106.626 208.062C106.316 208.386 105.906 208.53 105.397 208.495C104.766 208.451 104.345 208.165 104.134 207.639L103.979 209.85L103.477 209.815ZM104.217 206.556C104.188 206.968 104.273 207.312 104.473 207.589C104.674 207.862 104.963 208.011 105.341 208.038C105.714 208.064 106.017 207.956 106.248 207.714C106.485 207.467 106.617 207.138 106.646 206.725C106.675 206.308 106.59 205.964 106.389 205.692C106.194 205.42 105.91 205.271 105.536 205.245C105.158 205.218 104.851 205.326 104.615 205.567C104.379 205.809 104.246 206.139 104.217 206.556ZM107.708 206.8C107.745 206.261 107.944 205.83 108.303 205.504C108.667 205.178 109.108 205.034 109.627 205.07C110.146 205.106 110.56 205.311 110.87 205.683C111.185 206.056 111.324 206.512 111.286 207.05C111.249 207.583 111.048 208.013 110.685 208.338C110.326 208.664 109.887 208.809 109.368 208.772C108.849 208.736 108.432 208.531 108.117 208.159C107.807 207.786 107.671 207.333 107.708 206.8ZM108.217 206.828C108.188 207.245 108.283 207.593 108.503 207.871C108.722 208.145 109.021 208.295 109.399 208.321C109.773 208.347 110.087 208.238 110.343 207.993C110.604 207.748 110.749 207.419 110.778 207.007C110.806 206.6 110.708 206.257 110.484 205.978C110.265 205.699 109.969 205.547 109.595 205.521C109.217 205.495 108.9 205.604 108.644 205.849C108.388 206.094 108.246 206.421 108.217 206.828ZM114.055 205.431L114.024 205.882L113.747 205.863C113.423 205.84 113.156 205.924 112.948 206.114C112.745 206.299 112.632 206.559 112.608 206.894L112.468 208.901L111.966 208.866L112.212 205.346L112.685 205.379L112.683 205.927C112.765 205.738 112.899 205.594 113.086 205.495C113.273 205.396 113.488 205.355 113.731 205.372C113.847 205.38 113.955 205.4 114.055 205.431ZM115.423 209.108L114.928 209.073L115.145 205.975L114.439 205.926L114.469 205.504L115.174 205.553L115.252 204.44L115.747 204.475L115.669 205.588L116.374 205.637L116.345 206.059L115.639 206.009L115.423 209.108Z" fill="#ED712E"/>
<rect x="126.04" y="199.699" width="24.1139" height="14.2532" rx="7.12658" transform="rotate(4 126.04 199.699)" fill="#FFF7ED"/>
<rect x="126.04" y="199.699" width="24.1139" height="14.2532" rx="7.12658" transform="rotate(4 126.04 199.699)" stroke="#FFEDD5" stroke-width="0.607595"/>
<path d="M131.036 210.2L130.513 210.163L130.877 204.955L132.819 205.091C133.342 205.128 133.745 205.292 134.027 205.585C134.314 205.873 134.441 206.25 134.408 206.715C134.382 207.089 134.266 207.395 134.059 207.634C133.857 207.873 133.586 208.027 133.245 208.096L134.2 210.421L133.618 210.38L132.708 208.146L131.187 208.04L131.036 210.2ZM131.367 205.465L131.22 207.567L132.653 207.667C133.012 207.692 133.297 207.619 133.509 207.449C133.726 207.274 133.846 207.022 133.869 206.692C133.892 206.358 133.806 206.093 133.61 205.899C133.419 205.701 133.145 205.589 132.786 205.564L131.367 205.465ZM136.271 210.653C135.757 210.618 135.352 210.419 135.055 210.057C134.764 209.695 134.637 209.238 134.676 208.685C134.714 208.138 134.901 207.702 135.235 207.38C135.574 207.058 135.994 206.914 136.493 206.949C136.968 206.982 137.343 207.164 137.617 207.495C137.892 207.821 138.011 208.234 137.976 208.734L137.959 208.981L135.159 208.785C135.148 209.218 135.241 209.561 135.438 209.813C135.64 210.061 135.93 210.198 136.308 210.225C136.89 210.266 137.265 210.053 137.434 209.587L137.914 209.621C137.791 209.987 137.59 210.258 137.309 210.434C137.029 210.609 136.683 210.682 136.271 210.653ZM137.234 207.746C137.05 207.524 136.793 207.401 136.463 207.378C136.133 207.355 135.857 207.438 135.634 207.627C135.412 207.811 135.267 208.076 135.199 208.422L137.483 208.582C137.506 208.243 137.423 207.964 137.234 207.746ZM139.145 210.767L138.643 210.732L138.889 207.211L139.326 207.242L139.356 207.858C139.487 207.643 139.664 207.482 139.886 207.376C140.113 207.265 140.355 207.219 140.612 207.237C141.524 207.301 141.946 207.82 141.877 208.794L141.727 210.947L141.225 210.912L141.368 208.868C141.42 208.127 141.128 207.733 140.493 207.689C140.139 207.664 139.854 207.764 139.639 207.987C139.423 208.211 139.302 208.524 139.273 208.927L139.145 210.767ZM143.534 211.074L143.04 211.039L143.257 207.941L142.551 207.891L142.581 207.469L143.286 207.519L143.364 206.406L143.858 206.441L143.781 207.553L144.486 207.603L144.457 208.025L143.751 207.975L143.534 211.074Z" fill="#ED712E"/>
<rect x="153.732" y="201.636" width="29.1139" height="14.2532" rx="7.12658" transform="rotate(4 153.732 201.636)" fill="#FFF7ED"/>
<rect x="153.732" y="201.636" width="29.1139" height="14.2532" rx="7.12658" transform="rotate(4 153.732 201.636)" stroke="#FFEDD5" stroke-width="0.607595"/>
<path d="M158.161 208.223C158.192 207.786 158.376 207.448 158.715 207.209C159.053 206.965 159.484 206.861 160.008 206.897C160.478 206.93 160.85 207.081 161.124 207.348C161.398 207.616 161.539 207.969 161.547 208.408L161.016 208.371C161.008 208.073 160.912 207.838 160.729 207.664C160.546 207.491 160.293 207.392 159.968 207.37C159.599 207.344 159.297 207.411 159.062 207.569C158.832 207.729 158.706 207.956 158.685 208.252C158.654 208.708 158.904 209.023 159.438 209.196L160.317 209.477C161.128 209.734 161.508 210.218 161.458 210.931C161.427 211.382 161.239 211.729 160.896 211.973C160.557 212.218 160.119 212.321 159.58 212.283C159.076 212.248 158.673 212.096 158.37 211.826C158.072 211.557 157.921 211.207 157.917 210.778L158.455 210.816C158.451 211.089 158.554 211.315 158.766 211.496C158.977 211.676 159.26 211.779 159.614 211.803C159.997 211.83 160.306 211.764 160.541 211.605C160.781 211.447 160.912 211.219 160.933 210.924C160.966 210.448 160.713 210.129 160.174 209.964L159.309 209.684C158.494 209.428 158.111 208.94 158.161 208.223ZM163.199 212.536C162.83 212.511 162.546 212.396 162.346 212.192C162.146 211.988 162.057 211.728 162.079 211.413C162.101 211.093 162.235 210.844 162.482 210.666C162.728 210.484 163.059 210.39 163.473 210.385L164.644 210.372L164.652 210.255C164.694 209.649 164.405 209.324 163.784 209.281C163.479 209.26 163.234 209.308 163.051 209.427C162.872 209.546 162.774 209.724 162.757 209.962L162.299 209.93C162.324 209.576 162.475 209.302 162.751 209.107C163.033 208.912 163.392 208.83 163.828 208.86C164.255 208.89 164.589 209.026 164.831 209.267C165.072 209.508 165.177 209.851 165.146 210.297L164.987 212.574L164.565 212.544L164.543 211.921C164.416 212.137 164.234 212.299 163.997 212.41C163.761 212.515 163.494 212.557 163.199 212.536ZM163.344 212.137C163.707 212.163 164.001 212.066 164.226 211.848C164.451 211.63 164.577 211.327 164.604 210.939L164.617 210.75L163.572 210.757C162.947 210.767 162.62 210.993 162.589 211.434C162.574 211.643 162.633 211.807 162.766 211.929C162.904 212.051 163.096 212.12 163.344 212.137ZM166.518 212.681L166.016 212.646L166.386 207.343L166.888 207.379L166.518 212.681ZM168.59 212.913C168.221 212.888 167.937 212.773 167.737 212.569C167.537 212.365 167.448 212.105 167.47 211.79C167.492 211.47 167.626 211.221 167.873 211.043C168.119 210.861 168.45 210.767 168.864 210.762L170.035 210.749L170.043 210.632C170.085 210.026 169.796 209.701 169.176 209.658C168.87 209.637 168.625 209.685 168.442 209.804C168.263 209.923 168.165 210.101 168.149 210.339L167.69 210.307C167.715 209.953 167.866 209.679 168.143 209.484C168.424 209.289 168.783 209.207 169.22 209.237C169.646 209.267 169.98 209.403 170.222 209.644C170.463 209.885 170.568 210.228 170.537 210.674L170.378 212.951L169.956 212.921L169.934 212.298C169.807 212.514 169.625 212.676 169.388 212.787C169.152 212.892 168.886 212.934 168.59 212.913ZM168.735 212.514C169.098 212.54 169.393 212.443 169.617 212.225C169.842 212.007 169.968 211.704 169.995 211.316L170.008 211.127L168.963 211.134C168.338 211.144 168.011 211.37 167.98 211.811C167.965 212.02 168.024 212.184 168.157 212.306C168.295 212.427 168.487 212.497 168.735 212.514ZM173.474 209.586L173.443 210.037L173.166 210.018C172.842 209.995 172.575 210.079 172.367 210.269C172.164 210.454 172.051 210.714 172.027 211.049L171.887 213.056L171.385 213.021L171.631 209.501L172.104 209.534L172.102 210.082C172.184 209.893 172.318 209.749 172.505 209.65C172.692 209.551 172.907 209.51 173.15 209.527C173.266 209.535 173.374 209.555 173.474 209.586ZM173.535 214.714L173.564 214.299L173.95 214.326C174.047 214.333 174.124 214.333 174.183 214.328C174.242 214.327 174.311 214.312 174.391 214.284C174.471 214.26 174.54 214.214 174.598 214.145C174.661 214.081 174.718 213.995 174.77 213.886L174.951 213.483L173.787 209.652L174.318 209.689L175.238 212.837L176.565 209.846L177.082 209.882L175.164 214.097C174.939 214.602 174.572 214.837 174.062 214.802C173.859 214.788 173.683 214.758 173.535 214.714Z" fill="#ED712E"/>
<rect x="186.412" y="203.921" width="32.1139" height="14.2532" rx="7.12658" transform="rotate(4 186.412 203.921)" fill="#FFF7ED"/>
<rect x="186.412" y="203.921" width="32.1139" height="14.2532" rx="7.12658" transform="rotate(4 186.412 203.921)" stroke="#FFEDD5" stroke-width="0.607595"/>
<path d="M190.974 212.571L191.212 209.174L191.736 209.211L191.5 212.586C191.468 213.042 191.564 213.399 191.79 213.659C192.015 213.918 192.356 214.064 192.812 214.096C193.258 214.127 193.608 214.029 193.863 213.804C194.123 213.573 194.268 213.233 194.3 212.782L194.536 209.407L195.059 209.443L194.822 212.84C194.781 213.427 194.576 213.878 194.208 214.193C193.845 214.509 193.368 214.646 192.776 214.605C192.17 214.562 191.707 214.362 191.386 214.003C191.07 213.64 190.933 213.163 190.974 212.571ZM196.625 214.786L196.131 214.752L196.347 211.653L195.642 211.604L195.671 211.182L196.377 211.231L196.455 210.118L196.949 210.153L196.872 211.266L197.577 211.315L197.548 211.737L196.842 211.688L196.625 214.786ZM198.815 210.32C198.737 210.388 198.647 210.418 198.546 210.411C198.444 210.404 198.359 210.361 198.291 210.283C198.224 210.206 198.193 210.116 198.201 210.014C198.208 209.912 198.25 209.827 198.328 209.76C198.406 209.687 198.496 209.655 198.598 209.662C198.7 209.669 198.784 209.714 198.852 209.796C198.924 209.875 198.957 209.965 198.95 210.066C198.943 210.168 198.898 210.253 198.815 210.32ZM197.984 214.881L198.231 211.361L198.732 211.396L198.486 214.916L197.984 214.881ZM200.057 215.026L199.555 214.991L199.925 209.689L200.427 209.724L200.057 215.026ZM201.954 210.54C201.877 210.607 201.787 210.637 201.685 210.63C201.583 210.623 201.498 210.581 201.431 210.503C201.363 210.425 201.333 210.335 201.34 210.233C201.347 210.132 201.39 210.047 201.467 209.979C201.546 209.907 201.636 209.874 201.737 209.881C201.839 209.888 201.924 209.933 201.991 210.016C202.064 210.094 202.096 210.184 202.089 210.286C202.082 210.388 202.037 210.472 201.954 210.54ZM201.124 215.101L201.37 211.58L201.872 211.616L201.626 215.136L201.124 215.101ZM203.48 215.265L202.985 215.231L203.202 212.132L202.496 212.083L202.526 211.661L203.231 211.711L203.309 210.598L203.804 210.632L203.726 211.745L204.431 211.795L204.402 212.216L203.696 212.167L203.48 215.265ZM205.669 210.799C205.591 210.867 205.502 210.897 205.4 210.89C205.298 210.883 205.213 210.841 205.146 210.763C205.078 210.685 205.048 210.595 205.055 210.493C205.062 210.391 205.104 210.307 205.182 210.239C205.26 210.167 205.35 210.134 205.452 210.141C205.554 210.148 205.639 210.193 205.706 210.276C205.778 210.354 205.811 210.444 205.804 210.546C205.797 210.647 205.752 210.732 205.669 210.799ZM204.839 215.361L205.085 211.84L205.587 211.875L205.341 215.396L204.839 215.361ZM207.858 215.659C207.344 215.623 206.938 215.425 206.642 215.063C206.351 214.701 206.224 214.244 206.263 213.691C206.301 213.143 206.488 212.708 206.822 212.386C207.161 212.063 207.581 211.92 208.08 211.955C208.555 211.988 208.93 212.17 209.204 212.501C209.478 212.827 209.598 213.24 209.563 213.739L209.546 213.987L206.746 213.791C206.735 214.224 206.828 214.567 207.025 214.819C207.227 215.067 207.517 215.204 207.895 215.231C208.477 215.271 208.852 215.059 209.021 214.593L209.501 214.627C209.378 214.993 209.176 215.264 208.896 215.44C208.616 215.615 208.27 215.688 207.858 215.659ZM208.821 212.752C208.637 212.53 208.38 212.407 208.05 212.384C207.72 212.361 207.444 212.444 207.221 212.633C206.999 212.817 206.854 213.082 206.786 213.428L209.069 213.588C209.093 213.249 209.01 212.97 208.821 212.752ZM210.001 214.727L210.481 214.761C210.467 214.965 210.526 215.132 210.658 215.263C210.795 215.39 210.987 215.462 211.235 215.479C211.506 215.498 211.721 215.459 211.879 215.363C212.042 215.262 212.13 215.118 212.143 214.928C212.153 214.778 212.118 214.656 212.037 214.563C211.961 214.47 211.822 214.392 211.622 214.329L211.029 214.134C210.433 213.942 210.153 213.603 210.186 213.118C210.208 212.812 210.341 212.576 210.587 212.408C210.833 212.24 211.147 212.169 211.53 212.196C211.903 212.222 212.195 212.34 212.404 212.549C212.614 212.754 212.712 213.019 212.699 213.345L212.212 213.311C212.217 213.106 212.155 212.944 212.027 212.823C211.904 212.697 211.724 212.626 211.486 212.609C211.239 212.592 211.044 212.63 210.901 212.722C210.763 212.815 210.687 212.956 210.674 213.145C210.655 213.421 210.834 213.619 211.21 213.738L211.803 213.933C212.103 214.032 212.318 214.161 212.448 214.321C212.583 214.482 212.642 214.688 212.624 214.94C212.602 215.255 212.461 215.501 212.2 215.678C211.944 215.85 211.615 215.922 211.213 215.894C210.815 215.866 210.507 215.747 210.288 215.537C210.073 215.327 209.978 215.057 210.001 214.727Z" fill="#ED712E"/>
<rect x="23.7601" y="210.49" width="28.1139" height="14.2532" rx="7.12658" transform="rotate(4 23.7601 210.49)" fill="#FFF7ED"/>
<rect x="23.7601" y="210.49" width="28.1139" height="14.2532" rx="7.12658" transform="rotate(4 23.7601 210.49)" stroke="#FFEDD5" stroke-width="0.607595"/>
<path d="M33.0548 218.674C32.9996 219.465 32.7215 220.096 32.2208 220.567C31.7252 221.035 31.1138 221.243 30.3864 221.192C29.6542 221.141 29.0753 220.849 28.6496 220.318C28.2242 219.781 28.0391 219.118 28.0944 218.327C28.1496 217.537 28.4252 216.906 28.9211 216.434C29.4219 215.962 30.036 215.751 30.7633 215.802C31.4955 215.854 32.0743 216.147 32.4996 216.684C32.9254 217.216 33.1104 217.879 33.0548 218.674ZM31.8602 220.184C32.2524 219.802 32.4712 219.286 32.5166 218.637C32.562 217.987 32.4194 217.448 32.0887 217.021C31.7584 216.588 31.3047 216.352 30.7277 216.311C30.1507 216.271 29.6685 216.442 29.2812 216.824C28.8991 217.202 28.6853 217.716 28.6399 218.365C28.5944 219.015 28.7345 219.556 29.06 219.988C29.3906 220.416 29.8445 220.65 30.4215 220.69C30.9937 220.73 31.4732 220.561 31.8602 220.184ZM34.5206 221.393L34.026 221.359L34.2426 218.26L33.5371 218.211L33.5666 217.789L34.2721 217.838L34.35 216.726L34.8445 216.76L34.7667 217.873L35.4722 217.922L35.4427 218.344L34.7372 218.295L34.5206 221.393ZM36.382 221.516L35.8801 221.481L36.2504 216.186L36.7522 216.221L36.5849 218.614C36.8699 218.161 37.301 217.955 37.878 217.996C38.3289 218.027 38.6545 218.179 38.8548 218.451C39.0598 218.724 39.1463 219.09 39.1141 219.551L38.9635 221.704L38.4617 221.669L38.6046 219.625C38.6564 218.883 38.3721 218.491 37.7514 218.447C37.3877 218.422 37.0958 218.521 36.8755 218.744C36.6604 218.963 36.5405 219.249 36.5157 219.603L36.382 221.516ZM41.4342 221.964C40.9202 221.928 40.515 221.73 40.2187 221.368C39.9273 221.006 39.8009 220.549 39.8396 219.996C39.8779 219.449 40.0642 219.013 40.3986 218.691C40.7379 218.368 41.1572 218.225 41.6567 218.26C42.1319 218.293 42.5065 218.475 42.7806 218.806C43.055 219.132 43.1748 219.545 43.1398 220.045L43.1226 220.292L40.3223 220.096C40.3115 220.529 40.4045 220.872 40.6012 221.124C40.8032 221.372 41.0932 221.509 41.4714 221.536C42.0533 221.577 42.4288 221.364 42.5978 220.898L43.0778 220.932C42.9547 221.298 42.753 221.569 42.4728 221.745C42.1925 221.92 41.8463 221.993 41.4342 221.964ZM42.3976 219.057C42.2134 218.835 41.9564 218.712 41.6267 218.689C41.2969 218.666 41.0207 218.749 40.798 218.938C40.5756 219.122 40.4303 219.387 40.3623 219.733L42.6461 219.893C42.6699 219.554 42.587 219.275 42.3976 219.057ZM45.8958 218.607L45.8643 219.058L45.5879 219.039C45.263 219.016 44.9965 219.1 44.7883 219.29C44.5853 219.476 44.4721 219.736 44.4487 220.07L44.3083 222.078L43.8064 222.043L44.0526 218.522L44.5254 218.555L44.5236 219.103C44.6051 218.914 44.7394 218.77 44.9266 218.671C45.1138 218.572 45.3286 218.531 45.5711 218.548C45.6874 218.556 45.7957 218.576 45.8958 218.607Z" fill="#ED712E"/>
</g>
<circle cx="244.161" cy="76.7026" r="7.89873" transform="rotate(4 244.161 76.7026)" fill="#F4F4F5"/>
<path d="M246.755 74.4474L241.567 78.9573" stroke="#71717A" stroke-width="0.810127" stroke-linecap="round" stroke-linejoin="round"/>
<path d="M241.906 74.1084L246.416 79.2964" stroke="#71717A" stroke-width="0.810127" stroke-linecap="round" stroke-linejoin="round"/>
<rect x="22.0142" y="231.102" width="218.734" height="31.5949" rx="15.7975" transform="rotate(4 22.0142 231.102)" fill="#FBB889"/>
<path d="M99.7535 250.746C99.7969 250.126 100.065 249.638 100.558 249.282C101.057 248.921 101.679 248.766 102.422 248.818C103.14 248.869 103.699 249.096 104.099 249.501C104.5 249.899 104.688 250.419 104.663 251.06L103.421 250.974C103.43 250.669 103.336 250.425 103.141 250.243C102.946 250.054 102.675 249.947 102.325 249.923C101.944 249.896 101.631 249.962 101.386 250.12C101.148 250.272 101.018 250.497 100.998 250.794C100.964 251.279 101.23 251.607 101.796 251.776L102.895 252.097C104.079 252.439 104.635 253.128 104.563 254.162C104.517 254.822 104.244 255.332 103.744 255.693C103.245 256.055 102.604 256.208 101.821 256.154C101.065 256.101 100.47 255.871 100.038 255.464C99.6048 255.056 99.4041 254.536 99.4355 253.901L100.677 253.988C100.662 254.286 100.762 254.53 100.976 254.72C101.191 254.904 101.499 255.01 101.899 255.038C102.313 255.067 102.646 255.006 102.897 254.855C103.154 254.704 103.293 254.48 103.314 254.182C103.347 253.71 103.093 253.397 102.551 253.242L101.444 252.911C100.241 252.561 99.6771 251.839 99.7535 250.746ZM106.785 256.501C106.281 256.465 105.889 256.302 105.611 256.009C105.339 255.717 105.219 255.345 105.25 254.892C105.281 254.453 105.458 254.111 105.78 253.867C106.109 253.624 106.559 253.5 107.131 253.494L108.574 253.488L108.582 253.381C108.624 252.773 108.316 252.446 107.656 252.4C107.307 252.376 107.034 252.428 106.836 252.557C106.639 252.68 106.532 252.867 106.514 253.12L105.506 253.049C105.542 252.532 105.765 252.132 106.175 251.848C106.591 251.559 107.126 251.437 107.779 251.483C108.432 251.529 108.93 251.739 109.274 252.114C109.619 252.489 109.768 253.003 109.722 253.656L109.519 256.565L108.481 256.492L108.443 255.778C108.323 256.017 108.108 256.203 107.8 256.338C107.498 256.472 107.16 256.527 106.785 256.501ZM107.235 255.635C107.604 255.661 107.902 255.578 108.13 255.386C108.357 255.194 108.484 254.914 108.51 254.545L108.528 254.293L107.523 254.301C106.84 254.318 106.484 254.527 106.456 254.928C106.426 255.361 106.686 255.597 107.235 255.635ZM111.849 256.728L110.284 251.804L111.544 251.893L112.224 254.152C112.411 254.822 112.523 255.274 112.558 255.511C112.643 255.224 112.823 254.792 113.097 254.213L114.124 252.073L115.346 252.158L113.013 256.809L111.849 256.728ZM117.589 257.256C116.877 257.206 116.312 256.933 115.892 256.436C115.472 255.932 115.288 255.309 115.34 254.565C115.393 253.815 115.655 253.22 116.128 252.778C116.607 252.338 117.199 252.142 117.904 252.191C118.621 252.241 119.175 252.504 119.564 252.98C119.96 253.449 120.132 254.059 120.079 254.809L120.054 255.168L116.446 254.925C116.477 255.778 116.887 256.232 117.676 256.288C118.342 256.334 118.762 256.126 118.938 255.664L120.033 255.741C119.893 256.258 119.606 256.65 119.171 256.918C118.743 257.187 118.216 257.3 117.589 257.256ZM117.846 253.162C117.134 253.112 116.695 253.448 116.528 254.171L118.933 254.339C118.956 254.009 118.868 253.736 118.668 253.521C118.475 253.306 118.201 253.186 117.846 253.162ZM128.044 257.86L123.641 257.553L124.137 250.463L128.539 250.771L128.459 251.916L125.298 251.695L125.17 253.518L128.002 253.716L127.925 254.812L125.094 254.614L124.962 256.495L128.124 256.716L128.044 257.86ZM130.049 258.001L128.701 257.906L130.514 255.675L129.036 253.116L130.413 253.212L131.356 254.915L132.488 253.357L133.817 253.45L132.018 255.761L133.433 258.237L132.076 258.142L131.168 256.49L130.049 258.001ZM134.032 260.511L134.522 253.499L135.618 253.576L135.644 254.309C135.806 254.047 136.037 253.849 136.339 253.714C136.647 253.58 136.986 253.525 137.354 253.551C138.027 253.598 138.551 253.862 138.926 254.343C139.308 254.825 139.473 255.44 139.421 256.19C139.367 256.953 139.124 257.56 138.689 258.01C138.261 258.461 137.698 258.662 137 258.613C136.638 258.588 136.316 258.497 136.035 258.341C135.753 258.185 135.547 257.982 135.415 257.733L135.215 260.594L134.032 260.511ZM135.99 254.947C135.725 255.201 135.578 255.545 135.547 255.978C135.517 256.411 135.615 256.772 135.842 257.061C136.069 257.343 136.386 257.499 136.794 257.527C137.207 257.556 137.54 257.446 137.791 257.197C138.049 256.942 138.194 256.598 138.224 256.165C138.254 255.732 138.159 255.371 137.939 255.083C137.719 254.795 137.405 254.636 136.998 254.608C136.59 254.579 136.254 254.692 135.99 254.947ZM142.326 258.986C141.614 258.936 141.049 258.663 140.629 258.166C140.209 257.662 140.026 257.038 140.078 256.295C140.13 255.545 140.392 254.949 140.865 254.508C141.344 254.067 141.936 253.872 142.641 253.921C143.358 253.971 143.912 254.234 144.301 254.709C144.697 255.179 144.869 255.789 144.816 256.539L144.791 256.897L141.183 256.655C141.214 257.508 141.624 257.962 142.413 258.017C143.079 258.064 143.499 257.856 143.675 257.394L144.77 257.471C144.63 257.987 144.343 258.38 143.908 258.648C143.48 258.917 142.953 259.03 142.326 258.986ZM142.583 254.891C141.872 254.842 141.432 255.178 141.265 255.9L143.67 256.069C143.693 255.739 143.605 255.466 143.405 255.251C143.213 255.036 142.938 254.916 142.583 254.891ZM146.773 259.17L145.589 259.087L145.924 254.297L147.02 254.373L147.074 255.001C147.239 254.772 147.463 254.599 147.744 254.482C148.025 254.366 148.33 254.319 148.66 254.342C149.255 254.383 149.695 254.59 149.981 254.96C150.267 255.331 150.388 255.83 150.344 256.457L150.138 259.405L148.955 259.323L149.141 256.656C149.169 256.261 149.099 255.958 148.932 255.745C148.771 255.532 148.533 255.415 148.216 255.392C147.854 255.367 147.558 255.463 147.328 255.681C147.105 255.899 146.98 256.203 146.953 256.59L146.773 259.17ZM150.977 258.002L152.102 258.081C152.093 258.295 152.159 258.468 152.299 258.602C152.44 258.728 152.646 258.801 152.917 258.82C153.189 258.839 153.402 258.802 153.558 258.709C153.714 258.616 153.798 258.482 153.811 258.308C153.829 258.049 153.656 257.865 153.294 257.755L152.445 257.491C152.012 257.363 151.7 257.186 151.508 256.958C151.316 256.723 151.234 256.416 151.26 256.034C151.293 255.569 151.493 255.216 151.861 254.975C152.235 254.728 152.704 254.625 153.266 254.664C153.803 254.701 154.226 254.874 154.536 255.181C154.852 255.489 154.997 255.876 154.971 256.342L153.846 256.264C153.854 256.056 153.798 255.89 153.677 255.765C153.556 255.633 153.382 255.559 153.156 255.543C152.923 255.527 152.739 255.566 152.602 255.66C152.466 255.748 152.392 255.883 152.379 256.064C152.36 256.329 152.555 256.524 152.962 256.65L153.811 256.914C154.218 257.04 154.511 257.21 154.691 257.424C154.877 257.638 154.958 257.927 154.933 258.289C154.899 258.767 154.688 259.136 154.3 259.394C153.911 259.653 153.417 259.761 152.815 259.719C152.22 259.678 151.755 259.499 151.42 259.183C151.091 258.868 150.944 258.474 150.977 258.002ZM157.867 260.073C157.156 260.023 156.59 259.749 156.17 259.252C155.75 258.749 155.567 258.125 155.619 257.382C155.671 256.632 155.934 256.036 156.406 255.595C156.885 255.154 157.477 254.958 158.182 255.008C158.9 255.058 159.453 255.321 159.842 255.796C160.238 256.266 160.41 256.875 160.357 257.625L160.332 257.984L156.724 257.742C156.755 258.595 157.165 259.049 157.954 259.104C158.62 259.151 159.041 258.943 159.216 258.481L160.312 258.558C160.172 259.074 159.884 259.467 159.45 259.735C159.022 260.004 158.494 260.116 157.867 260.073ZM158.124 255.978C157.413 255.928 156.973 256.265 156.806 256.987L159.211 257.155C159.234 256.826 159.146 256.553 158.947 256.338C158.754 256.123 158.479 256.003 158.124 255.978Z" fill="white"/>
</g>
<path d="M28.2204 15.5939L28.3521 13.7105L37.2265 14.3311L37.0948 16.2145L33.6791 15.9756L32.9949 25.7597L30.9519 25.6169L31.6361 15.8328L28.2204 15.5939ZM42.2357 18.4505L42.1096 20.2541L41.3913 20.2039C40.6678 20.1533 40.0904 20.3054 39.6593 20.6602C39.2388 21.0157 39.0021 21.5712 38.9493 22.3267L38.6814 26.1574L36.7342 26.0212L37.2844 18.1524L39.1199 18.2808L39.1513 19.4378C39.3498 19.0453 39.6435 18.7451 40.0323 18.537C40.4211 18.329 40.8708 18.2428 41.3816 18.2785C41.6583 18.2979 41.943 18.3552 42.2357 18.4505ZM45.0201 26.8091C44.1902 26.7511 43.5461 26.4815 43.0879 26.0004C42.6403 25.52 42.4425 24.9073 42.4946 24.1625C42.5452 23.4389 42.8358 22.8765 43.3664 22.4752C43.9077 22.0746 44.6491 21.8699 45.5907 21.8609L47.9652 21.8505L47.9775 21.6749C48.0474 20.6747 47.5397 20.1366 46.4544 20.0607C45.8798 20.0205 45.43 20.1067 45.1051 20.3192C44.7809 20.5211 44.6043 20.8295 44.5752 21.2445L42.9153 21.1284C42.9748 20.2772 43.3417 19.6185 44.0158 19.1524C44.7013 18.6764 45.5815 18.476 46.6562 18.5511C47.7309 18.6263 48.5514 18.9724 49.1178 19.5894C49.6841 20.2064 49.9297 21.0522 49.8545 22.1269L49.5197 26.9152L47.8119 26.7958L47.7497 25.6206C47.5512 26.0131 47.1983 26.3199 46.6909 26.541C46.1942 26.7629 45.6373 26.8523 45.0201 26.8091ZM45.7613 25.3853C46.3678 25.4278 46.8585 25.291 47.2335 24.975C47.6084 24.6591 47.8171 24.1979 47.8595 23.5913L47.8885 23.1764L46.2356 23.1891C45.1109 23.2174 44.5255 23.5614 44.4794 24.2211C44.4295 24.934 44.8568 25.3221 45.7613 25.3853ZM51.2466 23.0583C51.3322 21.8346 51.7692 20.8601 52.5577 20.1346C53.3462 19.4092 54.3204 19.0871 55.4803 19.1682C56.555 19.2433 57.4131 19.5867 58.0547 20.1983C58.7076 20.7999 59.0542 21.578 59.0944 22.5325L57.1471 22.3963C56.9869 21.4762 56.4174 20.9819 55.4384 20.9135C54.8106 20.8696 54.2896 21.0577 53.8752 21.4778C53.4723 21.8881 53.2452 22.4603 53.1938 23.1945C53.1417 23.9393 53.2813 24.5425 53.6126 25.0041C53.9446 25.455 54.4192 25.7021 55.0364 25.7452C55.5259 25.7794 55.9384 25.6907 56.274 25.4789C56.6202 25.2679 56.8614 24.9533 56.9976 24.5351L58.9608 24.6724C58.779 25.5899 58.3116 26.3111 57.5585 26.8358C56.8167 27.3507 55.9351 27.5724 54.9136 27.5009C53.7219 27.4176 52.7906 26.9729 52.1199 26.1668C51.4499 25.3501 51.1588 24.3139 51.2466 23.0583ZM62.1713 27.7999L60.24 27.6649L61.0704 15.7899L63.0017 15.9249L62.4916 23.2191L65.7872 20.1295L68.2292 20.3002L65.0098 23.2188L67.614 28.1805L65.3795 28.0243L63.5527 24.5604L62.3198 25.6771L62.1713 27.7999ZM76.5164 24.1838L73.0684 16.8374L75.3509 16.997L77.3524 21.4033C77.4446 21.6129 77.5629 21.9099 77.7071 22.2942C77.7427 22.2433 77.8094 22.1303 77.9072 21.9554C78.0057 21.7698 78.0974 21.6051 78.1823 21.4614L80.7617 17.3753L82.9802 17.5305L78.5594 24.3266L78.238 28.9234L76.1949 28.7806L76.5164 24.1838ZM82.4565 28.2561C81.7234 27.4242 81.3997 26.3965 81.4852 25.1728C81.5708 23.9491 82.0341 22.9818 82.8751 22.2707C83.7274 21.5497 84.7655 21.232 85.9891 21.3176C87.2128 21.4032 88.1912 21.8619 88.9243 22.6937C89.6688 23.5156 89.9982 24.5384 89.9127 25.7621C89.8271 26.9858 89.3581 27.9581 88.5058 28.6791C87.6648 29.3901 86.6324 29.7029 85.4088 29.6173C84.1851 29.5318 83.201 29.078 82.4565 28.2561ZM84.1766 23.6127C83.7304 24.0306 83.4823 24.596 83.4325 25.309C83.3826 26.0219 83.5496 26.6163 83.9333 27.0922C84.3277 27.5689 84.8601 27.8307 85.5304 27.8776C86.2008 27.9244 86.7591 27.7389 87.2053 27.321C87.6622 26.9039 87.9156 26.3389 87.9654 25.6259C88.0153 24.913 87.843 24.3182 87.4486 23.8415C87.0649 23.3656 86.5379 23.1042 85.8675 23.0573C85.1971 23.0105 84.6335 23.1956 84.1766 23.6127ZM96.8906 22.3044L98.8379 22.4406L98.2865 30.3254L96.4829 30.1992L96.4129 29.1358C96.1421 29.4911 95.7645 29.7694 95.2799 29.9708C94.7954 30.1721 94.2924 30.2546 93.771 30.2181C92.8665 30.1549 92.1786 29.8234 91.7073 29.2237C91.2367 28.6134 91.0353 27.8241 91.103 26.8558L91.4479 21.9238L93.3951 22.06L93.0983 26.3056C93 27.7102 93.5096 28.4516 94.6268 28.5297C95.8399 28.6145 96.4981 27.9174 96.6015 26.4383L96.8906 22.3044ZM105.799 22.8953L105.673 24.6989L104.955 24.6487C104.231 24.5981 103.654 24.7502 103.223 25.105C102.802 25.4605 102.566 26.016 102.513 26.7715L102.245 30.6022L100.298 30.466L100.848 22.5972L102.683 22.7256L102.715 23.8826C102.913 23.4901 103.207 23.1899 103.596 22.9818C103.985 22.7738 104.434 22.6876 104.945 22.7233C105.222 22.7427 105.506 22.8 105.799 22.8953ZM118.399 31.7318L111.153 31.2251L111.969 19.5576L119.215 20.0643L119.083 21.9477L113.88 21.5838L113.67 24.5845L118.331 24.9104L118.205 26.714L113.544 26.3881L113.328 29.4845L118.531 29.8484L118.399 31.7318ZM121.7 31.9626L119.481 31.8074L122.464 28.1346L120.032 23.9227L122.299 24.0812L123.851 26.8843L125.714 24.32L127.901 24.4729L124.941 28.2757L127.27 32.3521L125.035 32.1958L123.541 29.477L121.7 31.9626ZM128.254 36.0939L129.061 24.554L130.865 24.6802L130.909 25.8862C131.174 25.4556 131.555 25.1294 132.052 24.9075C132.559 24.6864 133.116 24.597 133.723 24.6394C134.829 24.7168 135.692 25.1514 136.31 25.9431C136.939 26.7355 137.21 27.7489 137.124 28.9833C137.036 30.2389 136.635 31.2373 135.92 31.9786C135.216 32.7206 134.289 33.0514 133.14 32.9711C132.544 32.9294 132.015 32.7801 131.552 32.5232C131.088 32.2662 130.748 31.9323 130.531 31.5215L130.202 36.23L128.254 36.0939ZM131.477 26.9364C131.042 27.355 130.799 27.9208 130.749 28.6337C130.699 29.3466 130.861 29.9407 131.234 30.4159C131.608 30.8804 132.13 31.1361 132.8 31.183C133.481 31.2306 134.028 31.0497 134.442 30.6402C134.867 30.2208 135.104 29.6547 135.154 28.9417C135.204 28.2288 135.048 27.6351 134.685 27.1607C134.323 26.6863 133.806 26.4256 133.136 26.3787C132.466 26.3318 131.913 26.5177 131.477 26.9364ZM141.905 33.584C140.735 33.5021 139.804 33.0521 139.112 32.2339C138.422 31.405 138.119 30.3788 138.205 29.1551C138.291 27.9208 138.723 26.9405 139.501 26.2143C140.29 25.4889 141.264 25.1667 142.424 25.2478C143.605 25.3304 144.516 25.763 145.156 26.5456C145.808 27.3183 146.09 28.3218 146.004 29.5561L145.963 30.1466L140.024 29.7474C140.076 31.1518 140.75 31.8993 142.049 31.9901C143.145 32.0667 143.837 31.7249 144.125 30.9645L145.929 31.0906C145.698 31.9406 145.225 32.5865 144.51 33.0283C143.806 33.4709 142.937 33.6561 141.905 33.584ZM142.328 26.8451C141.158 26.7632 140.435 27.3168 140.159 28.5058L144.117 28.7826C144.155 28.2399 144.01 27.7914 143.682 27.437C143.365 27.0833 142.913 26.886 142.328 26.8451ZM149.224 33.8872L147.277 33.7511L147.828 25.8663L149.632 25.9925L149.72 27.0251C149.992 26.6485 150.36 26.3641 150.822 26.1719C151.285 25.9797 151.787 25.9026 152.33 25.9405C153.309 26.009 154.034 26.3484 154.504 26.9587C154.975 27.569 155.174 28.3902 155.102 29.4224L154.762 34.2745L152.815 34.1384L153.122 29.7491C153.168 29.1 153.053 28.6001 152.778 28.2494C152.514 27.8995 152.121 27.7063 151.599 27.6698C151.004 27.6281 150.517 27.7866 150.139 28.1451C149.771 28.5043 149.566 29.0032 149.521 29.6416L149.224 33.8872ZM156.143 31.9652L157.995 32.0947C157.981 32.4466 158.089 32.7322 158.32 32.9514C158.551 33.1601 158.89 33.28 159.337 33.3113C159.784 33.3425 160.136 33.2816 160.392 33.1285C160.649 32.9753 160.787 32.7551 160.807 32.4678C160.837 32.0422 160.554 31.739 159.957 31.5583L158.56 31.1237C157.847 30.9135 157.333 30.621 157.017 30.246C156.702 29.8604 156.566 29.3537 156.61 28.7259C156.664 27.9598 156.993 27.3787 157.598 26.9826C158.215 26.5766 158.986 26.406 159.912 26.4707C160.795 26.5325 161.491 26.8164 162.001 27.3225C162.522 27.8294 162.761 28.4663 162.718 29.2332L160.866 29.1037C160.879 28.7625 160.786 28.4886 160.587 28.2822C160.388 28.0652 160.103 27.9436 159.73 27.9176C159.347 27.8908 159.043 27.9551 158.818 28.1105C158.594 28.2552 158.472 28.4765 158.451 28.7745C158.421 29.2107 158.74 29.5325 159.41 29.7397L160.807 30.1742C161.477 30.3814 161.96 30.6612 162.256 31.0133C162.563 31.3663 162.696 31.8407 162.654 32.4365C162.599 33.224 162.252 33.8306 161.613 34.2563C160.973 34.6821 160.159 34.8604 159.169 34.7912C158.19 34.7227 157.425 34.4286 156.873 33.9089C156.332 33.3899 156.089 32.742 156.143 31.9652ZM167.483 35.3726C166.313 35.2907 165.382 34.8407 164.691 34.0225C164 33.1936 163.698 32.1674 163.783 30.9437C163.869 29.7094 164.302 28.7291 165.079 28.0029C165.868 27.2775 166.842 26.9553 168.002 27.0364C169.183 27.119 170.094 27.5516 170.734 28.3342C171.386 29.1069 171.669 30.1104 171.582 31.3447L171.541 31.9352L165.602 31.536C165.654 32.9404 166.329 33.6879 167.627 33.7787C168.723 33.8553 169.415 33.5135 169.703 32.7531L171.507 32.8792C171.276 33.7292 170.804 34.3751 170.088 34.8169C169.384 35.2595 168.515 35.4447 167.483 35.3726ZM167.906 28.6337C166.736 28.5518 166.013 29.1054 165.737 30.2944L169.696 30.5712C169.733 30.0285 169.588 29.58 169.26 29.2256C168.943 28.8719 168.492 28.6746 167.906 28.6337ZM172.416 33.1031L174.267 33.2326C174.253 33.5845 174.362 33.8701 174.592 34.0893C174.824 34.298 175.163 34.4179 175.61 34.4492C176.057 34.4804 176.408 34.4195 176.665 34.2664C176.922 34.1132 177.06 33.893 177.08 33.6057C177.11 33.1801 176.826 32.8769 176.229 32.6962L174.832 32.2616C174.12 32.0514 173.606 31.7589 173.29 31.3839C172.975 30.9983 172.839 30.4916 172.883 29.8638C172.936 29.0977 173.266 28.5166 173.871 28.1205C174.487 27.7145 175.259 27.5439 176.184 27.6086C177.067 27.6704 177.764 27.9543 178.274 28.4605C178.795 28.9673 179.033 29.6042 178.99 30.3711L177.139 30.2416C177.152 29.9004 177.059 29.6265 176.86 29.4201C176.661 29.2031 176.375 29.0815 176.003 29.0555C175.62 29.0287 175.316 29.093 175.091 29.2484C174.867 29.3931 174.745 29.6144 174.724 29.9124C174.694 30.3486 175.013 30.6704 175.683 30.8776L177.08 31.3121C177.75 31.5194 178.233 31.7991 178.529 32.1512C178.836 32.5042 178.968 32.9786 178.927 33.5744C178.872 34.3619 178.525 34.9685 177.885 35.3942C177.246 35.82 176.432 35.9983 175.442 35.9291C174.463 35.8606 173.698 35.5665 173.146 35.0468C172.605 34.5278 172.361 33.8799 172.416 33.1031Z" fill="white"/>
</g>
<defs>
<filter id="filter0_d_37_6087" x="-0.807373" y="0" width="276.204" height="308.678" filterUnits="userSpaceOnUse" color-interpolation-filters="sRGB">
<feFlood flood-opacity="0" result="BackgroundImageFix"/>
<feColorMatrix in="SourceAlpha" type="matrix" values="0 0 0 0 0 0 0 0 0 0 0 0 0 0 0 0 0 0 127 0" result="hardAlpha"/>
<feOffset dy="4"/>
<feGaussianBlur stdDeviation="2"/>
<feComposite in2="hardAlpha" operator="out"/>
<feColorMatrix type="matrix" values="0 0 0 0 0.0705882 0 0 0 0 0.196078 0 0 0 0 0.196078 0 0 0 0.24 0"/>
<feBlend mode="normal" in2="BackgroundImageFix" result="effect1_dropShadow_37_6087"/>
<feBlend mode="normal" in="SourceGraphic" in2="effect1_dropShadow_37_6087" result="shape"/>
</filter>
<clipPath id="clip0_37_6087">
<rect x="26.3581" y="38.3274" width="236.962" height="240" rx="6" transform="rotate(4 26.3581 38.3274)" fill="white"/>
</clipPath>
<clipPath id="clip1_37_6087">
<rect width="8.50633" height="8.50633" fill="white" transform="translate(200.202 69.5047) rotate(4)"/>
</clipPath>
<clipPath id="clip2_37_6087">
<rect width="218.734" height="32.7595" fill="white" transform="translate(24.7268 192.31) rotate(4)"/>
</clipPath>
</defs>
</svg>
