<svg width="20" height="20" viewBox="0 0 20 20" fill="none" xmlns="http://www.w3.org/2000/svg">
<path d="M8.33333 2.5H3.33333C2.8731 2.5 2.5 2.8731 2.5 3.33333V16.6667C2.5 17.1269 2.8731 17.5 3.33333 17.5H8.33333C8.79357 17.5 9.16667 17.1269 9.16667 16.6667V3.33333C9.16667 2.8731 8.79357 2.5 8.33333 2.5Z" stroke="#A1A3AE" stroke-width="1.66667" stroke-linecap="round" stroke-linejoin="round"/>
<path d="M5.8335 2.5V17.5" stroke="#A1A3AE" stroke-width="1.66667" stroke-linecap="round" stroke-linejoin="round"/>
<path d="M17.0004 15.7501C17.1671 16.1668 16.9171 16.6668 16.5004 16.8335L14.9171 17.4168C14.5004 17.5835 14.0004 17.3335 13.8338 16.9168L9.25045 4.25012C9.08378 3.83346 9.33378 3.33346 9.75045 3.16679L11.3338 2.58346C11.7504 2.41679 12.2504 2.66679 12.4171 3.08346L17.0004 15.7501Z" stroke="#A1A3AE" stroke-width="1.66667" stroke-linecap="round" stroke-linejoin="round"/>
</svg>
