<svg width="20" height="20" viewBox="0 0 20 20" fill="none" xmlns="http://www.w3.org/2000/svg">
<path d="M14.9378 16.7134C14.7508 15.5382 14.1508 14.4683 13.2456 13.6959C12.3405 12.9235 11.1895 12.4992 9.99957 12.4993C8.80963 12.4994 7.65874 12.9238 6.75371 13.6964C5.84868 14.469 5.24885 15.539 5.06201 16.7142" stroke="#A1A3AE" stroke-width="1.66667" stroke-linecap="round" stroke-linejoin="round"/>
<path d="M9.99984 12.4999C11.8408 12.4999 13.3332 11.0075 13.3332 9.16659C13.3332 7.32564 11.8408 5.83325 9.99984 5.83325C8.15889 5.83325 6.6665 7.32564 6.6665 9.16659C6.6665 11.0075 8.15889 12.4999 9.99984 12.4999Z" stroke="#A1A3AE" stroke-width="1.66667" stroke-linecap="round" stroke-linejoin="round"/>
<path d="M9.99984 18.3334C14.6022 18.3334 18.3332 14.6025 18.3332 10.0001C18.3332 5.39771 14.6022 1.66675 9.99984 1.66675C5.39746 1.66675 1.6665 5.39771 1.6665 10.0001C1.6665 14.6025 5.39746 18.3334 9.99984 18.3334Z" stroke="#A1A3AE" stroke-width="1.66667" stroke-linecap="round" stroke-linejoin="round"/>
</svg>
