<svg width="20" height="20" viewBox="0 0 20 20" fill="none" xmlns="http://www.w3.org/2000/svg">
<path d="M5.00016 18.3334C4.55814 18.3334 4.13421 18.1578 3.82165 17.8453C3.50909 17.5327 3.3335 17.1088 3.3335 16.6668V3.33342C3.3335 2.89139 3.50909 2.46747 3.82165 2.15491C4.13421 1.84235 4.55814 1.66675 5.00016 1.66675H11.6668C11.9306 1.66632 12.1919 1.71809 12.4356 1.81906C12.6793 1.92003 12.9006 2.06822 13.0868 2.25508L16.0768 5.24508C16.2642 5.43134 16.4128 5.65287 16.5141 5.89689C16.6153 6.1409 16.6673 6.40256 16.6668 6.66675V16.6668C16.6668 17.1088 16.4912 17.5327 16.1787 17.8453C15.8661 18.1578 15.4422 18.3334 15.0002 18.3334H5.00016Z" stroke="#A1A3AE" stroke-width="1.66667" stroke-linecap="round" stroke-linejoin="round"/>
<path d="M11.6665 1.66675V5.83341C11.6665 6.05443 11.7543 6.26639 11.9106 6.42267C12.0669 6.57895 12.2788 6.66675 12.4998 6.66675H16.6665" stroke="#A1A3AE" stroke-width="1.66667" stroke-linecap="round" stroke-linejoin="round"/>
<path d="M8.33317 7.5H6.6665" stroke="#A1A3AE" stroke-width="1.66667" stroke-linecap="round" stroke-linejoin="round"/>
<path d="M13.3332 10.8333H6.6665" stroke="#A1A3AE" stroke-width="1.66667" stroke-linecap="round" stroke-linejoin="round"/>
<path d="M13.3332 14.1667H6.6665" stroke="#A1A3AE" stroke-width="1.66667" stroke-linecap="round" stroke-linejoin="round"/>
</svg>
